<mxfile host="app.diagrams.net" modified="2020-05-11T06:46:49.141Z" agent="5.0 (Windows NT 10.0; Win64; x64) AppleWebKit/537.36 (KHTML, like Gecko) Chrome/81.0.4044.138 Safari/537.36" etag="oUQwxrOSN8LpF0Kaytxd" version="13.0.9" type="github">
  <diagram id="KRZDXByu6doUPED600xI" name="第 1 页">
    <mxGraphModel dx="3043" dy="526" grid="0" gridSize="10" guides="1" tooltips="1" connect="1" arrows="1" fold="1" page="0" pageScale="1" pageWidth="827" pageHeight="1169" math="0" shadow="0">
      <root>
        <mxCell id="0" />
        <mxCell id="1" parent="0" />
        <mxCell id="CSPdOCzLkxVM9AliIM8e-26" value="" style="rounded=1;whiteSpace=wrap;html=1;fillColor=#FFFFFF;fontSize=5;" parent="1" vertex="1">
          <mxGeometry x="-125" y="821" width="120" height="203" as="geometry" />
        </mxCell>
        <mxCell id="CSPdOCzLkxVM9AliIM8e-11" value="" style="rounded=1;whiteSpace=wrap;html=1;fillColor=#FFFFFF;" parent="1" vertex="1">
          <mxGeometry x="709" y="186" width="166" height="334" as="geometry" />
        </mxCell>
        <mxCell id="ED9poW3Hxn3ZgU86maUU-40" value="营销业务" style="rounded=1;whiteSpace=wrap;html=1;verticalAlign=top;" parent="1" vertex="1">
          <mxGeometry x="255" y="124" width="383" height="106" as="geometry" />
        </mxCell>
        <mxCell id="ED9poW3Hxn3ZgU86maUU-39" value="主线业务" style="rounded=1;whiteSpace=wrap;html=1;verticalAlign=top;" parent="1" vertex="1">
          <mxGeometry x="-311" y="286.5" width="165" height="350" as="geometry" />
        </mxCell>
        <mxCell id="ED9poW3Hxn3ZgU86maUU-28" style="edgeStyle=orthogonalEdgeStyle;rounded=0;orthogonalLoop=1;jettySize=auto;html=1;exitX=1;exitY=0.5;exitDx=0;exitDy=0;dashed=1;" parent="1" source="ED9poW3Hxn3ZgU86maUU-1" target="ED9poW3Hxn3ZgU86maUU-2" edge="1">
          <mxGeometry relative="1" as="geometry" />
        </mxCell>
        <mxCell id="CSPdOCzLkxVM9AliIM8e-6" style="edgeStyle=orthogonalEdgeStyle;rounded=0;orthogonalLoop=1;jettySize=auto;html=1;exitX=0.5;exitY=1;exitDx=0;exitDy=0;entryX=0.5;entryY=0;entryDx=0;entryDy=0;" parent="1" source="ED9poW3Hxn3ZgU86maUU-1" target="Ds21OxBnK4pfxZvP541U-5" edge="1">
          <mxGeometry relative="1" as="geometry">
            <mxPoint x="37" y="568" as="targetPoint" />
          </mxGeometry>
        </mxCell>
        <mxCell id="ED9poW3Hxn3ZgU86maUU-1" value="&lt;b&gt;medusa&lt;/b&gt;&lt;br&gt;&lt;font color=&quot;#ffccff&quot;&gt;面向非主线业务&lt;br&gt;（营销）&lt;br&gt;&lt;/font&gt;&lt;span style=&quot;color: rgb(255 , 204 , 255)&quot;&gt;借趣花营销指标&lt;/span&gt;&lt;b&gt;&lt;br&gt;&lt;/b&gt;" style="rounded=0;whiteSpace=wrap;html=1;fillColor=#fff2cc;strokeColor=#d6b656;" parent="1" vertex="1">
          <mxGeometry x="82" y="422.5" width="118" height="83" as="geometry" />
        </mxCell>
        <mxCell id="CSPdOCzLkxVM9AliIM8e-10" style="edgeStyle=orthogonalEdgeStyle;rounded=0;orthogonalLoop=1;jettySize=auto;html=1;exitX=0;exitY=0.75;exitDx=0;exitDy=0;dashed=1;" parent="1" source="ED9poW3Hxn3ZgU86maUU-2" edge="1">
          <mxGeometry relative="1" as="geometry">
            <mxPoint x="200" y="485" as="targetPoint" />
          </mxGeometry>
        </mxCell>
        <mxCell id="ED9poW3Hxn3ZgU86maUU-2" value="&lt;b&gt;feature&lt;/b&gt;&lt;br&gt;&lt;font color=&quot;#ffccff&quot;&gt;营销特征值数据&lt;br&gt;&lt;/font&gt;" style="rounded=0;whiteSpace=wrap;html=1;fillColor=#fff2cc;strokeColor=#d6b656;" parent="1" vertex="1">
          <mxGeometry x="294" y="416.5" width="121" height="95" as="geometry" />
        </mxCell>
        <mxCell id="ED9poW3Hxn3ZgU86maUU-4" style="edgeStyle=orthogonalEdgeStyle;rounded=0;orthogonalLoop=1;jettySize=auto;html=1;exitX=0.5;exitY=0;exitDx=0;exitDy=0;dashed=1;" parent="1" source="ED9poW3Hxn3ZgU86maUU-3" target="ED9poW3Hxn3ZgU86maUU-2" edge="1">
          <mxGeometry relative="1" as="geometry" />
        </mxCell>
        <mxCell id="ED9poW3Hxn3ZgU86maUU-35" value="营销特征值" style="text;html=1;align=center;verticalAlign=middle;resizable=0;points=[];labelBackgroundColor=#ffffff;" parent="ED9poW3Hxn3ZgU86maUU-4" vertex="1" connectable="0">
          <mxGeometry x="0.0058" y="9" relative="1" as="geometry">
            <mxPoint x="9" y="8" as="offset" />
          </mxGeometry>
        </mxCell>
        <mxCell id="ED9poW3Hxn3ZgU86maUU-33" style="edgeStyle=orthogonalEdgeStyle;rounded=0;orthogonalLoop=1;jettySize=auto;html=1;exitX=1;exitY=0.5;exitDx=0;exitDy=0;entryX=0.5;entryY=1;entryDx=0;entryDy=0;dashed=1;" parent="1" source="ED9poW3Hxn3ZgU86maUU-3" target="ED9poW3Hxn3ZgU86maUU-30" edge="1">
          <mxGeometry relative="1" as="geometry" />
        </mxCell>
        <mxCell id="ED9poW3Hxn3ZgU86maUU-34" value="画像数据" style="text;html=1;align=center;verticalAlign=middle;resizable=0;points=[];labelBackgroundColor=#ffffff;" parent="ED9poW3Hxn3ZgU86maUU-33" vertex="1" connectable="0">
          <mxGeometry x="0.0063" y="26" relative="1" as="geometry">
            <mxPoint x="26" y="-26" as="offset" />
          </mxGeometry>
        </mxCell>
        <mxCell id="ED9poW3Hxn3ZgU86maUU-3" value="&lt;b&gt;离线数据&lt;/b&gt;&lt;br&gt;&lt;font color=&quot;#ffccff&quot;&gt;用户特征值/画像数据&lt;/font&gt;" style="rounded=0;whiteSpace=wrap;html=1;" parent="1" vertex="1">
          <mxGeometry x="292" y="600" width="120" height="65" as="geometry" />
        </mxCell>
        <mxCell id="ED9poW3Hxn3ZgU86maUU-8" value="&lt;b&gt;借趣花业务营销&lt;/b&gt;" style="rounded=0;whiteSpace=wrap;html=1;fillColor=#CCFFE6;" parent="1" vertex="1">
          <mxGeometry x="384" y="156" width="120" height="60" as="geometry" />
        </mxCell>
        <mxCell id="Ds21OxBnK4pfxZvP541U-4" style="edgeStyle=orthogonalEdgeStyle;rounded=0;orthogonalLoop=1;jettySize=auto;html=1;exitX=0.5;exitY=1;exitDx=0;exitDy=0;entryX=0.5;entryY=0;entryDx=0;entryDy=0;" parent="1" source="ED9poW3Hxn3ZgU86maUU-9" target="ED9poW3Hxn3ZgU86maUU-30" edge="1">
          <mxGeometry relative="1" as="geometry">
            <mxPoint x="326.5" y="354" as="sourcePoint" />
          </mxGeometry>
        </mxCell>
        <mxCell id="CSPdOCzLkxVM9AliIM8e-2" style="edgeStyle=orthogonalEdgeStyle;rounded=0;orthogonalLoop=1;jettySize=auto;html=1;exitX=0.5;exitY=1;exitDx=0;exitDy=0;entryX=0.5;entryY=0;entryDx=0;entryDy=0;" parent="1" source="ED9poW3Hxn3ZgU86maUU-9" target="ED9poW3Hxn3ZgU86maUU-2" edge="1">
          <mxGeometry relative="1" as="geometry" />
        </mxCell>
        <mxCell id="CSPdOCzLkxVM9AliIM8e-13" style="edgeStyle=orthogonalEdgeStyle;rounded=0;orthogonalLoop=1;jettySize=auto;html=1;exitX=1;exitY=0.5;exitDx=0;exitDy=0;entryX=0;entryY=0.407;entryDx=0;entryDy=0;entryPerimeter=0;dashed=1;" parent="1" source="ED9poW3Hxn3ZgU86maUU-9" target="CSPdOCzLkxVM9AliIM8e-11" edge="1">
          <mxGeometry relative="1" as="geometry" />
        </mxCell>
        <mxCell id="ED9poW3Hxn3ZgU86maUU-9" value="&lt;b&gt;营销活动系统&lt;br&gt;&lt;font color=&quot;#ffccff&quot;&gt;统一（实验、&lt;/font&gt;&lt;/b&gt;&lt;b&gt;&lt;font color=&quot;#ffccff&quot;&gt;活动&lt;/font&gt;&lt;/b&gt;&lt;b&gt;&lt;font color=&quot;#ffccff&quot;&gt;）管理，规则决策，营销方式决策&lt;/font&gt;&lt;br&gt;&lt;/b&gt;" style="rounded=0;whiteSpace=wrap;html=1;" parent="1" vertex="1">
          <mxGeometry x="262" y="292" width="381" height="60" as="geometry" />
        </mxCell>
        <mxCell id="ED9poW3Hxn3ZgU86maUU-36" style="edgeStyle=orthogonalEdgeStyle;rounded=0;orthogonalLoop=1;jettySize=auto;html=1;exitX=1;exitY=0.5;exitDx=0;exitDy=0;entryX=0;entryY=0.5;entryDx=0;entryDy=0;" parent="1" source="ED9poW3Hxn3ZgU86maUU-18" target="ED9poW3Hxn3ZgU86maUU-31" edge="1">
          <mxGeometry relative="1" as="geometry" />
        </mxCell>
        <mxCell id="ED9poW3Hxn3ZgU86maUU-18" value="&lt;b&gt;贷前&lt;/b&gt;" style="rounded=0;whiteSpace=wrap;html=1;" parent="1" vertex="1">
          <mxGeometry x="-290.5" y="331" width="120" height="60" as="geometry" />
        </mxCell>
        <mxCell id="ED9poW3Hxn3ZgU86maUU-37" style="edgeStyle=orthogonalEdgeStyle;rounded=0;orthogonalLoop=1;jettySize=auto;html=1;exitX=1;exitY=0.5;exitDx=0;exitDy=0;entryX=0;entryY=0.5;entryDx=0;entryDy=0;" parent="1" source="ED9poW3Hxn3ZgU86maUU-19" target="ED9poW3Hxn3ZgU86maUU-31" edge="1">
          <mxGeometry relative="1" as="geometry">
            <mxPoint x="-79.33333333333326" y="468.16666666666674" as="targetPoint" />
          </mxGeometry>
        </mxCell>
        <mxCell id="ED9poW3Hxn3ZgU86maUU-19" value="&lt;b&gt;贷中&lt;/b&gt;" style="rounded=0;whiteSpace=wrap;html=1;" parent="1" vertex="1">
          <mxGeometry x="-290.5" y="433" width="120" height="60" as="geometry" />
        </mxCell>
        <mxCell id="ED9poW3Hxn3ZgU86maUU-38" style="edgeStyle=orthogonalEdgeStyle;rounded=0;orthogonalLoop=1;jettySize=auto;html=1;exitX=1;exitY=0.5;exitDx=0;exitDy=0;entryX=0;entryY=0.5;entryDx=0;entryDy=0;" parent="1" source="ED9poW3Hxn3ZgU86maUU-20" target="ED9poW3Hxn3ZgU86maUU-31" edge="1">
          <mxGeometry relative="1" as="geometry">
            <mxPoint x="-76" y="466.5" as="targetPoint" />
          </mxGeometry>
        </mxCell>
        <mxCell id="ED9poW3Hxn3ZgU86maUU-20" value="&lt;b&gt;贷后&lt;/b&gt;" style="rounded=0;whiteSpace=wrap;html=1;" parent="1" vertex="1">
          <mxGeometry x="-290.5" y="529" width="120" height="60" as="geometry" />
        </mxCell>
        <mxCell id="ED9poW3Hxn3ZgU86maUU-29" value="存储" style="text;html=1;align=center;verticalAlign=middle;resizable=0;points=[];autosize=1;" parent="1" vertex="1">
          <mxGeometry x="225" y="441" width="34" height="18" as="geometry" />
        </mxCell>
        <mxCell id="ED9poW3Hxn3ZgU86maUU-30" value="&lt;b&gt;征信&lt;/b&gt;" style="rounded=0;whiteSpace=wrap;html=1;" parent="1" vertex="1">
          <mxGeometry x="493" y="416.5" width="121" height="99" as="geometry" />
        </mxCell>
        <mxCell id="CSPdOCzLkxVM9AliIM8e-5" style="edgeStyle=orthogonalEdgeStyle;rounded=0;orthogonalLoop=1;jettySize=auto;html=1;exitX=0.5;exitY=1;exitDx=0;exitDy=0;entryX=0.5;entryY=0;entryDx=0;entryDy=0;" parent="1" source="ED9poW3Hxn3ZgU86maUU-31" target="Ds21OxBnK4pfxZvP541U-5" edge="1">
          <mxGeometry relative="1" as="geometry" />
        </mxCell>
        <mxCell id="ED9poW3Hxn3ZgU86maUU-31" value="&lt;b&gt;utag&lt;/b&gt;&lt;br&gt;&lt;font color=&quot;#ffccff&quot;&gt;面向主线业务&lt;br&gt;对性能/稳定性有较高要求&lt;/font&gt;" style="rounded=0;whiteSpace=wrap;html=1;fillColor=#fff2cc;strokeColor=#d6b656;" parent="1" vertex="1">
          <mxGeometry x="-70.5" y="422.5" width="121" height="81" as="geometry" />
        </mxCell>
        <mxCell id="ED9poW3Hxn3ZgU86maUU-43" value="对数据做加工、转换&lt;br&gt;统一存储在feature" style="text;html=1;" parent="1" vertex="1">
          <mxGeometry x="154" y="517" width="118" height="45" as="geometry" />
        </mxCell>
        <mxCell id="Ds21OxBnK4pfxZvP541U-1" value="" style="shape=flexArrow;endArrow=classic;html=1;width=41;endSize=7;" parent="1" edge="1">
          <mxGeometry width="50" height="50" relative="1" as="geometry">
            <mxPoint x="443" y="242" as="sourcePoint" />
            <mxPoint x="443" y="280" as="targetPoint" />
          </mxGeometry>
        </mxCell>
        <mxCell id="Ds21OxBnK4pfxZvP541U-5" value="&lt;b&gt;业务DB&lt;/b&gt;" style="rounded=0;whiteSpace=wrap;html=1;" parent="1" vertex="1">
          <mxGeometry y="613" width="121" height="58" as="geometry" />
        </mxCell>
        <mxCell id="CSPdOCzLkxVM9AliIM8e-3" style="edgeStyle=orthogonalEdgeStyle;rounded=0;orthogonalLoop=1;jettySize=auto;html=1;exitX=0.5;exitY=1;exitDx=0;exitDy=0;entryX=0.5;entryY=0;entryDx=0;entryDy=0;dashed=1;" parent="1" source="Ds21OxBnK4pfxZvP541U-12" target="ED9poW3Hxn3ZgU86maUU-31" edge="1">
          <mxGeometry relative="1" as="geometry" />
        </mxCell>
        <mxCell id="CSPdOCzLkxVM9AliIM8e-4" style="edgeStyle=orthogonalEdgeStyle;rounded=0;orthogonalLoop=1;jettySize=auto;html=1;exitX=0.5;exitY=1;exitDx=0;exitDy=0;entryX=0.5;entryY=0;entryDx=0;entryDy=0;dashed=1;" parent="1" source="Ds21OxBnK4pfxZvP541U-12" target="ED9poW3Hxn3ZgU86maUU-1" edge="1">
          <mxGeometry relative="1" as="geometry" />
        </mxCell>
        <mxCell id="Ds21OxBnK4pfxZvP541U-12" value="&lt;b&gt;业务消息&lt;br&gt;&lt;font color=&quot;#ffccff&quot;&gt;授信、激活、贷款、退款、还款&lt;/font&gt;&lt;br&gt;&lt;/b&gt;" style="rounded=0;whiteSpace=wrap;html=1;" parent="1" vertex="1">
          <mxGeometry x="6" y="271" width="121" height="58" as="geometry" />
        </mxCell>
        <mxCell id="CSPdOCzLkxVM9AliIM8e-7" value="&lt;b&gt;提额&lt;/b&gt;" style="rounded=0;whiteSpace=wrap;html=1;" parent="1" vertex="1">
          <mxGeometry x="730" y="221" width="120" height="60" as="geometry" />
        </mxCell>
        <mxCell id="CSPdOCzLkxVM9AliIM8e-8" value="&lt;b&gt;触达用户&lt;/b&gt;" style="rounded=0;whiteSpace=wrap;html=1;" parent="1" vertex="1">
          <mxGeometry x="730" y="315" width="120" height="60" as="geometry" />
        </mxCell>
        <mxCell id="CSPdOCzLkxVM9AliIM8e-9" value="&lt;b&gt;营销平台&lt;/b&gt;" style="rounded=0;whiteSpace=wrap;html=1;" parent="1" vertex="1">
          <mxGeometry x="734" y="409" width="120" height="60" as="geometry" />
        </mxCell>
        <mxCell id="CSPdOCzLkxVM9AliIM8e-18" style="edgeStyle=orthogonalEdgeStyle;rounded=0;orthogonalLoop=1;jettySize=auto;html=1;exitX=1;exitY=0.5;exitDx=0;exitDy=0;entryX=0;entryY=0.5;entryDx=0;entryDy=0;" parent="1" source="CSPdOCzLkxVM9AliIM8e-15" target="CSPdOCzLkxVM9AliIM8e-16" edge="1">
          <mxGeometry relative="1" as="geometry" />
        </mxCell>
        <mxCell id="CSPdOCzLkxVM9AliIM8e-19" value="发起&lt;br style=&quot;font-size: 5px&quot;&gt;活动匹配" style="text;html=1;align=center;verticalAlign=middle;resizable=0;points=[];labelBackgroundColor=#ffffff;fontSize=5;" parent="CSPdOCzLkxVM9AliIM8e-18" vertex="1" connectable="0">
          <mxGeometry x="0.3508" y="-1" relative="1" as="geometry">
            <mxPoint x="-12" y="-21" as="offset" />
          </mxGeometry>
        </mxCell>
        <mxCell id="CSPdOCzLkxVM9AliIM8e-24" style="edgeStyle=orthogonalEdgeStyle;rounded=0;orthogonalLoop=1;jettySize=auto;html=1;exitX=0.461;exitY=0.983;exitDx=0;exitDy=0;entryX=0.5;entryY=1;entryDx=0;entryDy=0;fontSize=5;exitPerimeter=0;" parent="1" source="CSPdOCzLkxVM9AliIM8e-15" target="CSPdOCzLkxVM9AliIM8e-17" edge="1">
          <mxGeometry relative="1" as="geometry">
            <Array as="points">
              <mxPoint x="-297" y="1050" />
              <mxPoint x="123" y="1050" />
            </Array>
          </mxGeometry>
        </mxCell>
        <mxCell id="CSPdOCzLkxVM9AliIM8e-25" value="按场景查询banner信息" style="text;html=1;align=center;verticalAlign=middle;resizable=0;points=[];labelBackgroundColor=#ffffff;fontSize=5;" parent="CSPdOCzLkxVM9AliIM8e-24" vertex="1" connectable="0">
          <mxGeometry x="-0.2108" relative="1" as="geometry">
            <mxPoint x="-64.66" y="-13" as="offset" />
          </mxGeometry>
        </mxCell>
        <mxCell id="CSPdOCzLkxVM9AliIM8e-28" style="edgeStyle=orthogonalEdgeStyle;rounded=0;orthogonalLoop=1;jettySize=auto;html=1;exitX=1;exitY=0.75;exitDx=0;exitDy=0;entryX=0;entryY=0.5;entryDx=0;entryDy=0;fontSize=5;" parent="1" source="CSPdOCzLkxVM9AliIM8e-15" target="CSPdOCzLkxVM9AliIM8e-27" edge="1">
          <mxGeometry relative="1" as="geometry" />
        </mxCell>
        <mxCell id="CSPdOCzLkxVM9AliIM8e-29" value="匹配banner&lt;br&gt;信息" style="text;html=1;align=center;verticalAlign=middle;resizable=0;points=[];labelBackgroundColor=#ffffff;fontSize=5;" parent="CSPdOCzLkxVM9AliIM8e-28" vertex="1" connectable="0">
          <mxGeometry x="-0.5493" y="-2" relative="1" as="geometry">
            <mxPoint x="-9.759999999999998" y="40" as="offset" />
          </mxGeometry>
        </mxCell>
        <mxCell id="CSPdOCzLkxVM9AliIM8e-15" value="&lt;b&gt;cashweb&lt;br&gt;banner接口&lt;br&gt;&lt;/b&gt;" style="rounded=0;whiteSpace=wrap;html=1;" parent="1" vertex="1">
          <mxGeometry x="-333" y="846" width="77" height="44" as="geometry" />
        </mxCell>
        <mxCell id="CSPdOCzLkxVM9AliIM8e-20" style="edgeStyle=orthogonalEdgeStyle;rounded=0;orthogonalLoop=1;jettySize=auto;html=1;exitX=1;exitY=0.5;exitDx=0;exitDy=0;entryX=0;entryY=0.5;entryDx=0;entryDy=0;fontSize=5;dashed=1;" parent="1" source="CSPdOCzLkxVM9AliIM8e-16" target="CSPdOCzLkxVM9AliIM8e-17" edge="1">
          <mxGeometry relative="1" as="geometry" />
        </mxCell>
        <mxCell id="CSPdOCzLkxVM9AliIM8e-21" value="存储活动匹配信息" style="text;html=1;align=center;verticalAlign=middle;resizable=0;points=[];labelBackgroundColor=#ffffff;fontSize=5;" parent="CSPdOCzLkxVM9AliIM8e-20" vertex="1" connectable="0">
          <mxGeometry x="-0.214" relative="1" as="geometry">
            <mxPoint x="9.2" y="-14" as="offset" />
          </mxGeometry>
        </mxCell>
        <mxCell id="CSPdOCzLkxVM9AliIM8e-23" value="qmq" style="text;html=1;align=center;verticalAlign=middle;resizable=0;points=[];labelBackgroundColor=#ffffff;fontSize=5;" parent="CSPdOCzLkxVM9AliIM8e-20" vertex="1" connectable="0">
          <mxGeometry x="-0.1529" relative="1" as="geometry">
            <mxPoint x="-1.4" y="14" as="offset" />
          </mxGeometry>
        </mxCell>
        <mxCell id="CSPdOCzLkxVM9AliIM8e-16" value="&lt;b&gt;hera&lt;/b&gt;" style="rounded=0;whiteSpace=wrap;html=1;" parent="1" vertex="1">
          <mxGeometry x="-107" y="846" width="77" height="44" as="geometry" />
        </mxCell>
        <mxCell id="CSPdOCzLkxVM9AliIM8e-17" value="&lt;b&gt;cashbase&lt;/b&gt;" style="rounded=0;whiteSpace=wrap;html=1;" parent="1" vertex="1">
          <mxGeometry x="84" y="846" width="77" height="44" as="geometry" />
        </mxCell>
        <mxCell id="CSPdOCzLkxVM9AliIM8e-30" style="edgeStyle=orthogonalEdgeStyle;rounded=0;orthogonalLoop=1;jettySize=auto;html=1;exitX=1;exitY=0.5;exitDx=0;exitDy=0;entryX=0.174;entryY=0.986;entryDx=0;entryDy=0;entryPerimeter=0;fontSize=5;dashed=1;" parent="1" source="CSPdOCzLkxVM9AliIM8e-27" target="CSPdOCzLkxVM9AliIM8e-17" edge="1">
          <mxGeometry relative="1" as="geometry" />
        </mxCell>
        <mxCell id="CSPdOCzLkxVM9AliIM8e-31" value="qmq" style="text;html=1;align=center;verticalAlign=middle;resizable=0;points=[];labelBackgroundColor=#ffffff;fontSize=5;" parent="CSPdOCzLkxVM9AliIM8e-30" vertex="1" connectable="0">
          <mxGeometry x="-0.1495" relative="1" as="geometry">
            <mxPoint as="offset" />
          </mxGeometry>
        </mxCell>
        <mxCell id="CSPdOCzLkxVM9AliIM8e-27" value="&lt;b&gt;draco&lt;/b&gt;" style="rounded=0;whiteSpace=wrap;html=1;" parent="1" vertex="1">
          <mxGeometry x="-107" y="906" width="77" height="44" as="geometry" />
        </mxCell>
        <mxCell id="CSPdOCzLkxVM9AliIM8e-32" value="目前cashbase会配置活动相关信息&lt;br style=&quot;font-size: 12px;&quot;&gt;后续需要把这类信息抽象出来" style="text;html=1;align=center;verticalAlign=middle;resizable=0;points=[];autosize=1;fontSize=12;fillColor=#dae8fc;strokeColor=#6c8ebf;" parent="1" vertex="1">
          <mxGeometry x="57" y="797" width="193" height="32" as="geometry" />
        </mxCell>
        <mxCell id="CSPdOCzLkxVM9AliIM8e-33" value="多个系统参与banner展示" style="text;html=1;align=center;verticalAlign=middle;resizable=0;points=[];autosize=1;fontSize=12;fillColor=#dae8fc;strokeColor=#6c8ebf;" parent="1" vertex="1">
          <mxGeometry x="-150" y="793" width="143" height="18" as="geometry" />
        </mxCell>
        <mxCell id="CSPdOCzLkxVM9AliIM8e-35" style="edgeStyle=orthogonalEdgeStyle;rounded=0;orthogonalLoop=1;jettySize=auto;html=1;exitX=1;exitY=0.5;exitDx=0;exitDy=0;entryX=0.173;entryY=1;entryDx=0;entryDy=0;entryPerimeter=0;dashed=1;fontSize=12;" parent="1" source="CSPdOCzLkxVM9AliIM8e-34" target="CSPdOCzLkxVM9AliIM8e-17" edge="1">
          <mxGeometry relative="1" as="geometry" />
        </mxCell>
        <mxCell id="CSPdOCzLkxVM9AliIM8e-36" value="qmq" style="text;html=1;align=center;verticalAlign=middle;resizable=0;points=[];labelBackgroundColor=#ffffff;fontSize=12;" parent="CSPdOCzLkxVM9AliIM8e-35" vertex="1" connectable="0">
          <mxGeometry x="-0.3255" y="2" relative="1" as="geometry">
            <mxPoint as="offset" />
          </mxGeometry>
        </mxCell>
        <mxCell id="CSPdOCzLkxVM9AliIM8e-34" value="&lt;b&gt;其他系统&lt;/b&gt;" style="rounded=0;whiteSpace=wrap;html=1;" parent="1" vertex="1">
          <mxGeometry x="-107" y="960" width="77" height="44" as="geometry" />
        </mxCell>
        <mxCell id="CSPdOCzLkxVM9AliIM8e-38" style="edgeStyle=orthogonalEdgeStyle;rounded=0;orthogonalLoop=1;jettySize=auto;html=1;exitX=1;exitY=0.5;exitDx=0;exitDy=0;entryX=0;entryY=0.5;entryDx=0;entryDy=0;" parent="1" source="CSPdOCzLkxVM9AliIM8e-44" target="CSPdOCzLkxVM9AliIM8e-48" edge="1">
          <mxGeometry relative="1" as="geometry" />
        </mxCell>
        <mxCell id="CSPdOCzLkxVM9AliIM8e-39" value="领取活动权益" style="text;html=1;align=center;verticalAlign=middle;resizable=0;points=[];labelBackgroundColor=#ffffff;fontSize=5;" parent="CSPdOCzLkxVM9AliIM8e-38" vertex="1" connectable="0">
          <mxGeometry x="0.3508" y="-1" relative="1" as="geometry">
            <mxPoint x="-39.480000000000004" y="-13" as="offset" />
          </mxGeometry>
        </mxCell>
        <mxCell id="CSPdOCzLkxVM9AliIM8e-44" value="&lt;b&gt;cashweb&lt;br&gt;&lt;/b&gt;" style="rounded=0;whiteSpace=wrap;html=1;" parent="1" vertex="1">
          <mxGeometry x="-325.5" y="1139" width="77" height="44" as="geometry" />
        </mxCell>
        <mxCell id="CSPdOCzLkxVM9AliIM8e-45" style="edgeStyle=orthogonalEdgeStyle;rounded=0;orthogonalLoop=1;jettySize=auto;html=1;exitX=1;exitY=0.5;exitDx=0;exitDy=0;entryX=0;entryY=0.5;entryDx=0;entryDy=0;fontSize=5;dashed=1;" parent="1" source="CSPdOCzLkxVM9AliIM8e-48" target="CSPdOCzLkxVM9AliIM8e-49" edge="1">
          <mxGeometry relative="1" as="geometry" />
        </mxCell>
        <mxCell id="CSPdOCzLkxVM9AliIM8e-46" value="隐藏活熊信息" style="text;html=1;align=center;verticalAlign=middle;resizable=0;points=[];labelBackgroundColor=#ffffff;fontSize=5;" parent="CSPdOCzLkxVM9AliIM8e-45" vertex="1" connectable="0">
          <mxGeometry x="-0.214" relative="1" as="geometry">
            <mxPoint x="9.2" y="-14" as="offset" />
          </mxGeometry>
        </mxCell>
        <mxCell id="CSPdOCzLkxVM9AliIM8e-47" value="qmq" style="text;html=1;align=center;verticalAlign=middle;resizable=0;points=[];labelBackgroundColor=#ffffff;fontSize=5;" parent="CSPdOCzLkxVM9AliIM8e-45" vertex="1" connectable="0">
          <mxGeometry x="-0.1529" relative="1" as="geometry">
            <mxPoint x="-1.4" y="14" as="offset" />
          </mxGeometry>
        </mxCell>
        <mxCell id="CSPdOCzLkxVM9AliIM8e-58" style="edgeStyle=orthogonalEdgeStyle;rounded=0;orthogonalLoop=1;jettySize=auto;html=1;exitX=0.25;exitY=1;exitDx=0;exitDy=0;dashed=1;fontSize=12;entryX=0.823;entryY=1.008;entryDx=0;entryDy=0;entryPerimeter=0;" parent="1" source="CSPdOCzLkxVM9AliIM8e-48" target="CSPdOCzLkxVM9AliIM8e-48" edge="1">
          <mxGeometry relative="1" as="geometry">
            <mxPoint x="-101.76190476190482" y="1322.857142857143" as="targetPoint" />
            <Array as="points">
              <mxPoint x="-109" y="1217" />
              <mxPoint x="-65" y="1217" />
            </Array>
          </mxGeometry>
        </mxCell>
        <mxCell id="CSPdOCzLkxVM9AliIM8e-48" value="&lt;b&gt;hera&lt;/b&gt;" style="rounded=0;whiteSpace=wrap;html=1;" parent="1" vertex="1">
          <mxGeometry x="-128.5" y="1139" width="77" height="44" as="geometry" />
        </mxCell>
        <mxCell id="CSPdOCzLkxVM9AliIM8e-49" value="&lt;b&gt;cashbase&lt;/b&gt;" style="rounded=0;whiteSpace=wrap;html=1;" parent="1" vertex="1">
          <mxGeometry x="91.5" y="1139" width="77" height="44" as="geometry" />
        </mxCell>
        <mxCell id="CSPdOCzLkxVM9AliIM8e-59" value="领取活动权益" style="text;html=1;align=center;verticalAlign=middle;resizable=0;points=[];labelBackgroundColor=#ffffff;fontSize=5;" parent="1" vertex="1" connectable="0">
          <mxGeometry x="0.3508" y="-1" relative="1" as="geometry">
            <mxPoint x="77.55" y="71" as="offset" />
          </mxGeometry>
        </mxCell>
        <mxCell id="CSPdOCzLkxVM9AliIM8e-60" value="领取后，取消cashbase展示" style="text;html=1;align=center;verticalAlign=middle;resizable=0;points=[];labelBackgroundColor=#ffffff;fontSize=5;" parent="1" vertex="1" connectable="0">
          <mxGeometry x="-98.99952380952358" y="1243.9999999999998" as="geometry">
            <mxPoint x="9.2" y="-14" as="offset" />
          </mxGeometry>
        </mxCell>
        <mxCell id="YHl6wFyylG55uKDNE_g4-23" style="edgeStyle=orthogonalEdgeStyle;rounded=0;orthogonalLoop=1;jettySize=auto;html=1;exitX=1;exitY=0.5;exitDx=0;exitDy=0;entryX=0;entryY=0.5;entryDx=0;entryDy=0;" edge="1" parent="1" source="YHl6wFyylG55uKDNE_g4-2" target="YHl6wFyylG55uKDNE_g4-3">
          <mxGeometry relative="1" as="geometry" />
        </mxCell>
        <mxCell id="YHl6wFyylG55uKDNE_g4-24" value="kafka" style="edgeLabel;html=1;align=center;verticalAlign=middle;resizable=0;points=[];" vertex="1" connectable="0" parent="YHl6wFyylG55uKDNE_g4-23">
          <mxGeometry x="-0.2533" y="1" relative="1" as="geometry">
            <mxPoint y="1" as="offset" />
          </mxGeometry>
        </mxCell>
        <mxCell id="YHl6wFyylG55uKDNE_g4-2" value="数据组离线job" style="rounded=1;whiteSpace=wrap;html=1;" vertex="1" parent="1">
          <mxGeometry x="-1652" y="1673" width="92" height="41" as="geometry" />
        </mxCell>
        <mxCell id="YHl6wFyylG55uKDNE_g4-25" style="edgeStyle=orthogonalEdgeStyle;rounded=0;orthogonalLoop=1;jettySize=auto;html=1;exitX=0.5;exitY=1;exitDx=0;exitDy=0;entryX=0.5;entryY=0;entryDx=0;entryDy=0;" edge="1" parent="1" source="YHl6wFyylG55uKDNE_g4-3" target="YHl6wFyylG55uKDNE_g4-6">
          <mxGeometry relative="1" as="geometry" />
        </mxCell>
        <mxCell id="YHl6wFyylG55uKDNE_g4-3" value="NYX" style="rounded=1;whiteSpace=wrap;html=1;" vertex="1" parent="1">
          <mxGeometry x="-1482" y="1673" width="92" height="41" as="geometry" />
        </mxCell>
        <mxCell id="YHl6wFyylG55uKDNE_g4-4" value="&lt;pre style=&quot;background-color: #ffffff ; color: #000000 ; font-family: &amp;#34;宋体&amp;#34; ; font-size: 11.3pt&quot;&gt;&lt;pre style=&quot;font-size: 11.3pt&quot;&gt;UserOperationListener&lt;/pre&gt;&lt;/pre&gt;" style="text;whiteSpace=wrap;html=1;" vertex="1" parent="1">
          <mxGeometry x="-1521.9985714285713" y="1626.0028571428572" width="212" height="58" as="geometry" />
        </mxCell>
        <mxCell id="YHl6wFyylG55uKDNE_g4-5" value="" style="shape=image;verticalLabelPosition=bottom;labelBackgroundColor=#ffffff;verticalAlign=top;aspect=fixed;imageAspect=0;image=data:image/png,iVBORw0KGgoAAAANSUhEUgAAAzwAAAEKCAYAAADXSlB3AAAgAElEQVR4Aey9sZJdyVK2/d0Td8EtHFwM4REQXADeicDmmIyBQwTWWEMoOA7GMRSyEJ6wGA+PG5g/nv7j0bxKZdWq3t3SqHensaOqsjLffDMr16qq3VL3//u///u/Xx77+Y//+I9f/u7v/u6X//3f//3lH/7hH375l3/5l08YdbzCRo+P82AwBhNsfCirOoz1o74c/ud//ueXv/qrv/rlP//zPx8+9JGh9/d///cPMvFsKwZYxocOXP7iL/7iAYcxeMzTiqFe2iX/jFd/4CbfxEqdxEEnxztcOOMDm8RDljzrWB7k0PxlTsw9etnXjraLC7zf/e537RpoKx728k8eKdeGNnOy85P5Svvsk6usFfKDnTodRnJUr+Pa6amfMSirbc3rVb52/sRG58///M9/+bM/+7PPPvBRBz91Hhtss7bkkzlUBtYOx3n8Zu66GHJejrVNv3WOcfKu8+lTnFwfZNRFlTGusqrHfM0lY/Tgob38GNd1R+8kBzWuHIOrz5Tb/8Mf/vCwvvLlncFzkdx9j4Bj33yJU8fKp3383js5m5xNDUwNTA3cVgP/75bEubn9/PPPD5scG6I4p5tb1QMDmZs8PhjzEVsdxtqnPvI8GOShJeXi0WqffoyPOXQYP8eFxzzpE1zw4emB00ND6pzkIWMB18NQHk7ow4GPfowvx8jk5YWn8jEW10Eb2y7fxHl64QHHdXj37t2ni5dxmTv9wcc13PmpudQ+21wP85fr32FgY67E6rh2eupnDMpqW/Oa+e/ytcuF2FUHnIwXvS5m7bM2sEU340yOOxz9WFtdPPrscuuc7ZWv5K2NbccfGQf+jx8/fvpSJdfMOK/0sOmeN30npjw+fPjwyad6JzmoutbzqiUG86IOMnw5Z588KHOtnrInyHXa2zbzydvkbWpgamBqYF0DT7rwsDGy4XlAIdF1vEo+enycd+xmywaaGz96OdZP6qPDZszBk4OChwVk6OW39upysEv+yNNOv3lAAY8xLfN+3PTxhcyY7Ounctae1hhTR5l6OTYPzKVN5kE728qzjtWreUCPfBG7saxsOzl4j7nwGA/r5mVCGfjypM1c7/ykXtpnv9PJPGf+tTM3WRP0yVdyXfFfycW3reuavMTo8uV6JY413OUL3Kz5Lidi6Zc44YcdPx3ABp3kuMOpuuJmPPrscuucbbcmzJEL89GtpTqVP3zg8sMPP3zKTdob55UeNplb+domJjJw0fe9pt5JDtTtWvxkbVYdf8KDf2ImdurZixAtY3iAY0zmQbw6Vj7tr3vH5GJyMTUwNTA18HVr4MkXnjxUcHDiJxVspFcLxyboZpkbt4cccPMgpg52YLuJpj5y9DwYYO9BWRs3eO06rvpCt9MDl82fuYwTff+ZjxiVL/piGmNyhA+fquNF4RTXePXv2uBTjIzPw0rGU/MnJgcd8yZP/aCTviqecaQ8+66rMrGsFeToJF91iId5xis/2CZX/dhmbpTREq8+8eM6M9flAPkKq9qjW2NC1n3AtL61cy0Ym4vMV/VX+Xb5qtx3eRMPP/apEcaV4w6n6q7iQV75IasfueR611yIkzmsOtg7Tz/rH7n4p3rYWEuVM+PEZCzHrLmUm+cOayfDz86WC8+PP/74wAff6sKHWMmv+MwZE33rz3rEl7rTflmrk5PJydTA1MDUwNetgSdfeFggDwFscmySJ5sbNuhikwcIDylurmAxLzZ2+mSu6rMZeyD0oODmC6b2bsRg50e/Oa+NxYjfVYzo7viCUTkbI3YeGlY6qzx0uGIYX3ImTuV+e4u+MdKSg7yMITOniYXcuMGsBzMxwVtdRNQBp2Izdg1TT/60rhvzuXbqyCl5OodMXHCqr8TUT+YPnMQQy1xpozzxOg6pV/tZ38yd5mvHd7Uumfcub8ZtnRln2lWOO5yqa+wVD/kut9rRys08Wwc7nbr+mWNiTAy4MQ/eqR428snWZz8x5Vn9Ij/NgRi1xY9rVucYEw+54J/T0ZoX/DKX7wtw5K8tsWHT7QldjB2HkX3dA8Dkd/I7NTA18Fpq4KYLz2+RHA8ubJS3+geDn8xwwLsVg82ejZ32Voyn2D1HHp7if2zn5Tg18LJqwHdGXq52fS8ztPl/h7ovEsBB77E1wfuTL1oeazf6L6v2Zr1mvaYGpga+lxr4ri88fGuYG/MtG2tNNJt298/Rqt5qDIfdt6Iru6fIv0YensJnbL/eC2x3OM2fLMwafL01mNx+/dzyTvvW79FZ16+/rpPjyfHUwNTA91oD3/WF53tN2vCaB3pqYGpgamBqYGpgamBqYGpgauBl1MBceJr/7DzF+zKKd9Zp1mlqYGpgamBqYGpgamBqYGrgqgbmwjMXnvl39FMDUwNTA1MDUwNTA1MDUwNTA3dbA3PhmeK+2+K+uu3P/HwjNDUwNTA1MDUwNTA1MDVw/zUwF5658MyFZ2pgamBqYGpgamBqYGpgamBq4G5rYC48U9x3W9zzjc39f2Mza3y9xvxmSv4WDrk6/S2A6OWv8Neu/mY15as/F+A8v20z/05Pt27dr/xHxt/yyd/WCS9+Y2HK6FdunY+RXdfL5GhyNDUwNXCPNXB04WEzu9qsvsfk8Cuk3Yiz33F1Y2bT5IBQ/+BmZ/O1ZHKR+8rPb7Uu5Oi56qH+mnDWyYNMFz/6+cdLd78mHF0ORhWnq4X0m7/+2bWQU7ZdDsDxDzS6bllPHuDq4QyO2GJTYxSHFh31Up59406uGRO6+Mt5+2Kv5pM3/Yq74pg56OJ7TJ7NFbn0jwxn/PbhZ1y02Dlnu9Mxj3Wd5Wrsp3qufXKiL47zroEcjVe/1Z5x5Zj5xr6LXfyuxZ6LRb1sVN/WgxzhnjrGlj5qztFHRvzEQZv69JGBTQ7qHOMff/zx4blBb1cTne3I5nA3NTA1MDVw/zVwdOGhENhs3NxeSmHA+bEbPbHlYeG3iNWDzQn332JdqIN6wLolT8SZ3yITr7jdwcW85CEKvdUhyYNovYBkXYiJzBi0q/WOPC9b6mcLDge4XLusJ/jCp2KjL4edH3TUS7/Z7+zxl3nLXKet/at51471y1ix7zhmDjp++qW9mjdXXY2IU+N1nZMr/awNdcyvPN68efPASWzkyKyFU73V2ovrfK4Tc8arHq0+aVNuHzkH/48fPz48H15CiJfLgeNsMzfkoNao2KcteIm5s8NfcqGfawOX5JP8WDf+iCntriZ2/mfu/g87s8azxlMDr7sGji88WSgeDNyg3NTYkDh8cghyw0LGBs5YvZV9+qj9auPBWL3cMPGJr+THPDI5godtPRj89NNPn77VZMNlnL7QJz7t9V9b9Iw77fEvr5RjbwwcVPis8gVG9VfHqzg5EHiwkgd+sceGQxy85dbFIXauM5hgrNZJOQdF/ILBR9/Mg4e/Gotj8oGOB82UmytltGCRR2LRD3L66htLXc9ODl71nf7ErhzlkbkHP23hI8edH3TUS/vsr+zTFn+ucdrav5rHB3G+e/fuIceuP/bpR7zMwYpf6u7yTO7gx5rhK32DYa2hIyZtcsCG2kCWOilXn38Ollj0kWl/qgc275S69vrXN3nNtcFfXXN87nIEFjZ//OMfH7Devn37KQbzp1/alNH3skHf90Rt4cW8FzQ4+c6ruo7RT7/ZhzNx02a/W2fyjz/safOf7HU1kX6m/7oPPbP+s/5TA6+zBm668OQGnBuTmyOth47cOO2v7HdFyCbmpo/PPDgkHpsfBxF00GcOXPvIPagg11a+cE+MTl/MFd9qo29wORBkfowJTPOjnn7QUQ9bDxgr/8grhxqn2Pjy4FSxK4ZxoMcBposjuWLvOplf44AjfTDky2GHg4uHIzky75qgL1/kznFIxIcy5az1hw8fPltz40An+9W281NlaZN45huZ3MlH5iRtq/7KD3z5pG3t55rmHLnzII0/+6lj/2QeHfTh4zo6rhwzByt++r6aV2/VnthnLhLHOiU2OfMTEXPFPLWGve+RU73V2uufeTC5ROLPnMKly+eqRsTLFizXK/vqKJOj7yLnd6028lUXf/pUZn59xm2J159GgccHGS246sELPfLBHLhy18e0r/MwM+s+6z41MDWwq4EnX3gSnI0nN0o2JTc8DwVsUsjqBp44V303Tfxlv9qlf/vqw8F+xUmuYGKrDocd5quvHKPrAWknR898yU99x+QLHXSZS87qdq16Nc6qC74Ht+SD3i4OeaO3Wk85gGMfXWwYZy6Nk7iZJ8d5oHMNqhxdbD0cMfaT64hf18Tcopd97WgzL8o7387Zimc8xJ48Uq4NbeZw5wd8Pmlb+yv7XE/8eYjMFh35pJz+au2wSU4dx8zBip9xXM2rt2rT10onc1F14E+s4uSFGRl1y6Hb5+ZUz7WvebUus+bg5zOWtSFXfObzoby24KQ/vizhn3+lzL4x6w8+1V5dWvSqvxwzv9IBmzzzHtDG3CJjnrx4CVKXVllyoW++xJv213fh5GJyMTUwNfDaa+CmCw9JY+Nxw2FTREbr5q2OG56HAjYy56o98tUH+/rPJfAHXl4I0h6O+s8+MsbJyQM5mCkHD5n6HHZyk05/9sHPPKzk+nEDlyv68jU+c2WbuuLXtosTHeIRh9afGCFP3qs4Oj34gr1ap8wvesTlgbEbqw8H8y9+PeiBBW9adPyYX+TiiWX+zLM2tpUfcvCqb/VtE8885T/7ArerV9fqyg/45lqftV3xzPXMfrVnvJvv1jgPmx3HXIsVP3lczau3ak/sXZvuWXYNkzMybFynrI9TvdXaG0diIpOHPtWjPYkx9cHgk7JVn5zgGz4rnSoXnxzluyX7zGlH33zKizF+0cE3z/Sf/vSnBxk/+d3xQh/bbj31Oe2v78bJxeRiamBq4LXVwM0XHhOVmzQbVh6Y3bDRzUOBtrRpn/Lss4mB68boGH/ZTxv66T/7cuGfqiBHN3GchxtztPhn05VD9ZXjmgfnqpyxB8Xkh77jk/yIX1vjyDjBywN34nf8cj3Fr3rkBL7m0Bw5Rj/74DDOn/B086452HlwyksaWK4PrRxpjV+5+RYXnRqL9p0cvMdceIyJOLncwUMZ+PqiJUY+9Hd+Ui/ts7+yT1vWqFtbcXbziaM+MtedlrFztOaeHKz4qX81r96qNcfyUQ/fxEzLJy/cqaMcHq4b/FlH7Omn/akeNvns6dM2MZGZB/zWfDpHq/2uxZ7nRu7mARvyVZ9F9OEDfv2iyWfR/KY9+MqTDzLm9Je/ZABfYNCqg2/lcMgLT/6zV7mARwzgpN/pz6FuamBqYGpgaoAauOnCw0bkpsbG5ObJZkXfTSf12LQ8PKQ87VdFCR64+sSPmzc24PGhjx8Ppekn++IlhjKwk6ucsPcnIcpWbXJAB1s+yMHAh/6Qo4PMy496xqs9es6hv/KvXB8ZJ/nOQxc+jAvMXL9VHFUPDDjqT97o6du55I1NjsUxH/IyHtrKSVl32EHXmhMDn3CSo7yQq7PKcedbG1twxEYmlmuLDJ2aZ+tCG2tYXFtsk6vybDue5DnzCcfkkPb0V/O1frRL/eqr5rjjJw7t1XzqrvpXHLCDc65Lx9P6qetIHphDzudEb5U7Y0hMZXCkXuuaPyZH4LLW5MTnhD7Y5sE+Y/KAP+zwwwVDPrboa4NOh6suLbr4pK9v7KhJPnwpYw7RSUw5JK/Ervp1bsZz2JkamBqYGpgauOnC48bNRuyBlmJiI8tDFJtmbopuaCv7XUGCrT9wE9uDivNurPhGRpv6+EHWHXawlV/O19h2XM2FfDInGUfKsYEjNvjNnybV+MzpFQfma5zK5MY3ox6Guhg7vlXP/IKd+rlOxsC8vOmj45jWHMAvddXh8FMvA/jvcoKuNae9a1v1029eDLSj7XznPH1wKjbjrCX1XIMaK37gkPNySp7OI0seO3v14KR9ttYk8/a1oWVNaizI9ema0SZuclQ3541PrLrGyeG0v+MgRtXJtYOn9WP9Ggd1xBw6p3rWXsZtHx6JKb/qVzk+T3MEZ+OixRe4yPn/SbSMxXYOPvi5uvCAKX7Np/HRMocP/DG2vrDNeXTw6yWKvs9DV3vogy2ecWDn+imbdg49UwNTA1MDr7MGbrrwvMZiyUPDa4z/a8TMwYpDDQeTW/E5lHHQob0VY+xe58vvNax7XhyIl+eES0NeRLKflyEvPF42Uo8+FxV0vPiBj72Xn8wvMi88KdeG96t9/YhDDFy68iKGLmOeffU7fL7QmXfDPN+15mY8NTE18Ppq4Lu58LBZuXHV1s3wtyhQN9X89lBZ5ck4v6n+Lfi+NJ/1QPZY/tRGd9B5LM7ov76X36x5v+Z5sfCyUXPFZcQLSZ37XsZcdLjwfC98hkdfb5OXycvUwNTAt6iB7+bC8y2CHR/zUE0NTA1MDUwNTA1MDUwNTA1MDbyuGpgLT/wa4yn+11X8s96z3lMDUwNTA1MDUwNTA1MD918Dc+GZC8/8k4+pgamBqYGpgamBqYGpgamBqYG7rYG58Exx321xzzc29/+NzazxrPHUwNTA1MDUwNTA1MBVDcyFZy48c+GZGpgamBqYGpgamBqYGpgamBq42xqYC88U990W99Vtf+bnG6F7r4H8jWvEym9W6367JLL8rWv1t7Ax7n5bJvL8DZY1n8yf/vbK1W9cBCN/EyNjPvhCbt/4Oj7+tjn0uzgq7xnPu2FqYGpgauC+auDowsOG0m0i33sxsLG5GWa/4+2vmmZDZHN8zj9Y9zXyx69c5e9p5EGgi+u5ZZmnp2ITA3Xl38kgTx7GVocS5M5dHV7Qq3+osFtbcPRbD351LvVq7uFffy05seXfKUn+5i857dYVvZM/NomP5EnfnOETnO5vq5ir1XyH0eWgvitOctBxhreczFViYePz7byteTQPlVOXh4zPOq/riZ11Snuqh90qRmNgvsabtbGyrzaZI+z9A57m5qolJnyRM/PXteiAJccff/zxC31j02ddF3DFoa31hB0YyFd1KTdx0K3rja1/QBU8eWFjX47T3tchZ9Zz1nNqYGqAGji68KC42oy+50K6dTNzA2dzfo742FDrBvwcuPB87GHmqX494HUHk8diZ02B58Ft5QOdPCDhLzGqf+bQzwNNXVvm9Iu9vrHt8Dq5emBVfnn4RA/7ipGcPBB2+UXv9MKTPmpMVzhX8xlH+kHe1fpJDszhLn50EgvfubYVI+cqL/JbLzPg+Zyaszdv3nzmAznPHOsA5qke3MCv+ZKz81f1it5jcgRHMP1wKaHeHdsaN/jkZsczOa/61NDpu8nnWi62//7v//7ZpUtOxMRHrvYrlxq7uLSuPZgr+4o34zk0TQ1MDUwNvNwaOL7w5CK7ybuBuGGwcbFxstExx8bqwYKxeiv79FH71SY3aHTZuOSDz9zs6LuxyRE87NiY+Qb+48ePD9x/+umnTwcC+DNOX6cbOX7gw8ZKPhIjuZoTuGhj7jjYmIe0QU951xqT9nlIXOVROQc8/Ouj+lWPP+hHbOhmDJl3DxVwBEdsdGoemddnFxMxkEM+6KpTcZTr08MpesgyN5mXtFvJ8Zu+04Y+ccHPukdWsTqMyint0wd6t1x4wEjb7Ce+/at51+LDhw+f/fQKe3Pg84XsJAf6RncVPzrgkkP08NXVTMfBukU/+/oVm/VLHeo8D+7khjEf/Ih1pQd+t/bpn/ldvap7mqP/+q//elgf4gEbrtjaTzxliW2fZ7x+yNN///d/P6xV5qHq5Rgf+uxa5l3P7K/WucPoZK5R5/+p2J2/kb3cA9Gs3azd1MD91sBNFx42CTcPNkU2P1o2Kza4PDBweHHO/sp+V2j4S595KEo8DiT+czT0mQPXPlzynxhp66YI98To9MVc8cWew37mgRzhA1v7qbfzI0f8JbeV/4wFHXjoc5VHbcwxdp1fL4bige3Fhr5rjH36oq+N2OYR3xz0ODR6QEoeYskn57QlL+jlBz1stGMu85d5STtzIT/nwEvfym31k7h1XTuM5IR+1rbYtOjdeuExJrhd4VzNg2EezK88Gec6Iz/Jgfa7+NXZtcZZ1y5tMt8pp+/6iMNPROr7wnWmPdVL7OrTMb7BFB95x/WxOUIfbLhmX78pQ893uPNXrTlLPXjzTOMz5cTmM27r+wMcagv97JsP/kkaz4Z22SLngue8OGBh7xc04Caf6X/+zpx8TD6mBqYG7rUGnnzhycSwybDhsIEiZ3Nhs6GfG7cbWNo+pu8hA3/Zrxjp3776cLBfcZIrmNiqwybOfPWVY3Tz0Of4559/fpCbE7EZk7M8WImXHJWdtHDmkz6qXWLbl5tjuKedcvVWvLFBJznYl5PYYpozMKkj5/PwlHHJC5m6yvRhbsXLtcVGn2mXtinvfOe88RqPvnNdO4zkVGNPfPSe68LDITMPjPThhj/81PnMU+Yb3TzYEnPqgldrpMuBce7iV2fXmvuuHrTLfCuzrWsIDnyRg+3znzLivdIDH5uacw/7zlszXb3K8TRH6qXP1aWBGHg/cTHgQzydvVh1jeVmW+tCuS080HGcuUVGruCADjliDB/80qKvLPvYkkNs6bsu4OATGz76nXYOd1MDUwNTA6+jBm668FAcbBpufrm55EaIDpsP+mw4HPzYrFb2u6Jz49MnLX7dlOWQGOk/+3BinJzYNOEOTsrBQ6Z+Hu7SV/bBzzxgz9gLT8ZAH2zsM0btd/Glz9rXJz+RyQN3+pAHuhk/WCu/nZ74zombsWX+1cMvvuoYGfp8mPOQmXL6ftATS5m61p/5ePfu3ac6VIaPtKu2zsnJcW2tK+TWUP1nXx2GuuR8lXcxb73wJC7+dji7eXFyjfPQXmsf3thYI4y7HCBX18O+sse01pLr3tlmvuu8aygONcIHzmnHGN1TPfzs4nZe3tZm1qtcXQN0lO1aeJ+8t8SAwyk2NuLzrmHtsjbsE7v48OdSpR05RMY7jxY99PnnxLQnFzD8ait/cwg+vrjwgM2871c5Tfvr+3RyMbmYGpgauMcauPnCYzLYZDzM5AbDPJuVGzgbDnpuSp29stp6qBDLMf6yX+3Sf/blwj9XQY5d4jgvV1o2SDZMOVRfOa55cOyFh3Hqd338wC15dXormetCjB52xDIGx10ecy59VLl+yBm4eZAwBuwz/44zD908MnDrTxvyItVhyTcx5U0urMPkrg3tSg4en9TNfsaLHF3y4fOBrOogIw8e2PC9OvCTi91FRS4dz7TNvjbZ7ubrGmOXMRFL1gDzFa/jp/9d/OpctR1HbPDb1bp41kjVgZPPPxhi4SdtdnraaK/PbJkDE5m4Wa/qPjZHxJPPjHkQD5/6RUY/c+ClJdtcY+3hBTbcxaZl/b1sMOadhIw+cvr4y9woR0c+5pcWH+jXvvr4gCPzyCoHOTM3n8nB1MDUwNTA/dfATRceNho2DAokNyE2rdwIU48Nx4NmytN+VXBu/vp0A6fFBjw+9PHjoTD9ZF88NnAxlDFOrnLCPr/JVt61xOShVVzzQgz21UNWfSIzXnzzqfF1vlOGDTGKIxfHmUfnzAc4nd/3798/8FePGDzQg1tjkzetfsGmn2PwtCUX5FofNSYxkcObQyE2qUe/+hTXywU6cMixeUgf4iLr5M6DlfOub9YNMeW4+tOmix3+1rY+u7byrD6ucFbz4uS64R+u5tAcJ3/4uLboV34Zwy7+1Nv1xUiedZ3rOshLnsaKnv18XxADmM5d6YmP3Yq7mM6bS3Or3Pgyx851Lbhv37799Jxgjwzu+PALEW2Jy3jQQ9852rQBw+cvcau+Fx51aMk1OeUnOPSNJzHBkY82tOjILfupv+KQ8unf/yFn1njWeGpgaoAauOnCw4bDJsxmlYcANiwPDICzIbFZ0WeT9MKzst8VJdj6Azex2fDcPJMPvhnTpj5+kOVBQgz8yC/na2w7rswlXzb0PFTAJWMRS77MZR7lpg3Y2uxa9PJwXXllHvWR2MrSrzL1yJUXHvOGPrnzW1Zsav7z0GQMGT995dnKWVmH41z1ibyuOzJiMUbaU9/6scUOn47F3q0B/tImc5ic4EisYKW8YuMTvNSpPjocdMRivrtYreRyNm8VP2v5ip9Y1lfm8jF9ccxDPsviVJ65DrXOa92gi+xUbxV3ro2Y8qOtfpEZ20mO0DH/xOvFA1zm8icp+nXO5xZ/ztGC4/ss+/Iy59maW3wiz1qj7zz4+PUSxVg+O3zX1zUVP3nv+mD7HtvpzdwcnKYGpgamBl5mDdx04XmNi90dRl5jHp4zZnJ6cmjb+XwOjB3+zL3MF9us25cXB3LC85IXkewzh44XDC9zqWPfSxQ26GPHpYExdpn/vGilXBuwsM0LDTL/CbCXF+bVTRwvZvwfIvyj58VKvl0rb7Hyn9opm3ae/6mBqYGpgfuoge/mwrPboNyIf4uic9N3g4eDsm4TdXP+Lbi+NJ+rA8xpHNTMb1kbpzxH7z5elq9lHfPC4wUiY8+f6qT8Jfd5p/OTeNqXHMdwn3fN1MDUwNRAXwPfzYVnFqhfoMnL5GVqYGpgamBqYGpgamBqYGpgauD2GpgLz/yWnvlGc2pgamBqYGpgamBqYGpgamBq4G5rYC48U9x3W9zzTcjt34RM7iZ3UwNTA1MDUwNTA1MD91IDc+GZC89ceKYGpgamBqYGpgamBqYGpgamBu62BubCM8V9t8V9L99KTBzzDdvUwNTA1MDnNcAv15hfWvN5TqZGJh9TA+samAvPXHjmwjM1MDXwgmogf83z6W+MRC//to129dfCK6+/stlN1Hl+Q2X+5krns139FkYxPKxmPNjnQVbd7jdi5h9TJY4V5+S06uunYsCt+5tU4mSMYHS/1U5d5ro4Upa/5fNEH9vKWX/P2db8ukanvynzSq/7zX/I/Nt9XSyZ+zrPHH+bCb917rnH+Mg1rP36nMhNOessT/r+TankiZx6x6biM2Ze/VWu04+6064Pxyi012QAACAASURBVJOb+8vN0YWHl5sP50sqAh5wN4PsdzG44fGyuHrRdvYpe6p9YmVfjsaUc/TTr7q+SKvu1fgqX9WfeHDwjxIqowWPD/3VC1l99OpLP2NTD5x8+Wde6lzq1ZxglwcN8NmU8g8RJn/9Jyc3sYqNLvgnzw8+kmfdyPAHz6pjrlbz5h0u6lSeHceTHHSc4Scnc1Wx5JExVh1tbeua5nqf6OizroXPijVwquea1/UQx/nMPzzhjUy/1Z5x5aiN9l3s5qBriYnnknXp/CmzLvRX19fY0kddF7CQET9x0KY+fXODHtzyD6LCERn50Q4+fJB5ccs+OFc5IZYTHbjs8pS1DZ7rCx/6XbzGYYsenB3TZjyMO53Up38Sd7VxbJ279rvcpJ+6ric8scn3qRxsrU9yoIwWv5lvZPCUsy06/B2lHJ+sQ/rKfvogvpyr/cxNnYMD9saVuHLt2nzOxMg2/eA/OeZ6dP2sM+Z3655+pn9/F4DXtqZHFx6Skg/OS0nSrQ8zL9/dN0tX8T/VfofPS291iPiafjtO1V++SFOfFzIvddZD+a6emEM/X8TVF3O5EeKbvKSP9NXJnXcTSh3ynBs0czmPbXJCHz7EKq4t+PUA61y21UeNCX+7b5uv5vGljxpLx/EkB/LfxY9OYqWuMeI/dcS1Ja95CEg7dcDY1YT5efPmzcPaaYccmbk91cs4xMrW+eTNPDxr/vVJmxj2tTFuD0n1oKe8Pj/462pT/JMWDnxOdPGXXOjn2iQGMXvhSXn29U38t1x45HPKH9+7emQe3qxtjbOOq8+MIWPEX77bT9aMNa34ibnqVw6r+uvqjbWqMTr2PXeaG2J0bcTgWbRfW+KFEzbki/isDeaQr2I+lcPdL+2Mf5fj3RrAEU7gyBX9Ky7kGB7a4L/GLUbGjT+eM/PmnC2Xwrqv7WLTx7Rz2bmHGji+8GSwvgR8qHxgeKh44fGyYI4HD5mbgnor+/RR+9XGF6t6+dLEJ76SH/PI5AgetrxUeAHwV7rB/Omnnz69MODPOH3ly1Df2eYLZ2fvXxHnj93V/IAHT/mn//SV/erXeMDhQ4x8wPQAZuzYgkWLL1rzZd4zv/SrP8b4Ya7yApNPzu3yiB415AEUvOSKr3xp628lBy99q29LXcDPekVesTqMyintxaYV35rLueyvfJgH/NlPO/tX88REnB8+fPgifx3HkxzoG91V/OgQO/Ghl3ljTt88E+qIqy280Ut54lSu6qVcfQ4TiUUfmTV1qncVs76pZfi7/vgjTjnS4nO3tjxb2NGCxT9vMQbnEi9l9Fkb+ND3vVJb8fP94Lup6joGL/1mH39wpbX/pz/96dP7ToxVC2fev6t51gt8cpfxJod8f5Fzc5Y69DNHjK0BeDMWx3jrWJ2ufpnLDxyyHpzDpwdtZGDhDw7kIvOQ67mKSdyT1nhWWOYXjtSEenCDJ/bpp8aSc13/Vv137959uizDES4d/lNkxLrDNTedj5ofsHb/NI01RscLj2uPD9co68C+/LBFVy701cnWZ7zqazft58/s5OM+8nHThYeHxAeMB9JNzYcrH858Mdtf2e+KCn/pEywf7MTjxclG6IuGOXCxpY/cgw1ybX2ZgJkYnb6YK74n9vozJ9h44Mm+esa+8ok8/WpHPHx42dEqB88+cuxp9WO+1HGDRseXZfrDHhux5CkOLR/l4LK5g6HMVhvXBnn6wod8tKGVa12f6jtt6Osnceu6dxjJCf2syfQBfsc3deh3PowJbvizRqot46t5MPCBLpwyTx3HkxzIYxe/OraZZ2SMfQ7UyfYqLjG6HJs/4nO9+JZTXesQDr4XTvWuYjZ/HMrwhw+4wsV1MM6TGNU1XtcPXPvqKJPjLr/a2GojX+X4qH7Mbx6m6BOvX7qAxwcZbeL5zPBO8b3ifLbkCz6uF/nKvvGmTe2DUfmnjmsAFrxqTIx3HOGDj4wx8c1VrgX66Sdzbszg0ccevMzlSdzJYdUH07XodPTDQZz3dnLOPjyxJ5d5eeswU5b6ua7qgMvamcP0aR8d+7Y+5+I8ttXfrm7Ijf66tnLo4pOXeXZsTMiV0daaQAYu+tQoPFhP3nUddy9UiTn9+zjUzzqu1/HJF55MLg9lfZn7sPFC8yKCjAczbR/T9yWEv+xXDHzo3776yO1XnOQKJrbqrA7p6fvEXt/y0w9jPvmSxHeO01f206/42PLJdQHf/OtP/+jaZ04c+sh50daDITL0am7g46aHP33K2bw6tkWOv9yEM7ZdPrQVixYZn5RlH1/MZ6wZ5wojOSXXxKYP/sn6dTzlRMz4czPLjdXYuvn0i57ri65rs+J4kgNj3cWvjm3NB5yyPtWzzTwrq+1JTYiTP+EyDxzOa11f6RlzrgV9c575yxitt4wBHrvLrLrgpD/qgZ8Sp8w+fsDVH3yqvbq06Omna5lf6YDtM6StuaWGmScv+RMbsbRVR05eLsBx7+jeM/gjLvH0X1v4XelUmzrGP/l+//59+yzKPVtq259sPca/z6v5wTd8zBPtSdw1hm6MLz7dHDLrhlg4LBtH5aZ9rr2yXYu+7zaw/WCzWvPqG47G8BwH+owZXyv+uzWoHI2HZyFrJPvmlri5sFgH2BpXhyu/zIMxJD59ny1tpl0fkic395Obmy48FAAPoQ8RDxUyWjd7dXx4c9NyrtojX33yhZh2PPi8hOWQ9nDUf/aRMU5OvFzgDk7KwUOmfh4S01f2T+zTn7ZyhJ8x2u4OhNqn38Sv62L82GFDTPltLHK5JA5y8l0PhshSjh524IIvHpj0/TC+Wje58y25hx5l+BDLVt6OaZFV3zlf84GfPOyuMDLfuzoEP5+L9J39jmfi4m93KN7Ni2M90eam13Gsa9rxk7/43XqqY1vXj/GuvndxrTCV08Kb+HK9kOHXtc9YT/WuYk7M5KHP5HgSY+qDwSdlqz7PCfHCZ6VT5eKTo6yZ7DOnHX3zKS/G+EUH3zwDHQdi5yAnVrb1PVLH+JJT8kkM+9YBY3x6wPY5SGw5Ze48bIpXW/zv6hgsciDfrs33hDVKzsBNff2Y88rlMWP8VL/6+v3vf/+Js+uaOVfP1vUmfyd7JTyxwT45mH/mK1bnn3x4OcDmaq0ekx/X1T3SWM3Hbg1YO+Jj7Vc+mQfjaj7rs9YENcwlvNYX2PJM/OfMT+JO/9fzzeTi+8vFzRceF5MHzwMwD22+tPJh46XlgVVb2rRPefbdKHxwHeMv+2lDP/1nXy75gkwc5+EGDi1x8ZKQQ/WV4xN7/YmXY2TwTcyTfvoVjxzVdUl89NiY+NYyfZqvxIFDrlf1lxcc5jxQuEHQVh9wq7HpG7n+wbZ+kkParuTgpd+0oZ/5YIwu621ddzrI4O7BA9/0u3jAz+cC2+7T8SSPXnKy39nv5jsOGXetEfArXsdPHrv41bEF17VE1nFTl9YaQC/l+CSvtHxyvdRLefolXmoKe/q36GGzWnP8JyZj84nfWo/O0cp912LP8yR384CNz7RYjNGHD7LuuQTL/KY9+MqTDzLm9Mf7Azt84Euf6ij/4x//+NnBPd8Nte+zlX7pi4WPOrcbw6uLRZvEhXfGwdzukMg8a8AXJeRCzGwzrym3n/6R4R8eVa4vWuZ3MYndtfCBM366+ZSlH/zps3LTxvw5vmqpS54L1zRjTH/goMuzTq6x4YN+6u3W6opLncef7+A6xzhzU+drfsx5rfU6zjXJOvA5r7jpN3NPv2Iz9pKfdtPv9+XJy/3k5aYLDw9gvvB8CHm46PvSSj1fUj6onf2qsHxJaONDTIsNfvjQz5dT+s++eDz4YihjnFzlhP3pS+LEXn/mK3ln3/jUk0/Xpl/xiYdP2pNH8wUO48yFPpEnDnLWz4Nl+tPGfDLOD/7SJ7hsVGCknjiuNWN0yH0egJjPsTzTh7jVt3JbsNKOGMHO9SauHFd/2nTxg5/5129tK8/qgzzsNt7VvDiZU3zD1Rya4+QPn+Rd+SX/XfypRz91V9yqzVX+0b+qCWL0omW8xg+nrq53ehlH5WucYjoPR561rDfm8LNbW+3FZV3IiYdE+q4vrX30yTH+4IsfDoOJRz9t0Olw0wZ9a0Xf5ornhC+TzDV2iZk4rj+/mSs5p4645G33kU/aZp8crHygh73rYj4ydx6inRO71kHiqEML1uqdxzw4+EePMf2rmJjPmMhV5j391z74xlvn6jj9ZPyVs3bgJi/lq7arD/LNT/YzZ5lDffOTF2MBBx+uVfo75USs+d4jjhwnJv3MTZ2To2ua/NWFFxiO6SNz7Dxy6h8+FVdd2rSn361Dl5/EmP7n55fJx33k46YLDw8bBwU3Hx4qH7R8MeQLJl/EK/tdUfmw4xPcxOYlgt/KhwfdF0Tq44c5DzuMxcCP/HIeeca243pirz94Vd5gZ7zJ49SvP34Hp3IndvyKlWujzHzJEwzmiM1DXI0TncQVixZ5znUbnPr6dkxb1wsZ/syd65w29qtv5bY1H8jBzguOsvSX8ZiLnKcPDvhV3tUSeFUvfZAzOFUdeTLfHZpXcjnDj/gqfuW44ycW8ZrXXZu+MsadTV3vzq7qGJvxeRi0rsWAv3UNtxM9Y67rwRgeiWlc1a/y1Ro5ny2cjYsWX+Ai51tvWsbaOAcf/HDYcc4WnMS0X/OZsTKHPf6QWy/YmgPx8eslCpl5SD3t9K1tbYmjxlh1ujE2O2zncy0ydx4SwTB2+j5/6ZP5Ks+YM4/ZN4dgmdec7/oZE36xSy5df1W7iZV24DpH2/FAxl7lbzrFR2Ls+rU+1F3Jmc86qHqulTjkPi9Oyldtxni1/5KbVT6Q55p2PFgvMBKHvtyY94/s+gtQ/Ncp4Klniy2x8uGnja6b8x0Hcun7T71p7+OQP+v46zredOF5jQnkpVNfHI/JQ7XnpcOLMF9sj8F7Tl3igt9TMbsX6QoTf99D7Ct+I//1JTG5+H5yUQ92q4OrBzCeMZ5Lnjd0se8uzejzHqgHH+y79x6y1fOL3PcJfblo43hlj546//RP//Spr2zXrjCvati4OUjmlwaZO3mRv3/7t397yCOyFbbveC8+V+9HOJA39MA8eUcSb3Kgf2sOVnHAg5zrh9Z+Z1MvG51OysSnJQdcMFZrzJ7pn3RABxuwaDPuyqHmNv0/tV/XIPFO/FbuaU+feS4uxMTYuqo5ck1orbnkls9+d4mj9tGp/mf8/bz/Zy2ethbfzYWHB7M+wI59qf0Wi+3LpX5Lw1h+2fqikWtnz5zyfElr8y1bctu9/G7lUA9kHQ4x/5Zr2nEa2dNeJJO/7zd/vGt43jh88Xx6cMo1uzrEpu70v9+1nrWZtbmlBnhH+P/wbrEfm6m7l1AD382F5yUkazjOQz01MDUwNTA1MDUwNTA1MDUwNfCyamAuPOU/108Bv6wCnvWa9ZoamBqYGpgamBqYGpgamBrY1cBceObCM/9md2pgamBqYGpgamBqYGpgamBq4G5rYC48U9x3W9y7m/7MzTdBUwNTA1MDUwNTA1MDUwOvowbmwjMXnrnwTA1MDUwNTA1MDUwNTA1MDUwN3G0NzIVnivtui3u+tXkd39q8lHWuvyEtf3vaVQz562WvdB87n7+h7cQP+vW3S3ayx/JY6Z9wwrbj0MlWfkY+74upgamBqYH7rYGjCw+bRv5a5lsKAgx/FTEb2BUeutjgK/u3+F7ZnOKe6nV+/LsC9YCg7mPzol1tT3/NdfoTg/gqPw5n+fcoOh3t0eXXcbteyru8IfPXeOev8Ja/c9l2tQJO/XXa8PAPRq7ynvHT77DhDz4fY+la406uGRM2+Mh5+2Kv5nM96FfcFcfMAf1cQ2wek+fMVY1FflUHvfzU+LRTp/Kpa4o+OTNf2rm+6p/qdWsGvjjOw1tftPhHph/XMdsamzbigJ2/EprY0cHOulW3tviunKpOjtGVW+WVeuQx/+Aguld+sIE3/MGifcwfdaw+k0/XN0fdXMpOeREfmGk7/c+f28nH5GNqYGrg3mrg6MJD0KebzipBT9lk8H21Ca/87uSnuKd6K18cdDgQeEBIvafkJXFO+9UfBxziS3t4chHIQzaHCWS0qUvfQ6KHRuczb2KmL+3qgQx5PaiLaQsOB7qsC+w8OMITPhU746f/1AtP5Ym/zNvOB7FczXuYpH7QNX5acpD5RJY5uMrj1Tz+xCcu1zftUie50WdOG8Z1TRxnXDV/jMmx66qPKq/jlV5yVydb5lm/5M08eUieysxPYtjXxhyB3V14yANzxkgsXlauWnT1Z4tM/lfxwvHKh1idLrniDxbSJs4qL655PiPytiVfibXr4+exvFwP/U07B7upgamBqYH7r4HjC08thtyU6uaVc/RzA2dzYsxB8/379582efDZDP22ET1sE+sf//Efv9BfHcKTb/p3805c+h7I3Vw9CFc9eYGvDfiMOz/Jo/ZTP/MCLmMOuR4k5IONffA40KDnX59mng955EM8rk/152EajORGzGDWwzxyPqkrB3zBC97OZ64qb3U6+dUhDVvzkxyxgwd15MEKfH3Rwl+O9DOXqYeOeinP/opn2u58yGfFgXl8sBbv3r37FJsc0o+yzMGKX+pm/pTbkjvXO/Nm3SNLHe1oV/nP9U7MtE25+uSAvnrEzh/Kc71P9U5yclXLyWFXI+bH9xoXg9WFR8yuhTM1gi2573RSlvnLtUod+uYsMZFhX3UdEwv6fOgjzzpExjgxtSUO3kXkgRwzdm7VgpXrvtJ7DK+rGFc+Rn7/B6JZ41njqYH7rYGbLjxsGF4cKI7c8JjzAMcm5MaWm7A6eUgHRzmbJZhuvPaRg42e+sztCjQ5oAdmxUWeMWBDfPrRv3raJ5+dnx0/sIyhxm+OPSgwv/KTXNDjokOrXB/pD1wOkujIERlrhm09DHf62Gnz4cOHT+tdc5U51Je2nZ8qS5vErvHAnRzVNdQ+9elbq87bwtecKastcXc8yZ24Ox/gncyjgy58wJZHx9G1IP4VP+2v5tXTtzwc7/IDT+s3cexblxmPc2lLn1xyudEfsfkecL1P9a5iNn+7WpZnl3/nakvueNawgbtfrNQ2cwyGfFzP+rxWP4zxkTiP4Uke0zbx85n6+PHjQxxcXoyLNYVvXurS3j447gvKuhYuNT85Zh675+LVcRjZ/R5+Zm1nbacGXlcN3HThqUXCBsmmirxutuqmjocTNsjcjNN21QfHDRkdNz391Ha3uaaPtKuHsdTLfurt/CR27Z/kJf1gb9zIOWxwyEgdcpKHzfSRffTASk5ig1kP88TIYY02bfJQBj468MlcZT9tu7x1vtOGvnjYezlNHilP24w/uaaO+Pio8hyveGZ94yMPafat224eGX5yfRnX9YJf5Zg5WPEzhqt59awteSHvfKtPmzlIuX0xzYNy2oxBnPwJl3m4RQ8bf2rqWtCax8Qk3q6W5XqVA/Vswc7LQFf76pof/HPZk4f8cy20odUu51c8kWcOdv1//ud/fsgRnPVHHwx8Ehfc8Ju+1c12F7d6V3HilzrAN/3n4KXvaV/XIWjWe9Z7auB11MBNFx431dwg3fjYmLsNDxk6FJaHGHDs841hfuuHrjjZZyPkkO83jLnRrYrWzRO+HhzQrbj1IAS3qpc25kG9lZ8VL+SrvOz84I95cwGP5GJOkVUf6S/76IlLH+xbLjzJI2PIPvh+usNP51t928Qz3jwUg+tFSBvajJl+1kPqgc8nZbW/4pm42a/2jHfz4NeazItsxxEbf+qx4iePq3n1aDPfjnf5YU2Sa2LRzzqpcxmDa8t6ermXyy16VzEnZnLUZ3JFtstB6lqPqY8v1pcaSF10kDOvHJ3Uo8/7LGXqYp9yxn58ZzNW39Z409Y5W7HRpU9czGHDxcw1Ur9rsanv+uTFPM8llyjlXUttiP8cvMSa9tf38+RicjE1MDVwLzVw04WHzS0PiozdQN14aoJSx0MMm6abn/80Ahm2iZN95tlU85+4VF+7cfIQF0ziYQ5bx26o6lVecO8O1eiln1M+mZf0WfnkgaDjnDiVS/JCDz/yo18PFnnw0i+tNrR5SGQMLnnJnFZO2ndy8OplS33bLj/UhYf9mrO0M2ZykXWsDi066qU8+yueabvzAdZuPnH0iwwbbStHc88arfiJdTWvXvVlbuWRevbx3z0b+GSdwMC+8q++sj7Q5xDsYRks1/tU7yrmxISL+cxaNsZufZzLllzAs/4fHuzfvn37kIP6TFV7/O90Uj/zerJW2mLHB57kQXlt4c17gtw453p366mOrflY+Tj5aRF+0j/YT+Ulv2nngDc1MDUwNXB/NfDkC0/d6NgwPUQ6x8aUmzBjdSgqNyp0LDJkjrPPPPK64WpX23qAwbbi1kMB/BI//dOXe+rt/FROOYYLmMgyL+lTfsxry3xeRlIncdBPH9mHs4dPcW2Zq5eOlX6NHQz4kUNzLT9jRQc7Ysi4lFff8rLN/GgDVv5UAR3XKnX0B7ecF5sW2+Sac/a7HIGd67LzAc5qPp8d/VX96qvmuOOXWFfzqYsvc3tqR2zagGVMyLsxshoTY9eIPjXlGB7dhWend8U9MY2fOshaTvlVjaCLDpzA5jBvnMbBXMVhzGWI5xM7cudFT0zzKB9b8Mz7VbzaZB1SR/p1Plt0yUdyrjlP/dqvsdR5x/rBV/fBp7q06t/KK7Gmf3+HnVnTWdOpgdddAzddeDy4sAmxsfKNoJs3BcWG4wbFJoTMDZE5+qnPOA+JYmjrRua4O5TsCll7OKVf5bTyQweOfPSXehk7hwLwsMW/etXPjpt+a17SvwdZ/YBHP2NJnToHL/C0M8bdwaY7KIHDp8bTrYd5qvrwwD+fuubidr6ds838KMOXBz1l6Q+fmUP05WJrTqsd88jEpYUnMWhLW2PqfKCnH+btJzY8ayzp0zho039yvOJ3kufklLHoP+e7ftrAk3HqWbfGUGPGj/mpNQX/7sKz0+tygm/XLTHlWfGUk+vMt/JVC7Y/vZC3uolFjhh3z2fK1BMj28z7bq2MrcbhulR58qSPHz7mD1muV17S5IfPTu68rdiOs8VPxvUYXomDD2xTNv3XfSia9Z/1nxq4zxq46cLzWxfDbFL//6WSPDx1LTg0nGz4HFI4yNA+1efY3+fLZNZ1v65etuqlzrzloT1lXgZtvVCoc2uLvxUXMXk/4Pf3v//9w/Nf3zmMK5+UXf3zOP10LTjpz/zBR95ezFIPrOQgdifjfcY/j1Zn2n0NT34mP1MDUwMvtQZe3IWn26SReRiobX4L+FIXKXm7wddDRuo8tk/+rvJ0ovNYv6M/L86pgfutAd5VXCZov9d15r139e77XrkPr/t9dmZtZ22nBp6/Bl7chWeK4PmLYHI6OZ0amBqYGpgamBqYGpgamBq41xqYC0/8iuR7XeSJa15gUwNTA1MDUwNTA1MDUwNTA6+1BubCMxee7/afm7zWh3Ling1pamBqYGpgamBqYGpgauD5amAuPHPhmQvP1MDUwNTA1MDUwNTA1MDUwNTA3dbAXHimuO+2uOebkef7ZmRyObmcGpgamBqYGpgamBp4qTUwF5658MyFZ2pgamBq4K5qgN+8xm+W3G3M/Jrq+hvaOtkOgzl+C139Q63g8GGetv72UMfV/5WvmZ/D5tTA1MDUwG01cHTh4YV9+muQ828l/Ou//uunP8x4y4sdv1ebFgufevivf9Tv1uLgbzTw9x5OuPvrouGy8wfmyR/dSz2xT3jsfHdzxljznDnVDv9u1LQZK/Y5Z9+/lyEGLXb+oULlGa+carzJiXX+3e9+9/DHP8WwRe+qXvUhT9v0mbXsPK0xreYzl+DVWOGJTuohy9qVX/KxDpKL/RpvYpmXzHHKiAec5Nmtp3Gn7Ukti5X4YtAyn7WUc/aZN9bMifNdvM7ZrniYa/BrHrWl3eld8RNnp9fxQx+59tnWeqjrg+6Vjj5rThmTD32f6mV8rlfiMF/rIOtSv2lrv3KEE3jmhHn5Zt/52uIXfXJkrurFBXnlpA/xsO/s4Jb81LcFB2x0KqY60952sJm8Td6mBqYGag0cXXgw8uVcAeo4N5rsV72T8elGcKp34rPqcJBiM3NTrPOOPVjsNjh0c3PXtmtP9Trbx8jww0GpHkJqThnngcp460YtHmu/4gFWHoLQy3hXGMmJdXmOC0/yBJM8KNv5gPPVvAch6gfumQ/yVnMHnpf1VQ7EuPKdWOa3rnNdQ+LONdaXehmD/GrdaGOLjZeIDp8cUAuJra1t2nVxI4NHx12MFY8aW7cuYOz0rvjJYae34oe81knyybnER8c1ytyik2uG/Zs3b77wUeV1bExVnnGoky3zu2c/dcHmk7LsM2dsrg/xoUO7skXuJcqWnPBHUmmVyRMs/dCnnqm11LPP3Pv373/5wx/+8MDDeJ2nFQseYq+4ZrzTnwPc1MDUwNTA7TVwfOGpSeZF7Us8DzTK/vIv//KLeQ8m6NTDSW4M9BN/txlUvTzoYcfG4+bEWD+56RMbc3J3Q6oxd2PtOKjy0dbDhpjouSkj03/KkBNPytBjAyXHzBkfcYmDPGOU5y7f6sAT3hzKXUfmiAPO9NUBT7uV3LjhlLrZBxtfcFYvfawwkhNcnvvCA0e5sQY7H+iezJPXd+/efbrImAdya36VgfdcFx5yaM2BSx1xoAOfMT4z54ytO9dEXoyzNlZ46mcLB3KKLNdVX+ZBnbS1n+uunfpwy9jwoV22Kx41B+D5bkq/p3qVX/pNvJ1e5gk+xprxJM+Ur/ylTvJAn3cJ62vuaBkjZx7bUz2ws1bSL33nV89+6uNT/ym3DxZ5YEzru3bV+s5FnxhZAz7Gnf6QMWY+14B+5YQOz7nPFS25w09ylCcy+uCAl/jI5zM5mBqYGpgaeP4auOnCwwvdwyYvezY4NwFe3m542WcDyU0O/ZWehzI2BnF3i596cPPQiK2HF+RseOLR2sdeLurB2S5LuAAAIABJREFUfeeTOewqPjJzQh+9zBd5MD7mkgc+3ZRTTzzm5Sc29tpUP6t8Z1z64VBODowbfPODzPykrbzkwlxd59S3L3biyoMYVhjagZOximuLXsfXedqVD3Ctn50PMK7m4cEHXXJpbh2bX8bi6XvFL3V9BpVdtZljdOu4W09lyV0/1V65bbV1bE7UIw9V5hxtnWe8y13a0tevMTjGZ643uqs13emd8NvFIZ+OX43FcZcD52grZs7hx/cWOD/88MNnzz7zxkSL7akeOd09e8yDhQ/1VnWEnv6Tf+2zNrwDzR/zxlB1GePPd+PHjx8fePBlAJcW/JE7ML20gJWXKPlbs+g/5cLTcRzZ8x92JqeT06mB110DN1146qaWm9eu7yZL0eUBgg3EzSML0s0xZV0/9SquG2bdVLXxYJD+V3yq76pXx+qn79p340VXLuQw9VJOfHnQNQ7s0waMVb7ltbNJ3FzTtKVfY4ZDxlT1GYttXIyT+wpDOzBqHtIPeh6mUp79lY+sH/ocpPKwQ5+Y5VDn9UtseQgih9phSz/H4n3LC4/5l4fxkj9ztVv7XDP1s6051l/io4//KhOns7nKnba2Ox7dc5LPlxgrPX/6mvw7frs4dvz0X9tdztDVH7yrbda4OPCnjy4tdlXGuMqqHvP1eWEsD+3lx3hVR/CQU40hx/JNGf46W/wix6f69JExxyWH/MCLDzrGaF9cdbHLZx17L0tg1HyIC455kcu0r/tANus/6z818PVq4OYLT32Je7jmBe6hr/arDYfF7sDggrMxuLko69rU6zZzbOqmqo0bb+V25Vc7Ny98YOOY2BOTWOGWPOiTt9SjD0bq6QvMjA+fxlFjrP7BlQO6ftIPMmNI3FxH7WzVd2xM2CirbWIbz4cPHz795GuFUe26gym+0LMGq2/HKx/wtpbhtvIBzm6euXoZEhdb8sZHPuJ9ywuPPuWJbz65dnV9k2+tHeysZWL123PxrGPWJ3HSR+bNes157BjzSQzszF3K6eu341HtGHdrvtM74SfvjN04dvxqLI61dVzbipnzGYvckXFoZ83II+N83k71rp69xJRHPvvJ8yrG1M3aswZrm+8E4yFP9Kll8ODHT7zyAgM2cubpo08f/lxswEh95eJZd9qLBU7OMT+fycHUwNTA1MDXqYGbLzy+9OvC8AJ3Y1n1qw1YbgI5h2zlZ6XnJsoGlrj1cCb27mCQPrp+4jPvGF8c+NzM0veqX/FTLzlmfNgYB/20ydxX7BynDXLwOfCxgZv7qqN9J0eWsaubbXJGjh9qxoNWxpt26MlJnrSpQx98a7DOOV7xTNudD3B288lVn8jAZ1xzgIw181K04ifWzrc6te3WK3XqfB2nLv2reXQyZvS72kid6oNx5sraMI/qk4/VhWfHo8aQayA27U7vhB8YO73MwSpPyWfFEx/mJv2lbcr1S1555v3nbYxv0cNm9+wlJpzwn89+8mSOT8pO++TnypZ5LkXoimvu05Z5eKPT4Zo7ahAd2vwJT+InFj5yTg7Tfp3DzuR18jo18Lpr4KYLTz1s8eJ2k+MF3vXdSHzBs4F4uMtNMvXq5rgq1tTLgw+8mMMOXA/UjNOGvpz1r93KJ3JiMQb88o00dmJkrH5bXXnAkQ94YmCXeh7ykGd8NY606TjINWNKG+XEwEFAXvpJezmlDnrVr5jZgp922pgjdJl3TRhnbhx338QzB37aIqsffbpGYsJBGT5XPtTv5jts9JMXPjLems8VhnFccVMvWzDzGdCn8SY/7GqtJRb9ilfnGScmfrKG1Get0XNc27RbxX3FdcXDHOgfLlmbctnpnfADZ6e34qf/2sonuYKfNWUNGZscUidzT5/nXn1a8U/1Mo7KmXFiMpZjctIOn/pXdtqSiytbuNT3HHbI8v2hDHnVhw9rsfsJj3a2+MUOfmCfxjR6X77HJyeTk6mBqYHTGrjpwgN4bgJ5iEHuZpF9bDiUsLHx4q8bHC//uiHo42rjSr08+GDn5lIPZ3XjTf9X/jK52pEDvtXTH63x+K0pPD2oGL9jdbVXjp7/7A/7jA8eGUeNcZdvY6g2yPVd82CeK1exaD3AoJvy7Cdn5eibE2XmVn+JmbE5r33m3jlrUmx5Om975QM9/cChu/CAkc+EPuWsD1r90ma+r/itfOura7u1lhP+K2f41bwlboeX8/ZdR/Om3JZ5615ZbXNNzV/qEMfuJzzornhkrjPeWqcrPbBX/GpsK70dv4wz+z6n1lCX36pT1zj5kdfEyPhP9TI+edGa18Q0lupXOT75OH5MC+bONrHpw4uP8SOTM1jM4b/DJce7Cw82HXf2C+o25+SSsunPgW5qYGpgauDpNXDzhWeS//TkTw4nh1MDUwNTA0+rAS4Jebna9f/mb/7ml7/927/9dIEx91xovODsZM7RYqOvtOUS4z9pS336XH60qZdP5rHlN8ZVuxk/rUYmf5O/qYGpgRdx4WET4Js3N4psc6OZgp6CnhqYGpgamBp4qTXAZaf+1OelxjK85zmcGpga+J5q4EVceL6nhA2XeYCnBqYGpgamBqYGpgamBqYGpgZeTg3Mhaf5D+1TwC+ngGetZq2mBqYGpgamBqYGpgamBqYGdjUwF5658My/F58amBqYGpgamBqYGpgamBqYGrjbGpgLzxT33Rb37qY/c/NN0NTA1MDUwNTA1MDUwNTA66iBufDMhWcuPFMDUwNTA1MDUwNTA1MDUwNTA3dbA3PhmeK+2+Keb21ex7c2s86zzic1wN9R4ldY83dzOn3m+a2ftM7n391J+/qrsBlrs2v5Vdb+TR/0+I1s/A0fOO1+G+kp/s73zM1zMjUwNfCaa+DowtP9jYLnSpp/GG/1x9lO/IiRG0lnx4biHyfU5il+9SHWlX/1T/PJJneCmXrZ199ztWDXvx2ROdVP/q0JfoV4xlDn8leM17XwAJD2+MgY6fPRN21y4pAC54qtXveHQxOLPvjJk376lGfVMVer+Q6j8uxqhZioY3Dll1jKKh/GcjLGiqUcvMy7NS6mPNFRZusfbxRLPomXc/YTS3znaJmvceY8/cx1p7uKN3FWPKwl4rz6dfj4Rq/m4oqfPHZ6HT/0fbeJkW3awKvLr5w73ugjrzk1J9bVqV7GB64fcZyHd8aBf2TOa5dttWEsb/jZT1z6xJIXnpUPdLikmEMxzYVcjCX9wKXyw4+XntS1Lz56uzVWf9o51E4NTA1MDXxZA0cXHhLHJuEL/ntLpIexupFUnl9zw6ibZfWdY3heHZjQd3NP265/qtfZPkaGHzbzzHPNKXO50bs22FZfyDq5emBzYEw85rCRQ4eRnDyEdLWL3umFJ3nWmK5wruaNqYulqxViurrwmMNd/OhULLnUdYabNbuLp4sBWcWTny3r4zp3+OQBDLC0qW3G6hpZJ+g6Xy8hibPiUfG6OMXJNUs8/SOreNomz04v8TJP9FeHYfiY24rPWC6ZW/DIE/7QoeVZqT6qvI6x7eyTuzrZ6j95Mw/HXFNkme/EsM98xsYfBYUn2NRU99EvetqyfvTJFy1z+FAn5+nzvPDp8Mnt+/fvH3DQNd7U9XkTH52af2Oc9svDzeRkcjI1MDWQNXB84Ukj+ryEfTn7Yq4vZHScY4Ngo3GTcRNxs0WXD5sqm4F2nR+5gAEHNgE+dSNUj5ZNRd+0Hz9+fPChX/zxLRt4zCOHB+PE3fFJf7WvHZj4MT7jr7nEpzL9G29yqnroIBP3hx9++CwOMYiRnMBTXf3BtfJnjC3c85KQaw4e64As7Vdy8PikbvbFJlepRz9zknPYa4dfPq5nYquXsdR5x+B3PrTFn31tsr2ahyMxfvjw4Yv8Eae1ImbNZ8cvdVfxo8PaYw+mdSCeOVaedYGO8/rKvIvt2nX62tGChU7aiY8cHGpZnbS1X/1jb+6Y49njDzt2NSrGikfNObnwGap+M1bszH/VS37p91TPdcEWP/hFZiy06T/l8Dc32b/S4fmvdcC6kFN8iXWlR4xXzwyY1o+8MrfKMo/KsoUTOinr+vDHH63z2PpepDVn8Eg5Y+xcgw4LTHjIhbXSjnywP+o3seCgnvjqTTsHuqmBqYGpgbMauOnCk5uVmy4vYpLuyzlf5siZ58CBLS9zDwHaY8dHHWx2ftg08sCBnRvJavHBc2Ouftm88K9cbGT2d3xWPo0DfomfG6e5y7xgh9yYaLWBh3hVTxvj0AbfxAiOc2JjIwf0cg0yLrGxUz9ziq3+0q76cy79KstW7HoRkAe6HYZ25LPmtOLvDl3qdj6MiZjxt8O5mgcDH/gjt66L45pTYspDe8dP7rv41elaMOWRsarb+Uwb9Wx3c+jU+Q4/607cbGv9MfbZVa/mTrntikfWFLqrNa25cgz3E35g7/RW/ORf2y4HVadiOp8xyikvneSS2mTO9+qpXmLrL1vzvXv21Se39RlxLlu45aXFNVHHeGiVYUN+GCOnz5rSModcHeapNy9C9OGvDbr45ENfHOyI9+rCg818JgdTA1MDUwO31cBNF566wfDCzw2HF/ybN28+vdhZHGR8XCgw3AjcNMHJA8rOD7ZuHOLnWD/ZuomywXgQwWf1m9hps+OTfmq/5qeO1U9OyOShPONzLvWyX20yjtRzk4YTcu0cI/Ojz7RJ3FVc6U8sZWCmLPuJnbmXxwoj7ZJrYtNHb3dRUR9/lWfmCRwuiR50bLXp5uvzYr7R5dtx8PGfccuHmL7lhQe/xCJnc2p8zMPbQ688s0U36zfnzGXOo5/46DNfZYlTc0VO832Cbs1d2u94VCzi7WrH3LieiXnCzzjNNWN9+1PpqzxlTNgmVs7ZX61N5kqcd+/efVpnZNjm2p/qYXP1zFhPmbeOa84b06olJjB8vujDGX3myBWt9sz5PNOay7QzD4mdWMy7ZrT24QAOul0+9CW+nKb9dU+aXEwupgamBk5r4OYLT24C9PNgkRugRHix+6JHRh+ZBwJe6nx8yavT+Vlt/Imv32yT185vck0b8Ds+uUGmP/vYZVwZZ7fRMY+tPORafTOfetnXRqyMI/XgztpV7C6X8sHeGOoBKONEz0/apswYlGWbnDOexKJfMdLO+MxDxe8OralDv/ORuPjb4ezmxcn850/Yau3AB5tvfeFJntQL65w1Qr+uQ+aROfXJh4ddY835Vc7Th/Vg3pizJpkDg3G+l7rcJUf9ytMx3LKmkK/WVF7Wm+NTfmDv4jjJExh+uhw4Z1sxlWedyQkZF3Li1y5zc6q3yp++E9Mcgq1P9WjJ7eq9k3r04Q+GNULLGDkfcGi102e1xcbaoxVD7MRKH3C1vlJOvPMTnl/r1vxPOzmZGpgaeK4auPnCw4u9I8FLnA0x/+kDeuinjWP02WTYWNwskWHDxpA26Q+5G4f4OU5d+6tNtPpN7LTZ8dFH11Z8xz///PNnB8fMBTjyqPLqQ72dTcaRemzMeXiu2DlOP3Jirf0mdoW1koPHJ31kv3Imb/Ww3a2Jevjlgw2yxKYP/u6ion7HM22zr022u3n418NaxmSt+Ex0vDt++t/Fr07XggmPbs61N6d13Nns8NDPmMWr/lOn80GerUUxa25XtShe+kge1S5rTFvbjDXzf8IPjJ3eip++a5v+cw4f/iSxqzF0U559OHA4972RfE/1sNk9e4kpl/rsGw986jo7V1vywfqwtt0cOOgwRyx5qbFP3OjBUT0wE5t+YukLrnwYw0E7sObCMwc762TaqYWpgeevgZsuPHWz4qXthpMvdORsGiwcfb9tZTPwEOqhAr3cLLHZ+UFXPPT4ptiNZFUo6Hkg2vmFq1hps+Oz8om8i5d81QsPMbGp0mKXPOBjjsWTY+rZz/jAyjgqNjZ81COXckDmR2zHYKLrOiCHU47lIb62tOk35fYrZ23IkbHD058SMF/9masunrqe+q1t5Vl9XOGs5sUxFv3C1RxiW9cDPtYCNpWfOLS7+FOv9sFMXjlOfvrw8FtxHKe9smwTc5Uv+ICTdtnPWFe5RWfHdcWj4sFjxQWerk/infAjnp1e4q3ylDmhDx/rKfFdX2PLeGrd4Tdj4hl0jK7v1VO9K+6JaTzwy2dfeeZb2aolt+AQszpwBpdP5sB58N++ffsQL7pgEDstOsiwc93EypwnVuZdO/OtLa35FV+MaX/dkyYXk4upgamB0xq46cIDeG4SvtiR+ZJGhw3AwwUvdr5R5PDGyzxf+thgW+1XfgwOTLDwz7djYjpfWzck9P1ncZ1fcMWqGy/6bkrGXf1047Tjp1/57ap4+E3fcMhcGS8y+vpJPe09xOAXvRqHesypKw9jF982bZShW/OQsSZ/bWzB4+O4tpUz865hcqz+ElN9Y7PFpjtk5OVJPuBpZ5s+Ohz0xGK++zZ7JZezMVb8fMbguOMnlnVgTFctmPpHV5yMSwz4eeBVVtuKV+cZ48/8dnyZz7x3GJmrTpc4fCd19jsemYNcgy5+fK9y5Tsw+dXYdnFc5amLK23gxbjqybnjzXoYs3kQI+M/1cv4XPP0m5jyrH6Vw0Nuyro233Ny7/RShp66+MdP3WuImdwxT4sfdWlXeOhpR7z5E560AV8Oyhlj63jaOfRNDUwNTA3sa+DmC89jE8vLub60H4sx+vvFnPxMfqYGpgamBvoayIsDe1FetGqfL3F++umnLy4VeanJSxvYq7ynnl+CoJsXnmqLHzjIq+Izzxdn1W7G/dpPXiYvUwNTA3d14clv8NwobHOjmcKfwp8amBqYGpgaeKk1wAWoXoJeaizDe57DqYGpgW9RA9/swvMtghkf89BMDUwNTA1MDUwNTA1MDUwNTA1MDWQNzIUn/lN+Jmb686BMDUwNTA1MDUwNTA1MDUwNTA28/BqYC89ceObfgU8NTA1MDUwNTA1MDUwNTA1MDdxtDcyFZ4r7bot7vpF5+d/IzBrOGk4NTA1MDUwNTA1MDTy1BubCMxeeufBMDUwNTA1MDUwNTA1MDUwNTA3cbQ3MhWeK+26L+6nfBoz9fKP0tWvgMb+un9/K5W+d7Nr8WzRXv3ZZ+/ztldjU3/zFrz8Gl/YxuejsiFV8+nLINvk8xt/ozrM6NTA1MDUwNbCrgaMLDxthbqYV8Gq+6j913P1RuhPMUzs25V28J752Olf5ykNQ9neY3dxpHNVHd1gBP3nzK8D546nktPONbj28gFv/6GP9VeL5R0zz71fkoYg++OkXbGyJJeXoKQOv+wOgGT999RNHfA9sOZd9/FWutZbArzoZUzdfc4lOxV1xzBzQr3bE1PFBVuPFLxjErD/0EjN1MjfVptqpW9cdPOesl5oP5s097akeduB38Rsn81mX2MDRP7a6sq825Cvrf5f35OMa0MrJfNiCDQ/iVkbLGDnzyuHe/ZFL9PSlLv6qjDnkybHywh81kX6x63zoC66+U9CrmOpNO4eaqYGpgamBqYHH1sDRhQfQ3UbFxpQHnseSeKx+HjYeY3tqxwb/tePZ5fNbb/bVX8eN3HHIzLwg44BSD1msiQcisFwjDj954GPMoTAPNuR+dZhN32LailVtwZYDfL/FhafyxH/KGMtJ/tlezRMHeHzoa2sO6gE1c0A/uWhre+WbeTBYc3DoY5t26ohpKz9tkFc+3fqDJ2f9vnnz5pNvcDwss77J70oP2+Qu12yZ53CfvMm7Fx51ja/mP+etf+yp1ZWuNtmimxxyDt/wrM8iY+TMq4/v7sKDLOsp9bBnDcSBh9zp8x4gnrwE2cd/cjefztMy7xriF51VrMYx7Rx4pgamBqYGpgZOa+D4wlMB2aDYqNjk2OzqgcTNTDn69sFiU1sdlvXFBoiNWGyAbLgckpH5DWrKkLNZgoFPDkBw/Ou//uuHftrpp7ZyhV+nnxu2m7JcsQUPTh5ukkfmoPplDB4++dB34xc/fdNXrl8wkDPmoz9keShRXv1164IPbPloJ3d9ObYFF13WSG6ZE/SMTxvbTi4eXNTLVuzKMbGI7be48Fif5oGc8Un+2b+aJyY/iVP9iJk5oF/XUD3aE9/EYb7JKXbIfB7xYayJ3fnO+s1+2qXcPn9lnrVmjK51iww/p3rYXsXMPLhZO/h77IUHTmB9/PjxAe/du3cPa+HzXlvzaS7IKbE5zpb1ANt8OKdP5pXBPS88jOtl5e3btw94aYd/fICTa0y/8sKOOtM+udeLlVhwJc/wUSbnaedQMzUwNTA1MDXwlBq46cLjBskmxibFxuYhig3RTZHNzgMvfS8AEO42yRoIOonlBop/Dxv6Rxd75jyYwI+NHJlz2lVfOcaOw0fGJw/8eBDp8oANWBlv5ZG+uj6+jMe+cZrnxFzlCR31wel4418f9MHSt9zEpxXPOXxg79hWm+SQOTEe5rWxRSZXZZ1v52jF9hAprjzQydpI24yffhcP+NZy2tb+iueJD7FWHJgnbx4K4eQzwdyKY+Zgxe/Etzq05DKfpVVutXG98a+sthUz582JOD/++GP7PjHPp3r4EDv9ZV/MzGPHdZX/xMp+rl/20aljZNR0vRTl2GdTHjm36xMfNrTkjQsJ79DOxvcpuch5xnx87ip/5MwTx8mFJ/M0/TnkTA1MDUwNTA08tQZuuvCwebm5QqCOJeWhw02QDZU+cg9t6nYtGyQ2da47bKjDRuvFCl95cN7ZaU9b7ZIHfNy40WXMp8a645G+un76sC++vhOfuMgnOnDHxjhcJ2TKxULXGMRFRzlzeXBBRzx5p29ltOiCpS/GyVl5+tK+W6fOt/q0iQ2m6y4PdMD1Mpy28EQPGX0+OU8f/Oe88ORhkb4HSTnUefNU8w1X51YcMwdXeVzFX/OROWZulVvtduutTrfuzhlD4sAVOTLfJymjVuGZsqoHPvM133U98JP57bjmvLy7Vr3qczWGHzjEAo8VJnrkIucZI8encrjnT3gSu9PXjtZ1oLXu6PNJW/yRf/0m9y7fzGPv+qTP6c9BZ2pgamBqYGrgqTVw04WHzS0PvmxWjtlMOSzk5u3GSMtmh44H9KsAcnMUpx42kKc/DyvI5YWfarfyXe2IFx5syOAx1rbOyZGNPi9eyUPbVYsvfdjXd4efBwX01ck4xMFnxXKuytFNPDjVOFZraV7AMO8fPnz4lJPOl/lQ38MS8s63+rSZb8bGVHn8FhceY4WL3OCX/LPP3GoejKx1+uqSg+5SljmgX9fw1Hfq1TVi3OVWm5oD5dlWzJwzBnGobT7EnnaM0T3Vwwc25jB92heTsc8UP0nMn3Axt8q/OLWFJx/kGYNY+CUO7fCtvjJbfFd9cVhv5tXFV73w8BMz5OLwz+6opVpr1g484ANmxiFHcNKvcvTnJzxzcLEWp51amBqYGvhWNXDThYfNy40Poo5//vnnB7mbch460HMTZMNT5zRQbL1A5OEAeR7yUk9eHhrSbue32sHVA1EefsBg7EGDnGCLHF8eACvezreY5kd/XS7NBzbok9d6yHCdxEG3YuUcfWMwt6tDD1jE2V1eM2fGBJfKGX/M56faMofMWFLXfq47MvMPN31UHfTMBfiM0VVfbFpzYW5yLvsdz2q78iHOar7iyMucGkvlmHgdP/3Spm7Ka7/mEp88h8irruOVb3xiv+Kf8uzji5qg7sHADy1+TvW00V6u2YqJTFzqirxnvPTzXZQYXR/cXCv61jhYzONPW+aJzXG2nT7z3fOJjJylPTK/qMIHeHChVS99oCN3+pVXtU/u+MafuGIRK3nNOXWm/fwdOfmYfEwNTA1MDTyuBm668LCZubF7AGBzrBceNjkOy26MLA6buD+BuVqsPGjkBsqG6GEjuYDH5ik+fj1AMJd2O9/VDky4iO/BDjx8oW8eUm/FY+ebuYzbvvjmkrg96GIjF/0jyzjEQV6xco5Y+aBXP8gzn/pIn9pkzpC5TuYkZekPzqmTeNW3c2JlPpCBmz8BMe7kW/0xl/P6kL/5V17bLkfgJfeVD7FW8/i29tQ1JnNYfVkX8u74iUW78p069Du/2Fa9HJtDuTJHP2Oq64FOxqRf9OznOwZdMJ270hN/x11MYzGnyZs54zPX6q9acOuXCXWczwK4mbvExTd4xJ3yyp05+NcLj3L8YQMeNUsrXvqAR3KtvKp9cu/idp3mwvPle9f8Tzu5mRqYGpgauL0GbrrwkHA2KDe8/I1JKWdjqxsu83n42y0emyaHCv1gi75yDxy5+cIFfHSrr2q38l3twCcO9XPDzo3egxB8OVB4AK944qxa49EvbR7gsCMW8RnXeWTpN9eh6qY/YuDQUQ9O4KFX1w5c/DCfH7mnDL08wDEnF9fYNU07+p3v1Kn5SOxcu+qv8sm1lRMya0eZbY3dXDpP2+Us5+3Lk9Z+xriS4zPzhp6YtMnxit/KR/KwnzmpMapT27SBW/JWN58jdDIXrp8xdbEjO9XDZ82XudMvLZjyo61+kRmb3FL/sX2w8Esc2oIrt66ta4C9MYhB2114kPkTaWx4f7E21Y8+iN846df8wB9dWnyiq079CY/ciBXf2iCnn+85daf9/H07+Zh8TA1MDUwN7Gvg5gvPrYllQ3PjuxVj7L5cVA4sHAzysHBrnlgjDzM7DHyuLkc7u5n7cv0mJ5MTL2leMuozmJeGWi889zy3XpDo86l6jOuFB9u8nKCzkqWPDpt5+af/HXf2A228UCW2/78oZdOf52VqYGpgamBq4DE18M0uPG7muaEpc7PLtn7z/pigrnR/K79XvG6d5zBB7uoB6Va87rBTscjh/POTednUupjx1MRz1gDvGX5qT/ucuIM1dTo1MDUwNfC6auCbXXimsF5XYc16z3pPDUwNTA1MDUwNTA1MDUwNfA81MBee8n9PvodFGQ7zcpgamBqYGpgamBqYGpgamBqYGnieGpgLz1x45p+KTA1MDUwNTA1MDUwNTA1MDUwN3G0NzIVnivtui3u+FXmeb0Umj5PHqYGpgamBqYGpgamBl1wDc+GZC88PVPvKAAAgAElEQVRceKYGpgamBqYGpgamBqYGpgamBu62BubCM8V9t8X9kr+JGO6v75s0fj1z/irnXQ3wq6X5TZb5my2zX/++0eo3L+Lz5Lc77n6t9I4nc91vdMQvH+Zpk3v2T7hd+Z/51/cszZrPmk8NTA3UGji68LAh5a+TriBX81X/W47Z6Nn8rzZODhpuwM/Njw2f/K3w82/oqHvFd8XxJI70Jw6y7m/qgOchbKUjBnr1oNX5IrY81GRe6lzq1ZyAzaEv7eGSOUj+8kxOu/pAzz/GqG3X4iN50kemrj6qjr96fTWfz5yx1hwQe+rhE7z8Y41dDjrO8Kvrl1jWpnFUv8abnOhnLtSxZV482hofesnVnGlvvVQf5tR4TvXMc3KiL47z8JaDHJE5X+0Zr2yw39kllhjo8wc8k4N91ol8kANl2GmrjBZZzXnmO313fXTNrfN1LeDT/Qr7FSf5iY1exVRn2jnUTA1MDUwNTA2c1MDRhQcgN58OlA1pdfjp9L+lzINP3dQrB+Ijjip/rjE8yFEeQsTm8PJcfzRUzF1b/a0OJB5k8rCxO6Sgx6En81h9MefhEY4eotOH3JF1cufB5gCceMxhI4cOIznt6gO90wtP8qwx7XzA92remLpYiLM+e+BdXXjM4ZXvxMKXeTVGx+K5JnJiPnOjHi1zuXaViz7SXnyfZ1rWqD4/VV7H8qjyqzXXf/IGC441F4zNg/6y1ca4q33q1j48Ti884PvuMadeTmq74kueVvxyjj4Y5KdiM2bu/fv3n7iDWfX0Q37EzhqouZjxHHamBqYGpgamBq5q4PjCU4HYiNioOHDy7Z0bZd1QlbsRMg8WG3b3E4WVHzdL7dkAscd/nUsObr74r9g5Bo8DhBt1brCJhy+xakxs1NrRvnnz5oGbG3j6s+9hB1x8f/z48SGXYPPhIMeHeb/dJnd5wMsDDX7xJ2fG2PKhX/0xxg9zcqIVk/zlnHLa1KePHmuSl4Tkig28kaXtSg5e+k4b+mJXjtiY8w5DO/zyIe/koMPPWOq845UPbXc+wDiZJ8YPHz58kT/iZM7nQrzMc8dP7le+wcUePW1sq290WX8+ciKvroV2tCu/6Ket/bTtdPCZawhn/mClz4k2V3rUhuuWPu1bO/DCh3L6Nc6aH3VtmYcXtrY+q7X12dcWHqcXHv24PtiK45xjW+SVQx2jgz7cs595Yb76Te7Vf2KZl5TJb9o53EwNTA1MDUwNPKYGbrrwsGGxAbMRsZmx+XswYZNyw8tDDf08hLHRuUmuCOPHw4d+xKbloApu8gGLOfnAkY2aduVHm1M8Dx9g6gcM4kl+ObfzDX8PZsYJdnJXDr59Y6JNv/BQRw7oyDv9GbtY8gTPeMTOuaovDjbaIUtf2MhHLFq5Ypdy/FbfOS92vQjIHd0OQztqJ2s0semjZ/3VuRx3PoyJmHc+wLmaB8M8mF/9M645BS+ftY6f9le+1evaiuu6d5yqPTH5vNU5x+CD5dg218Wa4nJjjoiJnDDnc3Wql9j6y9ba2dWc+id5UJd64TIGfvaZr2Nk6PE810uIY3Pr+iL3+YeXerUlT+CjY58x/VyLHNNPHNYh5yt/uHtZ2/kRB//zmRxMDUwNTA1MDTylBm668LCZ5SGrjiXERufBA5kbWN0A1a8tm+HKD1h8sEk/2a9zFT/Hj8Vzo05+yOSUeOmn63uI4nCS/MmrBxfsEp8+H+T4Qtc+cnHUAdtDcPXnQUtuzCMDo4sjfWuTvj1kwSl9reokbSue+Uy5/cSGk2uBjXF3/NMuuYpri95zXnjyUEhfvnLI+Vx3YnB94eTawDPjlneuNbIuB6mLL/GVX7XoJ0d8Eg9tx6ni7WpB3VxHZbQZnzjv3r377HKDba7zqR423UUCPHwnZsbZcc355J99n9Nc+13fmoGHl4bEo+9zS56ce/v27UPeHF+1cCdn6tFH1o1zjr65gh884ZPvmOQOZo1XP+AkB31PO4eeqYGpgamBqYHH1sBNFx42JDdeHLIpOWYzqwcGNy03Q3Ty0LYi3W2GHrLygOGhAXw2+TzA5dzKD/JTvNTNuJHD180+8XZ+mSMffhOdfHf45tB/AufhRr+Jg488JKa/lKOHXR5OwDMm4yBOPo5t9c1Y7vUgap1oY5u2Kau+naPNODLexKJfMdKu1kvFv/XCk7jZT3z7u3nn8lDoN/XYsw41p9h4uUWny8GJb3Vqy9omB30gp99x6jB8luuc41xHZbQZn3WGzLrVLtf5VA+b3Zon5qrm5HqSB3XhZ51mfMzjhznk6sPj5MIjR+vHd2N9RzOf6wF3bVYtOvCBe/aNQ45wcG3QV04fO+yNK7HAyTl1pp2DztTA1MDUwNTAY2vgpgsPm1Aeshz//PPPD3I3PzdbNy02bOzYqNXZEUbHzbPqIRcj/WQfmzquOI4fi4dv48YHOGDIN/H0sWpXh6iKn/nAJ4eI/Kc8ckCvxp2HqOqvHka6w5Bx4QN8PjWejFn/YHuZSw5pu5KDl37Thn7GwZh8cWijxuRHWzHUwy8fD4Ed/u7wq37HE27a7nyAsZuHfz5r6GdMtUaYT9+MO37I+ex8q5MtvvNgnBj1YFx5J87KL9ypGeqniw2MlGcfbrxbvOxlfZzq1dwlZ/qJKZdac9p0a+dcbdHlozz9kAvWkJzl/MmFR/1swa62nQ9t4MX/R+RTnyV0yK3c6VcdsOs7Rv/YYaOvxAIn59SZdg46UwNTA1MDUwOPrYGbLjx5WGEz42DDp1542Kw4BOWmxSZWvx1eka6HD2w9RNF3k5WDfpCr13Ho/O3w0i948s++OUEX/MTr/KWsHm7gDjYf40CfuMR33OUXvZoT+HUHQXDAxFdyss9c+tzpo+eaoEdc5CoPyMznWJ7Vh346udwyb8rQJyfyyDVCp/pz3br4a/3po7b4TJ6P8QHWioM4xqJfuJpDc5z84ZJ1U/mJs/OdOvbTr7KuhW/673SQ1VowD8Zr/JnbGi+c9EWftXec9XGqd7XmiWlc8MuaU36aB3MBxtWHONCHh5cG/dmSNziRT2Xo+0UGX5JU284m48Iv8Zhj1wh8ZXLP9WIe7N2FRztbscExXuOYdg45UwNTA1MDUwO31MBNFx4c5SbHBprfyrpxsWHxcQPTzgPJCeH04yEPu8T1YOTm6Bge+IKbcyufp3hgJhZ2yODGIYJx5bfyqdyDHhj+EzV88MlckUfxsV0dvtAzB3LFhxee9EcfncSVFy3ynEMfTrSpp26uNTLGuW7I8GeN0FYbcatv5bZd/MaWmNVfjQd+yYc+NnlIdN7LrhxowXPe9sSHfuSMz8TFvz8lSrn6xlh5Zs1c8ROr+k5/9rs4qy904dXJxckWXXNGa0ypk35r/uGtL2MRI+vjVK/mUm76TUw5Vr/KH5MHbbqWZ5kc4Mf5FU/5+szJzRxhv7LVxnxnTdA3r2DQxxe6OUcfmTxp4b+78KSftON9CteU4bfi5/z05yA0NTA1MDUwNdDVwM0Xng7sRMZmlRvnic3o9MX7XJt/PZDs8o3PWb9+PXZ5m7nJ2WNrgHelF5j6zHERqD+lEb+7IDlH29le2eSlJrF2fTjLv164Vtzxo40XsPTBBY4v2FI2/Xm2pgamBqYGpgauauCbXXjYUNn0cuNT5gaXrd+oXgVwOp8bafqh/xK/MYRzdyA4zUfV4xDkT+nqnOMTHXWnnZfP1MDUwHPXAO9xPs+NO3hTq1MDUwNTA/ddA9/swjOFdN+FNOs76zs1MDUwNTA1MDUwNTA1MDXwPdbAXHjmj9rNt6VTA1MDUwNTA1MDUwNTA1MDUwN3WwNz4Znivtvi/h6/YRhO883X1MDUwNTA1MDUwNTA1MC3rYG58MyFZy48UwNTA1MDUwNTA1MDUwNTA1MDd1sDc+GZ4r7b4p5vT77ttyeT78n31MDUwNTA1MDUwNTA91gDc+GZC89ceKYGpga+QQ3wK5X9W1gnm0H+Wur/r703RtLjSLKtFzor4EJ6BWM2cgujzUiUxozWLXYLMGocqUmNK3gbeL8dvP+wL297ZGYVAAIouPBZRHi4X7/u4RkZUQV81d8sybi/qjoxsb2aV3f6WzfOXbV8w2b+bZ3W5aujiZdvVIMHfTjRXtmJg82Jf3+7J9/8ib/O0cf4FsteM+ORZ7bo4rN5TGO+hfTHH398/62lzr8kDnJgPpMDfTgy1/Id7yF0a2Br4FuugUcXHl48+XXSnbC7+db/mse+bHmp8LnKyxRnHkTsi3l6wT/1I55+eQHDjzZl06GLr5xGru7dV1Djqw8UjYFPZLzcfaljJxfiUt4tc+olTucoY57qkHiMlz6cG1v86Y98Jgf6+GuuGZM+WsevWT/NZx1ZD4l7xTFzQL/tGDcfxr1+mauOO8fp786m4804xew6yDU2F+ZPG1r0iIP2qR52p3zol/nOjbXtHwae8tmxaUMOrvwmVvq9uoyQM/lmTsylNd4cUpecEav8cu6uj03vLWnDPNg//PDD+78XpK5yfKd+94ltig89bL00mQd0jVmd18SGTfud/DXfqzGYfFpnwr2Lw7xThx2ftuTBOfe+9r3jPfhuDWwNfGs18OjCQ1LYQPOFkolio+2Xfc6/pT4vKWI95eIlsZJTX66+yGhfgpG6iYe81wxsDlR9ePRSkoct7OEmv/QjtodN5/pwRY7aF5ymWkHOR6xuTxyxkSNtYxOzL33jn9YO/KcXnuRpPSi78kFMd/PowI84+KBvLk4cMwf05aKd7Z1v5s2VNt2Cnet+ZaM/1wesXiPGWXedT8fffffdb+sMDnIOvawZGE/1sL3KkfMZI7KubWVXNZM2HSf2d5+XXnjwkZen7PdziG/XJ/Wm/ul5oVbA6DhOuNTz9JuYCZ9Y+DQ2Y9f+3bt379cSf1PsWVcTTsu6tnueMVxPvCb90zOL7mvimOJkzZDzgR8fYiEvd8/zxHll98/m5mhztDXw9dXA4wtPLy6bKhstL1IOHh40PXj44lSOvn2weBFgh35jO24bNnQ2cuZpORDwUsOXcv3zYoWbL4PEbG7icahqfe1sxYdb8pv4+HLKwwZ6vpzkwVj8qW0/5M3YzKm+5N/5ZYzN999//7uXINgpzwMMffBTJj/i8MAJNnJaD0GZJ21oT3Lw+KRu9sWGT+rRN3+05kPbfOnTp16I2Xlb8K8Or+pNPNP2ygcYd/Po4AOOGRvy9CMf9c3BxE/dO9+sDfboaWPruomvvyubaT3EIT78TAeylKvP85z7BblgzAc/T/XMF3EYW7fMXdW2+qf1cJ44wOKfLoHHAd3n1mc/2+b00guPfskF/uCnTC7MKTOHKXPurnXfSB9twxwxEKPrnc8f62Ydte3VnPFRE9rT4kMcdMgncSs7tei6r2AjpvJco1O/1w5f2ovX/plnnZ7GkWuIbcdnDsgDc5NOc9jx13do2zXbNdsaeF0NvOrCw4uMFzcbq5u6B002Wjd/NmhfcPTzcMPmfHoRuJjgi4sMfbFp4QCX9CMf/CJn3oNs9tVLvPQlh261g1vyAyd9wi2xs2/cyOy3nxzf+WEe/cQDd8LuddAPufGyokxM8VuuD2NLjOynnZjaOMe4Zc7RivfTTz/9ro6wMU7aXsOMN+skscW3TnouxxPPrIkrH+A8mScG9IiZAxH4VxwzBxM/+d/5Vu+uTX8nXXPi2kx6Wdc5n7b2+6KetUf/qR5+rnLkfOIjs/7IoVyRPakZ9YkX34yzP42RoXs6YCPP3N7piuMeBT78uZDQf+kHf/1bt8RwbfknbRzo0WcNaeVNH720s4+OnLNFn7XmuTCHjNFPLGTg53qJfdUmv0lvmj/lEV3qA67kgXFivjQO4stcZJ91ZS3RMS/pa/svr/HN2eZsa+Bt1cCrLjxsqHmw7LFFwoaOHvPI2PDpu9HzolB3ahuXl5ovDVr72DqnT8ZioseYz4l342nbrfhwS35pz0u2L3dylQu42W8/OT75SS6NBzZ2iUO/uTnPWkwXHvOmnq3cweNli6/EyL42tmBi75iWcctyPvFyHeWBbsq1zXiTq/O24D85vE48cx30kYcR+tbdNJ+HUPJoHsDlsAQ3eJ44Zg4mfsao76ku1HnSpr+TfubkpAMP89I6+kiclJmXlLnXpKz18MN8r48/PHGeWsp8Zf3J9bQeztsSZ/u7Grs+r/kNjznlgI0PfzNmDcmJ9gkvuaQdeSHX/PCBlnHO48uLFPbkkpYPunBiXVmHthUHGz6Os83nQmzazmk+V2l/1bd2Jh245r6uDnFh55gWPvgnR8zBGVnW2YfEMeXPXEx8ktv239Yhbtdz13Nr4FkNvOrCw8aaBxU2WMe87NjU8+XDPAviRowOBxE27auFSlz08OuLpV9MzoEJF31ipy46yYu+L0V1rvgwl/jJL+37xSi35NL9K78nP8kl8Vqe2M3NOdbkNRce7OXHP9kR44SHfuZD/+SPj+NuEy/jy7yDax1qn/HSZ72zNtQD/7UXnsTNvtjZ3s0TT9cocYFx4pg5oM8nfdq/862e+ZWH/p1Pf8q6FaNtU8+6QTfl9PUhDrp8kGctvFRPbOzap2MxGcsxa1u903o4ny1xePlCTl6SA346Vy+98IDnmvkcpKzxk9/UxxZePZfc6Z9wXa+0Nw/8tufqHXCFKwb5N2/o08+cMd8+rCfz1NyJuWXyB5+8di3IIfW82PDMgYlf5uHEHD5eEwe+5J4teHyY54NP+Wz77DC0edo8bQ287Rp41YWHDdUXKgXi+Ndff30v94Xhy4V59Nj8seOlpM5VgYnry4JN3I08+2A41qf4OUamfftFrk3P5Vg8uCW/tCfO/Elg+k297KeP7p/8JBdsEo8+do3V3JznRexlRRkt3Ke8pC95cLgQQ1lzOMnB45O+s9/8wOXyQj3JL/OkLXZeZIj9U1x4nvqA00s5ZNzT2plPc3CVxyvf5utJm2t/pQ+n3CfUxZ61muJBJ+XGp777h7Uil6d64GOjvZyyFROZuFnb6ua6Kzu1xAR3WnXSD/G5hs7n4V2ZberLEdk//vGP9/hgcyA2TrAZc9j+r//6r/HQnAdosLCl1Sdt1iPjXCv10OkfeoEtFm2OtcsWvp0P543XePCHLrh85O0Ps7R70mI7+SXO3Dsy7uRK38sO/tADE876l/9f/vKX9zXxkjiIDx9ggAu+MuSZA/1t+7YPcbu+u75bA89q4FUXntz83bx5mfeFh823X2xs0vlCuFoo7NXVJ/bY0PpCcw795EM/DyXZF8MDGXi8MK74MCe+L5bJHj6f+8JDLFM8zc14yY2XFWW05IVYU6Y88bFnrVwTdHL9tAfPnCkTj7mUZX/ihz71JQ85JN/0l3WS2PSx9WLUczkGL3laD8qufIBzNU8cnZvUb1/gdY6bX3JPrJS/tI8Pc35lq7/UpZ810uOO0TFx2s89RS7O3enB9ypHzidn6yp5o/e0ZtA1F3C/+uT6P73wgM8HzmKLQz6QZTzqX7Xkk0seMapnDGAqo2XcuXFdnJcPY3k2TmKic+I8cUMXPLHxn3hP+8k7ba5qhjl888k4sSdnzMM58ei/Jg5jxBZc8JWJz5g5x9s+OwxtnjZPWwNvuwZedeGhKNhUfbn678TZhFPOpssnX1zM90vhqsiwxw8vVA4AbuS0vJA5ZOcLHQ7ga8ccPvWR/PIljX7yVL9b8cHJWNKel9CTC48v5zu/Jz/JBZ6Jx0GF/KCTMTQ359DvCw+65JJWPduMVxn+M6fIwXWNWAvs1M8W+WlOnIkf/jJ/7S9rjTjQh0d+yG/bMe9lu3mmLf3kffKBHn6cp5+4rmXG4jz4xqGeHJojus7Zyu/kWz9PW/AmnpO9PuXS9YENuXCeNrGN13wxlxhyeaqHvylH+DVPYmY87Zc5aubJJTlxTn3iy7jRO/E0V61PrsmDuciYTn5PcrDy2ff5aJ/aw79rEV25Msc/BQOTD39HhnV0XcWxxfbki/j6MqavXEOfGTCZd04fU9trby5Pttb3KQ7msQWn/b0mDusEW3CJkRynf/rNl/Xr/bP57PhtH/Z2fXd9v/UaePWF57WJYyM+vchegnnC8QWVL4CX4L4lXXL0IXlgnT7GWr2lnG4s+9L4WDXgJYIDa17ixH/tb3j64iHeVZtcvKT47Dt3t5eo99///d/vLz956HZfFhMuytTX71VLbH7NN/6Madrr4GsuuHjwgzn1n7TyS87YGac882LVuC+98NzFIT7c0AVfGfHKaVor4k997bbdPW1rYGvgW6iBP+zC48sjXw7K3KSz9UV1WgQ2+34RoSvmtOGfsFoOdnLJ/ofgtp9PPeblRr5f85LjpT79huhTc1783Xi3BrYGPnYNsG9/TXv3x46fd8BLL3wfm8Pi7XO9NbA18Dlr4A+78HzOINf3PmRbA1sDWwNbA1sDWwNbA1sDWwPfZg3shecVf3RvH5Zv82HZdd913xrYGtga2BrYGtga2Br4+mpgLzx74fnt34DvA/z1PcC7ZrtmWwNbA1sDWwNbA1sDWwPXNbAXnr3w7IVna2BrYGtga2BrYGtga2BrYGvgzdbAXni2uN9sce9PO65/2rH52fxsDWwNbA38vgb4gge+uIgvQCI3/UVIPd78/T5/m4/Nx5daA3vh2QvPXni2BrYGtga2Br6gGuAb5fwWUg7gfG15fluo/fw6c/TyWzkZ59+D8xAi3ulb65zHBwd/7ab26bd5osfXrE8YyLhE4AvfqXNlR37MkTaTjDlw/DtE9PkWWHOYrfGKQ45yvvt33yYrr233ErA18Plr4NGFh4c/v056F+7/LRybY2+4T3PzpfyUyBh8yZ1egk/jeqnex8wDMeQLHy7Ippc+cfPy6heWeWAuax79U260QSfjpzZapt/Jd87lizUPNeKj2/J8qcupOScn9E9/OBN8PvqbWn0kV/rpE389z1js03xi0O91gs/E8S4H1tvEKdcb/MRi3LbN6ZRPeBInGLRtRx5PNdqcTjlvPXzlhxxmzPLpmFIHzF9++WU8bKe/zNOJX663/eRnv+sh60Ad7OXZuTTO9iEvn5mnesSGD/3ZiuO8+UyOyJzXLtuTDRjwn2IXf2rRzz/Gnb7sZ77wwVdVs5bO0xpb+uh1EYf4+s8XtG5id19f1CF8WKf0C/50UZr0J1ligU2s5gn9nM/+hIU9HNsOjl6mEmP7v9+DNh+bj89dA48uPJB8zQb8uYP71P7JSb+0nvpk03TzfWrzKfQyhunl9Sl8JubHzEPXqIccX876Zc08sPHyy5cuctcUPD7Y+bKkFcf2yo/2xukYW/INtz7YiNdy/dGCw+FBruL54j1hoC8H/H+MC0/y7Jgy18nf/t08eeNAxSdjNQfGIh7+73KQuqf40Zmw0h9xswbGf8onNnKnxSZxWKu+8IBFLfKhL+dpXa0tfahrC798Bk76E/8n/rC7yrn+4AHHjF2OtMz5LDJu3+KkPb7zGcIHayof8Vve45PelBN1afWfvJHnmqtPfO47yrLVxri9HGDDxcRxtsQBBrnhGYFPYr60Dwcxr2xdi+RC/xQfvKaLiz7Awzexd/zpA27TPLl1LVJfedbDpIdNr6HcwEhM+z5T4CW+dtvuAX9r4MuqgccXnly43uzYEJhnM2LDY+N1A0HGxsBYvZN9+uh+blJuNOj4kqAvLj7t86Jo/xNPNlF9gumm1py/++6793OTjvZTm/p3/LDPTbbjJb/G5AvGeNMPfbng05i0YQ4dY1S3297QyRUbPHL9NrZy84V//an7oXkQG/5wIS/4xY/18v333//G1bgyZl+ecMm40EWWL0H8TLnSDv+ZW3RdA7ByTi6TPDmp1y24+MsDe67TCSM5oZ/26QN8uac8+1c+jBV/9tPW/t286/ru3bt/OVRMHJ/kQN9X8aNDfPigpk48U37CAwM9MNWnrlh7/fg8yQ09P7kOVzlPPXF8DvWvPPOUsq6HJ/4S66RvDoi5ueD/ZJfPR/blTJty+zwb9NXDP+8CD6ZP9U5rKq6xU+OZf+NVj5a4754FeKGnvTEgsy9myhKbvntst+K7rzFunRznu0e/2RK/+272U4c+c6cLT3OAv/aTHbVCftzr0ecDPvraGqv+XfuJJ1hggi0f1wpsZOLa6q/5OL/tl3XY3fXY9XjVhYcNgM2BAuJhZ2PIjYLNwRdtbqz2T/anghTLTYdW/7TgYZt69vXJJufLHHs2de3AEA9Z2rDhZzzq4S99n7gjz3jhwcb7888/v8+bmyo+fLnQl4N+9EvrHFjNb8LL2M1L4pmHUwzawAsdWv2AIxY1ADfmtXHuU+RBDmJPccApD5PyMhbH2Lo22ICZeXPsy52xH31wKIeT2Lnu5GHi1z7AzDzqo1vx0kfyP2G0vs/EhJ9r1/OMTz6SB/5ynRrnyTw62MHH3Dpujun7xE8OU+6d69Z8tzwxsp96aWv+icO8wLNrlDoDjzn0aMGcYsoaTr/0T5xa76T7xB8+PExO+pOs/ZMP97Wec5x5VEabMZpXLjfWBv59LuX5VC+x06d9Y//pp59+t4YT17taF9MWfXgyzn7Pw4H3gPXk/FV7igve+tTe9cuLEH10wXFPzD58Wz/Hvuv0QQ2Dhy/a1M0+dn/729/e62CDPb7g0Bcq4mBOH+rmD0ETO+tPHvg4xdIxpJ/t//P9uLnYXHwpNfDBF54MhA0mNw02LjccNkNfNsiYS9urvi/03oixSR+pZ1//qds8k1viaYPsCu813BuPDTYPPYmZ+YILH+bFIB77xpt4yPJliL7jjjf9Zj/9nmzkMPHJucRVPvFOPfqnPDAHJ/y2TeaBOcZeyhinf+yzfqmLvBBgS95o00/6SIzma4wnW+XNUXm2rkHqZh2nPO2SU8eXerneKc/+yUfywF8eKuy7VtO8eWJtPPjjFxt4yWHimL5P/LS/il8d2qyRlNPHh8/tCc+1Qt/8J2ZioAOOh0jG2BYHikYAACAASURBVJsvYzKPtpkXbPxkPpSd2on/E3/p46Tvmp58E5970kkn85g6mT9x8jeC1k3yfKqHDQdb82xrvhOTGI1h4przyb/76OmHlj2Jw3zK7BMHH36TjU/qqu3VpUW3/eUYjJMOsU6XisxF1i3rIqf0kTlT7vPwhONUY8QMb7mAyxg5fdeRefrJk3n8Mwc24+QuNvL8+BuelG3/9znafGw+vqQaeNWFhwDYHNxI3SBp3fDVyQ3HC49zbX+VmNzk8lAKD324acIj++Kq2zzdgP2ti3jY0cfuCk/8qZW3OVKn8dDz4OSc+aGFA7bGQF+9Kd7EI4bEom8OE09uU2vOyJE80fNFkvgnPvj81Hlo7pkH5jJnOSZH1gE2xvbSCw925tTaSRn9/DQ/5pBNuUo7fSBzbfKQd8JITsSb8TU+PlLW/ZMP+Fhf+Ms9oTGu5qfaEhcc+DXHXMMTPzlcxa+ObeZbGW1iZD910rbzz7PUvx1AJ58n+sbZMZ186v9uXr2ORfkTf/hwb299ce7arJmTbuYxdfDpnuSzgMzLsnbJ86neXf4SM/cWfSbPq1pPPftgwNPxVUu86MPhSi/nxJ/qjZrr32BwqSJe7cDClg995voiwVzGkDmSi/7z2XbONn12rMkBX+hiR5+5rA/kE0/92KYP+fUz2fnRdtvfv+M2H5uPL6UGXn3hMYDcTNhg8nDDxsNmgW6+GLSlTfuUX/XTT/oAy4OiG6v+c4x9bq45Tjw4MOajPbpya13l2U52zLc88wDnzCNjfGGXPhMj++g1nvbJrfF6Lsfi8dLzpabPzjE5cs589VjsluuHenmaB+PQl9i0iac8c8i8NdO64GWdMM+60Io1+YA7FwnyZN7ByjXVfpInJ/W6zRjMIf48eCrrnGAnJ3nSTvjq9ZzjE89ct+xrl+3VfHLVBhk2jGmbY67ZiZ9YV/GrY9s8f/jhh/d1kHL8efDWznU4cYY/daHdxDlxp3mws071Tdv+nQOna3nKxxN/2Fl3k74+r9qTHdjuN9OzAmbKs09e+Cm8uU2eT/WmnGQciSkX1oLcuubqM572AOezdd08VGce0Ov1Y0wtYUdsfTh3zFzbw0t5csjfYIDPPwVjHi7M4Yu1YZzyxEgdY+q8oM8c/PHDvHy7JR/TP2lLTOMhJvrww66xprHPUeZTvIyLfuan53a8h/ytgS+vBl514WFjcoNhY/DFyQaTG3rqsen4Ukx52p8KBB1fWujgBwz6tPpEziZG6+bqHP79aXbqiSEecbnpuVEmHn15ZhzKphY98eXx448/vuctXsYIB3kjh4/26dMYJ36Jp09a4xU/8SbuKUOX/Lr2+ncMj86/8enXOOT0MfIANhzkkZwzD8rRM374ud4dD1zliy2cPXyJRXvyQS60F9uxeLyIM0fiwanl6ROcjBduYBkLuugY5+TPNaBNbG2Ta88ztjaTpzyUZa4njNP8hI196uODmOXfOT5hyOMqfnVsxTInXHjwfeUf2+YIfzGYF1cc9HMN0TEubNU3vz3PuD/NQbzkgc2Ujyf+sHNvn/Sbz2lMfBm7WMixmXjjm9yZD1prnj7PoOPk+VRvyknyT0zl5DX3SeXEIRdlpxZc9hrqzHXC3jiR2QeDXCEjR8jNWeKnDToTburngV7f2BEb68QPvzKexEwc1w07dHLOPjrwIQ5k//jHP36nl9wzVnThNsV7kpNb8OA+2YGZPtCBe398Zo1h23/dezYnm5MvqQZedeFhM2DDcwNwE6PNDZBNxQ0lXwwn+6vEgK2/6aXIHC8I/KPrJgsH7ZInL2g+zCVnOKSN/MUTAz03QnVO/LVNHsrEIyde6jI//WLJnCZG9uGReIzxo//MX+Kd+CsHozf5xAVLvOYDhjJ5YKuMPjrJ+2kesPOAAJ58Gy/l8IRHx5M+uy5Y52mtk7M+jAs/ymj1O/lWTw7mRHm25jllcMu1ZS794TMxyRnxux7Jqe2YQ5b+5Jn29NMHnHqesbll3n5ig9GxMC9nfdAmfnK84weWPwRJ36e+a6o/eLPnMJZP63R9EW9yxBe26jHX8+i4tv/7v//7Pi/6k2tiEJcXkJyXN+3kY8qHOXzq76Qvj7u264Vx28DdWMybOvC0nuQiRublqR42/YzgW7+JKYf2qxweclM2tdaQOffiAS6x809XkaWtc9hiZ8ypg62Y2UfXfGZrjPJhDjswaZ3XB9jOK2OsHfP2nbfFB7rEgQxOic+c3M1vcr2LF0zXkjUgh14oJ07JW45PWnhg+0R3dfYysDXwx9bAqy48X8MiuUm7SSZnZE9ePGmz/T+2MF+T73wpvsb+yoaXLDXjC/lKd+e+/Fp562vEPz/aWv0665D3Ux6aPajnAd++lwLWGhsvPM53C3Zf0jikT+9JL1rTs4KNlwxa/YDT47ZHR31+qPE///M/78fTO5mY0DVOsDJWxslFfWz8gYn+Ep8ccOEhX2CoIx9jSzw5Z6sPY4Sb//RP2bZf53O46/b21u2LufC44eRmYp9N56XF90deeK42ReJ6KffVf92DxsvmU11KWONdy9ety9bzH5u3PXT9sfn+Euo7LwHsUx7Yk9vuYZ++Lsj9vic+fZ6zrre/+X5aA1/Mhecp4dXb4t4a2BrYGtga2BrYGtga2BrYGtgaeFoDe+EZ/pPv0+St3j5oWwNbA1sDWwNbA1sDWwNbA1sDX3YN7IVnLzz7T+62BrYGtga2BrYGtga2BrYGtgbebA3shWeL+80W9/605cv+acuuz67P1sDWwNbA1sDWwNbAH1EDe+HZC89eeLYGtga2BrYGtga2BrYGtga2Bt5sDeyFZ4v7zRb3H/ETg/WxP5naGvh4NZBfhcy3XflNnd3mN3ei1+P8CmLXB73+GmHnaNMf/Zzrfn4Vcs/lGL0rLL4euf+mDvYnu/465fTV38KG38yLuie589liP33jW+p0H3z5X+W77fA1rVvrgZ1fU803svIV0+SmdXPMfP99qpyf+mDD6+eff37PzVykT78RtmvUccaEvfKpndYLXtjxSb/JtzlQU+R+8pG5S4ztf7x9bHP5Zeby0YWHBy0f2l3M/7eYr3kZfOzcvYbDazb+D+HtZkwdfQjOa2xfk5+TH186zPM1sL5QTi+QfG5OLyp9ods4+PCP0apnLn2R5YGCdQXDuWw79/LvFyx6ysCb/jBn5pS++nLM/Fwd9tDDX/Kk33sN+K3D2Jim+c4lOo1rDppj5oB+26E/8UHWWPgFIzEzT/aZT8zGQS/j7PjkhI6YtMZonTzVO9WSOM7DO/0Zr/MZk/2TDVzJNW1i3vU53PkHYPXRrWsINs/U999//y/PSueunzUwxSGGjGPSbQ451hd5esmFBztx5GJ+mOu6mWTo6F/bU2u+4HnSaTn45uaJL3y4lxqbrXWeOmLr925vVY8W26exow82+vhvP+Qk/5ZP+jn18d9rpO4pV8hzrXssTy99Vz701e3peTXXzN+9C8BE37Wj1d65jAPZXX1d4bEu+Oh8Mkae63zCufPfedrxl3mReboujy48gFE8XVhPnbxVPXKSD/TniPM1HNi8XvqTrg+NjY2FzY72Q7FeYv+a/Ez4+XLzcOPaTy8gXyC5wSdG+3BDhq9zvRkz5mCgX/Tw7aFAO1p00nfO0RerbbGTA3zvXnLoqp8+xL/bMyae4CX3kw/93c0TB3h86Gt34pg5mPhpT3vnm3kwEjPt6TPnRYJx87LewNKWOFg780vLWvVz3fIei9fy09qrr//kzZzxqkf7JIfowCEPS/wBR9YsZfTTJzxeeuhMbvTJN35oe67Hxt2c4N+6jI1rmkMGnheejl8fxsu8NUDL2NpQ15Y58JlHN2NLnOSFnvZ37Z/+9KfjJWWylXf6o09+jC/njKvzCndl9CdfrOWPP/74LxfaSRcZz9F//Md/jFiTTe6ZcOFzqouODd0JU1nniRgbw7ylLvniOXBtGU/5Se6Zb/j3Xk/N+AO3aR57OLgetMkVe8Y5z9rATd/pQ5ntHR6+v/vuu9+eCe1afoVz5V+8bb/uS06u3+MLTxq5GfmQWtA8YBQ0Dx5zFDsyHjLG6p3s00f3c0PJhzYfOHHxaZ+XZvufeFL4+gSzYxOPB4y5SUf7bNsuuekDmTbkSHnGyXzOmUt45K+vGYs1tW5C+GB9+CvXuQmRZ9bv119/fS+f8gcunOXZ9ua7+U98zE/mgBiML2NOPHRci0lX2VV+MhfEYu7c3HkBuIEzJ0dzBPdTTOSQT+YG3cRJW/ii6zPDXG/G6MixbVsu3omj2M0xfZgH2vSHL/SQ0W/fcs9Y0j77E0/XxXyffIhzN48PP8m1/YiHrnoTP/Von/gmDj5gpS39Ewf0rZ3sp33K7bOe9NWDH8+wF6Gneqe1F5d5MOForpij33He5ZD5v/zlL++xfvjhh/cY5IXaBY++flNGH//Y23dPypY69J8kyZU2dbpv7vXbLT75IM/+pJfrkfPJIfc2Mdsu9eXL2rLmrAfz2MCnbZFpM7WTvvEl5yd9uHiJu9KHL59cU/Th0vlAlryZJ3Y4Ym8OqBUx9Y2M9cw6cu5JSyzEdKXLPBzgol7HhXxaG/WJEe6O6fv+UZYtWM6bg3z+wcs1VGeKBVlfeNAnb+BM83CBoz7oJ3/mmfNZyr5xsCZeqpTZ3uExz9rk2rrWyOVyhcM5h/nX1oZct/06LkWvuvBQuBaTBUbrpkTrw+IDicz+yf5UNGKBgQ6t/mnBQ5569vWZDyz2bJ7agSEesrRhY0VfPPXwl77vuLedY7Dd3OnrW/zUc+Mg124SzGtDjPI98UGOngegxGKO+PkYb2K7IWYu1YOHfeIAi1b+V3zwp17yucoH+uZDX44TA72MwfzIFd/YZ0ydR/ByU4UXLxZk1JHrZ4zGQysn50450YZ5bTIO+TIvli0yY1Q2+XaOVux379699yeuPNDJnKQtOUUPGX0+OU8ffDiJ2/OOTzyf+BDjxIF58paHoVzHE8fMwYnfE9/qXLXT2rV+5iLncn3AITYOga4H8SFjzuf9qV5ip0/7zIP5008//bYXMTdxvcuhmLSsFxhwz746KQM393F1rtqJi3miTVtylYds+8jB4YO+fbiRb/Wmlnn09EMeOZzhm+dlskGG3S+//PI+N14K4XG68HiBxFae+pS/46nFBr1p7k5mTHd6OZ/xW785bz/ryzjIZz7j6GSOwW6ZeE/a6cKDb3LrvkvMvAd6/Zx/4id1nuZQv6w3OeCfat7VU9cgfsHx/S6PlGXfedpeD2s1868+NdW+WRvPMurZmuO2cR7f1D/z1iqtnGjRvcMRb9uv49LyIev0wReedE5h5QNu4aHDA+NLl8K3GNP+1OfhyaJOvfSRevZzs1e3eSY3dfTBmM8VnrpT23Zu7HBA33nHiZF5al7qye8OS33ajJcxGPiHiy8OeU35Q5abELaM/a3QFEv67z761o1Y+G+9zge81fnQ/OTG25s7Y/IiJziysRtn5gMcckGbcnk2lnJjy7wnJ+X61I621xPZ5DttEhtM8y8PcfsliDxzTT/XQR/ggznxVYf2xLN99EEiL5no9rx+O9/oOnfimDk48TMG8Pg4fmkLl3yWJnvw4dFzvYbgcIF1nwUb26wP/d3pYTMd4Iw1MTNHE9ec7xgcW9+5jjxzxJQy+tYqhx0OeOBP9tqpr69uyaPPbM8xBt+acZ44lTHPxznkOVaOzPwpM893HNG3Xo2L9nThkdvEBQ7NQz62zKcf+/ncEY9yW+bxiT1rIt5Vqy/wjHHi5xy+0DU2/PjeQqd9m2M5ZqufxO55fXUM+MUe257rMVwT966Pz6uaxj5rJnPAhee0BlN+4HrKETjO370L0GvOubcR0xR31lTn7QqP3IPJx3WktS6U3fFqnzt+uxefV114KAiKyeL1oaDNAkeHYkQ/X5An+6tCyw0pH/T04cMBj+yLq27zlJv/7EHO2PkwXeGJP7Vtl3GYP1r8qJtyOCtPXvoyJsbquR7qdGu8btTog4Pcg/2EpS94JEf6rknGp6z99xgbf8qjD3TkkL6YZ27Se2l+iDux3Xin/GRdT/XjywBe5h8+aQfvzHHmAV1j03/+9NxciJ226ruezE2+0yZzjtx8Ng/jSlt1tZN36lgHE9/Um3gaK3NXPsTB/8SBeTByjemre+KYOZj46fcJt9Sd+uTn7jmBr7lIjFxDcKg1ZB7+tMv6eKqHzbT2+k9M1wtsfapHe5fD1IW/caT81MfnlJuTvvju9V0bjPOZJTYuFepjj8wc4wf/yYF58oCuPDJfyMxZ1qO6tnIVhxbc/g0PfDsO8gJO54cx9cah+FR3Hd+JT8rhhR2yKX51bYkF//CWKxgdB2PXgxyjY77v9PUFPrqObcVxbItcTsjoI3PetuNsuwm/bcS6a+GfnLo2wLUm0eUHAbTUinbwUY5++nzyvE/7AT6m3IjNPB/G6LmWzhOH735lV23i6RvuxM4zKha+9DvhJc40v7K3eel59YXHgsiC5cHKgrYg0e0Nf7JXdtemn/ThJso8DzRcfBhzzHxu9jlOPHj4YGiPrvxaV3m2bZf5Sj36vSHkQ3vylfL21fiOey3gRK54CU75wk5s5pOXmFNLrrIeJh1lxJE/rUSOn7RPvxk3uj1OXOwYGwO8slaYy3Xp/LihYo/uNM/L4G9/+9tvL/F8cWcMjSXPjA0Z8WDnBo6sdU626qZfdW0zXmTwIgZeHPhG1jrIzKE5RVd9sbXlGcvnJeftg9M8e21OPsQ4zTeOvMypsTTHxJv46Zc2dVP+tD9xxDbr5PQcpTz7cOZZNs6s16d61gPtFEtiMg8u681aWhva3eVQPVpw+cGDNYFt4uGHnGvD2Hnk+dzZ770ePdaelvyLRcvYecbg86GPH/pw5DlxP1CeOKlDfzosos8ca2Utyrlb8sE/aSOWnMs9E95ylQtj80PfH+rom/FkkzkTi9zA4y5n6E9cxOkWfsSETc5l3vTtb/TQMzZy52G/18+8moPER3aSZ05yLdMebDhnPoz7hA1url/3rfs7P+ZD38YJHmvHD8vggpwawS911vnRT+ZaWbbYuZ8o1yex0ncNnKfFrzGhZ1+dCZe5J3jEl76JU3zkxn/HSy7bvs1LTq7rqy48FhpAFCxFRpvFzVzq8UDxwKCX8rRPYtlHJx82/IChD4scOQ88rQ+jc/lAp54Y4vGguNlj4wtBPGzllnEo6/Zkp7/0kRsCMcNDvWkOLslh8tV8GOdaOA9OvgzFmvKXucQeW/R4IZ/WST+n1jXRH3pTzOYj4z7pXuXH/Lqe+DL+zk/XqLnR1viRZ3zJX7mcHNuia2zI5CenlKGrHXipo3zy7ZxYuVbIsOH5kYdxOkan/TGX8/qQvzlS3u3EE7ysg5MPsU7z+PZZVteYzGH7yucRm4mfWLQn36lz18dH8jR3cpQzvsRqnsRqzuizjo6znp/qYXM6pMMhMeUEP/zKW/ldDtWjRZcPWHAldvrkhA8x0WqDjv440MHLOdq2mXBbHx38pm9kPhv09YmtmIlDHy48m7m2kw68keMvY2vu4KFLzPpsHv0TfPODvvWQHPCR+wAc0Etc9fGfFz3lYICPrTI5Mj7ZmR99gcFHefJFRmzGox9a/E6HWubQP+UfX8wnFn34pLzxtUNOn8sFPqiP6XPy335PeYILflK/dZsja0JOWNvkRE7BQr/xrp539LXVDl757iFvuWZt0/PgdP2JTdv6jUcc6KBLnzgd05qzO5z0uf23fel51YWHIs0H3M2BNgs+C5IHlIcP25P9VbGB7YObG0hi8YDjH918OLRLnnBxM0jO+fDkAySeGOjxIKXOxH+yUyYvH9KMhRjZ4JObD3X6zByLmxwnTvrJPGKTvsRKn4lLX/6NM8knHimTk7lgThl4nY+MW5zkKk7qGZNxuH7g+9Mh5rJWE1u7iRtc1bUFP3OKHD6Jk7rMOaZFL18oyIzhLseT78SGL/VPrMrFTh7K9Nd80HXOFlmunXLajj3XQL0pZ85lK09a+8ZCe5LjM2sWvcRNjnf8Tj6Sx5N++2Hcdsmz1wHO5s3ci5H1/FQPG3xkXujrNzHl2X6Vw0NuyqY2McEiXuoPzmDwybUBwzn6dxceMOFB23Wdcco1c4Af43PeGOCZvNQDE7nrljra4iMvPGCLn3wzVjFpXWPm9aPf5qHPU2tO9N96+Jvm0g++XTd06bt26PWekz7kP/lQr2NGDu/pwoOuudDe1ljRUWYLX+z4WO/o0aeFH7GoB29tP6QFr7GQ5V4lvjyIA1nnAH5gIT/1xaKlDq8uPPog9s5N4pgTdTIe5nptuybQR0/MK7zUdX2IA1vs2recaHNOX9hSn3BStu3bugC96sLzNRTB1YbWm8XXEM+n5pibB76u8vepuXyJ+GyGvFTJy2v5fQyM1/peu7e1cb/F9WQPYm82tj7s5IHFgxP6HpCwTx37HhjzEMRzjH4fbvJwKA9bbDxYuz/iA3z/j4/jxgUj+dF3LH/9YAsmWMaZfNM3lyV1zZ37zL//+7+/P8gyni6v5odWPrTySD/oePhnPufMr3a2xpF2/BAPPugYvzzkr/3U5no7DxfXRRk++gCPrb6MWf2c6/VQB7l24HtRTdvEt5/xi5X5Uy/z6HyuR/thnHiZg6xj+8zLX7svrSWv1Mjn4sUPPsnX5/K/fj/te/qLufD0w+wm8NoH1A0jNwWLCZkvEmUf0vbGndwn/x/i64mtsScP+735qtv5UP45+D+J8XPo8MI7vQzv+JDPfCHd6e/8p934Nr9vI7/sTz6Td7/h2TX/vGvOHsiBknbX4vOuxZea/7wQ/9EcuehQn3+03/X3xz0LX8yFZxf9j1v0zfXmemtga2BrYGtga2BrYGtga+BbqYG98PyfLfZvpdg3zq31rYGtga2BrYGtga2BrYFvrwb2wrMXnv0V7tbA1sDWwNbA1sDWwNbA1sDWwJutgb3wbHG/2eLen+B8ez/B2TXfNd8a2BrYGtga2BrYGuga2AvPXnj2wrM1sDXwB9ZA/kf73pB3vC/prYGtga2BrYGtgY9fA3vh+QMPOlvAH7+AN6eb06kG/CrW/kao0zftIfebDE9tfm0sPrm49NfG9rcdyg3dE65ydNTfdut6a2BrYGtga2Br4OPVwKMLD4eB04v86WKA4eHgY+A99Zt6HCg+NA7x+L54vmaYAxV9vu7Zg0sejHLO+MXIQ5aHHfCuvr4Ym/5qaQ53/QfdwCHWO07O24IvP1qwiWfirmxaz+aErvoTvvHnXPYzV3LttQTfuWyNaZrPXJqz5ska9t90gBt6Yk85IKbkkf2ON7GsGWR8kiN+kGVuss/8lR9jVCdrFRw5tw/rQP2nesaiP1txnDePxoJ/ZPrRLturHMIXDOIVk7br0jl9Oe4WO+qN1jm+Btm/bZG8sm+NwrVzKg4tc8YDlyvdtNv+x3sZbi43l1sDWwNbA2+3Bh5deCiAfCG/piD6Jf6heK/hwIHCA8hr7LXhEJWXkhMuhyMOdsx70CQP4CDLQ18eqDkEepnSpy32HKjyQNSHOP3qS395cE68q5yI1ba5nvQboznBNznrX3zyoWxqJx/gpd+TD/Hu5l1HMOGlHeuR66McPHM88VOP9s53Y4mLLX3HtOgmtn3mrClknVvHYqFDzLm2jIm1/+J0y3ssh5afcqe+F57kzVzmQ90nOfzP//zP9zWRl47844wpp2/9kJOe63FyvHpG5ZsteWm8HqODzdUaJ+b23+6Ledd213ZrYGtga+Dj1sDjC08nPl/gHho4BORBCR3m/vrXv/72sj8d1sTXxp/MJqYHNg8KYmHDIY2DW3JhjK4ysf2pbB5gvJCIrY3y77777j0WGHz0De/TASW5qydu2ugDmXkAHz+ObdEBA+7Ok5f8DU9ia0c7ycUz36lPX2xyJvfGmjC0IwfoE0/mTD+uqbEo7/bkI/Nw8iHWk3nXFn/aEcOnvvDgzxzQT/85Rifn5HjKI/quG3bTGqRcfdZbPvjAjj/K5vP9VO+UO3n7jMAxudHvOJGljhi26MuZfKBLXWdf3W7TFgx9a/vzzz+/zyPjfF7tu29km/sLmFfcmZN7+m+eO/64L8DN5+Zza2BrYGvg26iBV1148hDjC9+XuS925Mg4IFBMHCDUuSou9KfDu348iCQHfOZPqRsDvx5oOJCgL56caO1j70G69eCOHhjGwTgPOs7RethEl7GHIGyMRUz9q5tjfZnHxM545SsH7cTUv3LwkqNyW7HfvXv3Xk9ceaA3YWjHOqFDLFM8mWt9Tu3kQ1zm7E8+xDtxYB4e5IEWzvkbtqw1sfSn7xM/9a98q2MLlrjIeqxetllbKbf/tC6sKy435tLcMNcXnju9U+7kxTyYP/300++ee3xnDtB/SQ7hjD5xZ1+/3eLL2qbV92TLHM+7Oo01jcHMPWLq63+yX9m38ULedd513hrYGtga+DQ18KoLDy/6PCTzos4xBw1+I5IHAvrI7xbSgxn69qeDAAcRL0bM50G++eiz9U6c0q99Y2HMYZiDGrg9jw8vX9hkXvTvT4vFBKcPc+DnodsY5Jx+MxfK8aWNrYdL9JU1R+W2iS1/ZPJAb8JIO3Q6vsT3cqlsaicf4jJnvw+SrsVp3jzRWp+9xuTtU/+Gx5in9YNb1pG62d7pTLjaZ12IwwU3Lzfk5jV62Pib1lwbc52YucbMu67yRKadslNL/VFX+Pz+++/f25GDkz6+wE6O3XeP4ZIHJjbmtXUZq4/PrK+JA77RmeZW9mlefpvXzevWwNbA1sC3UwOvvvD0Cz5f7nmIsZg8UDi+atVtHA4E6dfDrIc0DzTYTwfESc8D1HQwQ98DDX0490G+41AfDu2PsXnCLzraM5YLMvhcXXjU6Z+O61++4qc+MSg/5cr5jlfe2Ml3wpjs1BebFj1yMvFNvcmHsTKHLviTD3Gu5pnL2qIvfWw98QAAIABJREFULmvxR1x4iCcv0/KmPdWDOllbyrI1V1Oewc7LDc8O6yIXckMuXqN3yp3cEjM56lM92qv1U08M1s89gFiwZU69bpk3N7Su/ck2dRprGqPf9dVj/U/2K/t2Xsq71rvWWwNbA1sDH78GXn3h4YAwLQiHCg5K+U9d0OMAcbJpHA9B/mSW+T4YM87f8Hi4QZeDQ47Fb7mcPCR5yHGMfvbBMT44iptt6hsHXNEBX176FhO5/pFhe3fhQY+cYmsu9DPlOn2ip66clGWbeUYOLw7/cNNH5zX1zBO66jf+ay88XRMnH/o7zRuTXOXvJaBzwLzr7JrRXuXx5FtutuKSU2VTfp2z7VwoJybraFp/9FKevpDzH/6tLbDMyVO9Kbdyo01MxuBSD/08MPc0h+iSD/TJJz6IA/npg25fQKYxOQEDnvZPtv5w4+Rz5ef12NxsbrYGtga2BrYGPmYNvOrC04cYXvge9jgE5EGAgwGEkaH3hLyHPg4c2veBDrzTb3gmfvgGS57JSX/yRk/fzskDO7Ho92EYPQ86yVmc9KFe8wUXnClfnUd9mAs5ga0v8VIHGR90MifKbTs+bciP/OAPducocdFVX2xa+adtztufeIL3xIcYJw4TdvJy7ZI/fDOfE4Z+aU++U8c+WHxOY+XdYmNNMWcMYvUYnY6DsTmlzzo7Zp2nC8+V3lTbyTsxlZMr/Mo75bkGyqeWWNFl7cBprLRB10sdsaCbvMxb+lYPHC5T6DcmecOWD33+nxIYjrN+sPdimjjb3xf+1sDWwNbA1sDWwIfXwKsuPCTeQw4HEw9ZyDwcocOLPQ8SeUi+WzwOHeKqiwwMPvwGCV/4bL/NT06tB56HGObERsaHeQ+7zMuDvnbIOKxweME+DzE9lzbMZTyJzxy6LdOmcdBrv/I2ps4lWOKZH2XZ5hoqFzt5ZA7w2ZjoysUWGfhwU2bbsWeu1HniA1150trvWMBXZouuPoxZ353vO36Tb/10C1by6XHr57h5JA56HUfXBXk3ZtdGDNZ4uvBc6XVddP4S0zgaT/lLcggG+v5/OcbidJsx0zdeeXSOsE+9uwsPPNCXE2uQHPDHh1z0pQdb+aTN9j/85bc53BxuDWwNbA18OzXw6gvPt1wkHFg4mHBA+RR5mA4+n8LPYn6ZD7oHYNenx8q3ndePfHnRpc9l4ypXXkjQ0VZ7ZF58UpYXHuy9yGXbF6W+bKrbesmVvYB/2puy7c/rvnnZvGwNbA1sDWwNnGpgLzwX/67/lDTkn+pS8qkvU1cx7dyXsVFQW/wGiYM0n/5t0q7T51+nvPDc/YbnQ9aLyw718CEYa/v562XXYNdga2BrYGvg89bAXnheeeHZwv28hbv53/xvDWwNbA1sDWwNbA1sDWwNPKmBvfDshWd/erw1sDWwNbA1sDWwNbA1sDWwNfBma2AvPFvcb7a4n9z4V2d/MrQ1sDWwNbA1sDWwNbA18LZrYC88e+HZC8/WwNbA1sDWwNbA1sDWwNbA1sCbrYG98Gxxv9ni3p/WvO2f1uz67vp+LTXw5NsCv5ZYluc+d1sDWwNfYw3shWcvPHvh2RrYGtga2Bq4qAG/OXH6inO/sU8dv26cb9jjK8cd2159DXkfIsDmmxqV8xXp/J0s2vy6dLFt/Vta2m27B9Stga2Bb70GHl14+OnUH7mBssHj87WLw4vHP5Do376YXlQvxRfrKbeneXsab+pl/6Vx3OmD3S/lzKn25NQXLG3mpedSr9fCg0La4yNjpM9H37TJyZd/Y6v3b//2b7df7wt+8qSfPuXZOubqND9hNM+pVojJP9xrPhJLWfNhLCd08mMNa5N6pxzCTb9PYkRf/GyNWT85R9+v33Zen/KXR8eQOFf71J3dL7/88i/5Blve8mCMXH6neJ3HrnUYIz/lE3x10AOrY9O25cbZ+cw8JX/jytYYtUku6l3pPOX2VM+akI9tx5g5hye8kZkT7bLt/GljnNpygUEXLsj8W2zkIfPDvHpiMI8edvARAz25GIs2tNh0TBN+2pBTuHU9p872f78vbj42H1sDb78GHl14KAQ2XTbfP6Io8JUvkJf6ZMP3wvNS2zv9u5dN2hNDv0xz3v7TeJ/qifvaFj+8hHMNOqfM5WHZQwG27RfZJFfPQ0/iMYeNHCaM5MS6YD/VKHpPLzzJs2O6w7mbN6YplqlWiOnuwmMOr+JXp+NBTr7M+wkDbuZlirHtplie+JGneH0ATB7qTnycu2onO/x2vr/77rvfYhePXKR8ilddWubNMWPjQ956034BV+R86GtjDHBpOTJrXn/5bFgLKRMXWeZe3eTbManTdXLH7UNikC+tMSZv5PCUk/r6zJw5N9mAYZ5owSPe6cJjHtDDzsvM1P7lL395jwV38cCcdJGB6d98Mt7UtcaIay88b//wljW7/V3vrYH7Gnh84elksqnycmHD9SXNhsxLFnnK3JSVgeWLoefyJUEfXV4w6ilrPo7zRcAL4Oeff37PBW584OBLhXlkxpHYyPWZvPVzarUDEz/afmi8nRdygkzcP//5z7+Lw5z5EoSvusYF1ykObOHugQkd1ttLJDnOg6EYJzl4fNTrVmxylXr0XZMJQzv8uu5TTOhlLO3f8cmHtnc4d/NwJMaffvrpX/JHnNaKfDqfE7/UtZ6VdUtush6cN8+nHMINHfRPMYqBzl0sJz/yMe58fsSVh7onPs6f2slOv8xhhy8OmKwLc8hoGSOXyxRv+kVPXeWTzSRDH7mfxIEnzyFcmE9sZD6jcJ5qA6y0w949ouX6AouP2PqkTbn6d9ye6p1i0L++P0bN8JwYP619fZE39lt8wf9OHzsw0CO/2MO3++LphxabXHPyiU/skYOBXmIxD9avv/76m6/E3P79wWhztDnaGnh7NfCqC48vFzZWioKN1w2dg75yWg+LbMgcFNy8ae2Dly9k8cAG14MgeODzErgqRvR4IftSwR4bPhz2aeXjARCZ/Sved37lJ77cP0a8mRf77ccYyZtz9F0n7Oijl2uVcYmNnfqZU2yNK+3an3NgiKMsW7H7IiAPdCcM7VjnrqHGtw5T3v3JhzERc9ZF2zK+mwfDPJBb1wVb+p1TYsqD5cRPHlfxq3Nlj84Jo+ugc9l2UyzE7vPV+vKzZZ6437179z4n2DKXPNS9y7l63U52+mUOffLFwdb9A5lrmFymeNMfNuw7vb6pQ3/Cof48CMMPDFr04Ume/KdW6KqPT2sH/dxfsZ1kYvb6Is8P2FMsPivE8ZTbU70TX3kx/7FrBm7kntz5QyJa8kP8fNAhH8Rs/Ore/R+e1mc/puapO+IhNrAZG+dLLjzga7ft72t487H52Br49mrgVRee0wsPuYcaiqlf4Cc7N37msWODzxcIfYvTOcdT60uUl0ZiN7/ESpunvNt3x9dj9ZMTMnkoP8Wr3pVNxpF6fWDQlzmX28kmcU9xpW3jwT1l2U/szH3H2xhp1/E1/t0hDn3w20fmCX8cSjzQ2GozzefBED3zjS6HKfDxnXHLnZg8tJ74pW4fap2zxX/WlnLbUw6xuYqRPCQufXNjm5dr/Thna64ybvLlnpI85Ewen6yt+raTXfpFz3ylX9cwZVO8xORag2UddazyoQXHHCjvOtE/88xRH/mDAvX5zba1c8o3/vRjKyY2yrp98vyLc8ftqd4pBvOVa/cxawZccu5z6pjWiyj+OpeMc/17TE7BBBss+uKREy426ICBjmuQF56+iPmcYJ97i7bbfnsHvF3zXfOtgX/WwKsuPGzevmgymWzOKUfPF7xtbsp9ePQFwQaPbR8SxMgXQPq370vUFwmcwG5++sEuba5462NqOy/pD/wPjTf52jdH5i7jgKN65KJfkOQTzh2LNsiNgZ88coACRxm+r2ydA4+P426Tc8aTPCaMtDM+85A+0HtyKJ58JO4dztW8ONYwbV4Cunbgj42HVsYTP+MUf4pfnSt7/VEjjQE3bNHpGNH1mdZPx9J+77hOcYOZPPTVfJTftZPdyS+6HCDzEpFcOt4738x3TpBNOMiyZujnWvhMImMt5JWx3OU7+U55yXn6+Ml9PufhAQdwnnB7qncXQ8YLH3mYj+T4JEb1wQXLvQ5bagG5FxTznrpcTPgNT+/5riU2YIKNHX3x8O3FBj105KM8fTGXWHKUs7bb/vPgs7nYXGwNfHs18KoLz+mF1/LpZUORsRHzwmQ+x9gz9mWlnvKnBZov0cRofvoBN21OvO/8N75j/i31x4g3+drP+DoOxurxgszD81Us2qAjPi9jDzAnrJMcPD4nn5l7dMgbh+jM2bQm6uGXz3RYBw/811540jb7UyxX8/DvQ2LGZK2Qb7Eb7yqPV/GLl/lSRgsPPq41ejmffpsTesxnbB2r3JCj77j96JP5rFV9UoNdR87Rav+knezaL77MC779523kCblcOt70j24eZJ2b1rtxpjwlR2LwmQQPP6wD/dSbcOTRrTUAl5wDA2zaxG4d1+0pt6d6dzE0J9f3Q2sGXNb5hx9++O3iSW5yXcm3+UKXiw4tOuaHefQc0zKPHj4SL3WwQUfZXni+vUOaa7/trv3WwIfVwKsuPL5MaFkANmQ+bM558Jn0mO8LAHb85MsXAli+QGjF9KXn3Gnx8etBgBcJ9mA3v/STNife+QKbfMsPP/r9mPEmX/v6MXcZh2tjvrDhgxw9fvqoXcYjtjJ18yf5YOZYHuJrS5t+U26/OWtDTcgdnvkbkfaXuRfXFvzXXHjaxx3OaV4cY5EXMZlDbHs9yJu1b06m/DJ3Fb/+5JEYndf22bymGNs3cSZv/GesrS8/W+Y9OCsDM3+7oXzi49xVO9m1X3LhmtHPekRuHqd403fPT+uAfutlzsTTFl1icJ+jT/1YTxnLXb7Ftu2a0KfxylVfjFvnKbenencxZLzGQY4+tGbAJW7iE5f8ZC4Y44t514Gx/uHQn3wvOJf728lXXnjIv7a0rgccuOglZ/G2/bAD0+Zv87c18PXWwKsuPCw4m7ybrYcbZPYtitRzQ257Xh58fGn4onDMnL7yRaOPbn054m/6ljZfBOkzX7zNL3m3rx5nvH6TD/5Sjt/0/TTe1NMebHIOPlw6DvWYU9dcmt+OIW2cQ7fzkDGBeYUHpljdNmfmXcPEbH+Jqb6x2WIDPocJZbTT4QK81KGfPiacxGJ+ulid5HI2xsbvZ+mKn1jWQefYcdfAkzwk5imWrA/6zV2/xCDXzjVjfDHfF560NxbaE5/UmfqTXfuFq2sDr8wVcmuD/hRL5qB1tE1u6KQNOic9nsW///3vv114Oj8Zi/nOdUy/Ux/djGni0TrwF4v8ehm74vZUzxiSk314ZLxyaL/Kp7V3rltwiR0s54gzc0nf2MF2r0mdtgELTLDxQf/0m8DMfV54mpf84ICeY9rMc8q3//Ue3nbtdu22Bl5WA6++8GyiX5bozdfma2tga2Br4OuqAS9NXq5o/cEPFw7lXG7yUnF1QcMmL89dE22bFycvPG3TPL2ApR4/gAM7Zdv/uupx12vXa2vg9TXwVV54enP3pXP3ItlCeX2hbO42d19DDeRP2HNfoJ+/PfkaYlmO+8x9rBrgosOF52PhLc7W5tbA1sDXVgNf5YXna0vy8t2NYWtga2BrYGtga2BrYGtga2Br4PPUwF546o/qbSF+nkLcvG/etwa2BrYGtga2BrYGtga2Bj5FDeyFZy88+88ctga2BrYGtga2BrYGtga2BrYG3mwN7IVni/vNFven+AnBYu5PnrYGtga2BrYGtga2BrYGvq4a2AvPXnj2wrM1sDWwNbA18BlrgG9Vy6+f3oPU13WQ2vXa9doa+PJrYC88n/Eltw/Il/+A7BrtGm0NbA08rQG+Qrq/HfA0zq+b5lvU+BbB6WujkfFV2Kl/4jP9PR8uU35NNe0TPif8le+zsDWwNfC11sCjCw+b5Mf+Stenmzi+P/QnX9i74Wf/QxftLi/pK/sf6vdkn38H4qTzKeR+FbA51scUMzJfuPm3KK6+anyqPXD8exj6y/hP9ZX1hP70h0LBA5+P2FNr3MZDmzFhg7+cty/2aT4PN/Qb98TxLgcvzTN+8C9v2lznUw6JT727GF2r9EE/133KNTrWgPP6dL3k4Xz7YNw22tLe2THvH9hUN3mDYc5dw1O8zmPTOsbJHDFNcaSOXLKO0rblrvFVXSY/sPrT69w+zIPcky9YzUF8c6H+Uz1zoD9bcZzv9bdm9KNdth2bNnLOFt324XznDB/w+/77739bY/li05xcL/HI8fQHTPFz4oAtOPJsTLG3/dea35xsTrYGvp4aeHThYUHdED/W4voS6xdH47NJf+gGjP3VZt8+XzK+ysun9Dtx5AXu4Wua/1QyDw75YsZXxu9hB5k8tOsaQH66iGgLDoeDXNeM/1RfWU9XfsBPrvrNdrInljwY4q8PwIlxN+8BhkNMxgrGxPFJDvQ/8XfOtuNxHeVywoCbOlOM4Fov01o99SNPeJB3MZUnD2UTH+eu2sku820uvvvuu/cXJbGQI7Omp3jVpXXe/CGj37Gp188P+tYGbWIzhsudfIoVP6dabn7NzXHG1LXFmBz1HtbyHhtfy10PWnWyRf60Zsxn2mefeWOjzcvR1FeXOseW/ICHnA+x9Boxj1xb+qwHdTH5YO7HH3/8v/yxUrFbTyx8iT35zVi3//Uc8Hatdq22Bv5ZA48vPJk0N1o2a+Rsmm6StGywbsLK0fMQw6brRg2WGG7GHhiZUyZOyk4v3+QKNzHkSSsX/hgb/tBxnn4eLtQVR87pp/uf0m/zwZcHiuSeMuSZQ3LHIVp9Yso8EA+y1vPFnPFycOCQgq4+mKcPt8SCe9rqI+V3BxWx4e8hEpk84GjsvVausfppn7zgnrHknP0Tz7TF31Wd3s3jgzjfvXv3LwfB9JOcPDCecpC6p/jRsc5cw7TTx1UOtJtihBsY2J94YucanPw0p6saVHfi49xVO9nBK3NBn/0PXbHoI7uLV/0p1ilHkwwM5OThp59++s2n2OQTLsyjl/rIzfddrOJpz37Zz1o+2+CJnbYpV596Tyzs2KfN81O9KY/p27V7UjNwmPiLRxxyps/HOeQ57nl4+IyzBthhM/lLrEmHZxYsMMGhFRO/2Ey88MVc4qu37T8PTJuLzcXWwNdbA5/kwuOFpV/IbKq8XNiU2Vg5bLvJ5gUDPTd7Nmn7bN4e0DyMOXdVhOj4wrGvffNBz7m00Q98je/KJ3P6yr7YH+I3c+Lhhpb8eCjQjzFk7jL36pl/5rLPGolBPOYhY9dvH7Cm+NOOfvJybpI5Zyt25kIe5KJrT7vWt56ctz3F6jztiSc5dH3xZz9t7T+ZRwd9OIGt7cTxSQ60P/F/Oo/eCcP1QWeKMetsWivr0thPfpIrtX9Vg+pOfJy7aie7zLd9/jmSa04cHuCfXniM3f3xxGnKG7rklvzTh7M5ZIycywP8rCX10Us7Y9D/FL/+3DPUzdZ49JdzyLSlj0/4yYMY5ere9lTvY9YMfOSU/Kc+eWLtrj7omJdJD18tJw9//etffydHj3yABxfrjdgZ077kwjPFs7Kv94C3a7drtzXwzxr4JBeefDGwETN2c2dzZgF6nIuiDbLu50vYFx9Yad99/PtCsK9/5R5WeMFir14fKrQzjvaVYzEST/sP8Zs5SX8dQ84RhwcuuHvISG70E6P1ci6xUw4312iKP+3oJy/nwDtdRNQRO9cneaRcG9rM3ZUf8PmkbfdP9lmX+OuDC2PrZ5pHhi9qJX9ai01ymjg+yYFxnPjnvIdMZd2eMOBmHFOM+UMD16rzlLHix99App46GTf+phqUe84re9JOdunXfl66kLGGP//882/P3yleOcuF9c5YrRnnxWk5OVGmf2oJO9eFWMyd+imjn77p554hB1p8Nfecd8+TU86ZM2IRJ3+biQx+r9HD5mPVDBzMV/Kf+uSOj3N3Y/SIH3zXybiZ48JCLPSRiz3p9J6BXV54ek3Fwjd4ct72n4ekzcXmYmvgbdTAJ7nwuIlSJPTZTPvlnC9B+7kZ+3LRXqzUuXoJZ4GCJSf7+nSTzxcqturJu/2Kl366L0bifSy/YMvpFANydWg9ZCLPA0ryzDy0Xs5lrCnP+BI3+2lLfr2IKQfv6YUHG3nmQcl1Y05c2qynKz/w5ZO23T/Z48P8Zr/t5aNuz4PfB7Y8dE4csfGScsqBfk78n86jd8LI9e4cNO/mOWFOMnnKw7hPNah+81F+10528NJv9omR2sOGftZ5x3vnl/kp/glH2fTcg+O6gNcXMbmiN8V64kmcWZetl+vRc5kzn2Ni8KKffM3zU70pZ+k/fSdHfaYuMj4pO/XJXeZ/6qOD/aRLLvktof6eXHiIBT3iMHfgK9cXuZM3fXngK+fU2fZtHPR2HXcdtwb+z//9KBeefBlknwQ7zhcK8hyz6eahjzF26J36L1k8sHJjp5/+wcqXH2NtePnyomX+JT4TI/sf22/yyxg8+PgSSz1kmW9jhWdioJcHmR6bj7RBph4+zHv71HaSg/eSC4855UXvoUgZ+PqiJVY+9K/8pF7aZ/9kn7bEn7lOe/pX84mjHTJzSsvYOVpzz3p3DaQe/RN/9cyh/pSDS0z66Oej7TpGeYnrONeKuay9O67Mu/bwNA9Zg/JvPsrv2sku/WYf/9Qj/ukTo3ma4k3f6Pe6mlPm1J1wJo7IxLN+wIOf/7yNcepNOPrtduKBDvnAR2OnffokNp8V5BzgzVnn9okeNlf7SGLCCf/U3FQz5M0cJv+pn3EwTyy5boz5MCcHfitIrviQz9R5cuGRh+sKrvjYTzzgJA9iS47ibbsH5a2BrYG3UgOvvvD42wJfdr4MaD2oOOdGyubqiwoZP/ly01WujXjY2O8XGHLtrhYEvdzY6fNiwFZuvnjwD1bbJAdi1+5z+E1u8CUO2ozBPMqTmF0zZJm3xEsM9Fwjc2IeMu60UY4etubdfKc9dlMukV8dVOQiNmOxrD11Mk51zMmVH3gmV+PKdrIH2zyjC8fkkPZX871+2iVe++ocnzDEmvg7Z3vno31i1zbJOXFdq4mnuK7xHVfm88KDn65BfU98nLtqJ7v0233qIGP08D7Fm36n+c4p+q3XORMTW3mQE3Pa+UFuzU+xije16OsjuelLro7R6ZgY+6zQZ/9wnLl9qofN1T6SmMbUOUm5uVF21Robv6nputSO9eKCAw/yAz7/9JGWD3J0+8JDXvw0p8TEFoy88Ghn63qAA2e5bbuH3K2BrYG3VgOvuvCQBDZINk1ecmyobry0bOK87Jl3Q8XGFzJyXmToscn6MhQv/9Mv88jFd6wutneLAgf0acGhlYubfL/81Gve4tz5ZP5T+c18wccYlHvw0D86/iQXXT4eJOCZsWYe0ONlzQeMtMn400a5XOCgTF9g8cmLQeqAd3VQEaexGRu7eMSmP1pzxTx+rFN15NR2zCMT985evVwDfdCaS+bta0MLz44lfRoHbeImR9cg5+lr+yTPckmM9MG8z5I65pA5PlOM2oAlT3lpx1isaa3wl/N9sBQX/2Ke+OT8qT/FAS/9Zj/jAw8u6KEjL/OVrTloHeNMbupoA/b03KgHf/JtPjK/4Dpvf6rL9N997DMW/ahnTtTp+oaPPpMz9pnbp3rYkDf92ZrLxJRj+1VO3rrunTu1mY87W/yiQ47gxbuRPth94TGv5KFxsfEShS1YeeHBZuKbPpwHW1/Ktt1D8NbA1sDXWgOvvvCcAt5N8u08DHmwOK33yt/Oeu9a7lpuDXxYDfD+82KVlwX2UuW26OYlkDH5p82LyXQZ6XXKy5WXRnTywtM2yakvn9ryw8e22/GH1cjmb/O3NfB5auBNXHjyJePLxDZfHFtkLysycpcvz83fy/K3+fo68pUHP/cNWw+hu5Zfx1ruOn28deKyw4Vpc/rxcrq53FxuDXy+GvjoF55dzM+3mJv7zf3WwNbA1sDWwNbA1sDWwNbA1sDva2AvPP///zPYwvh9YWw+Nh9bA1sDWwNbA1sDWwNbA1sDb6EG9sKzF579JwtbA1sDWwNbA1sDWwNbA1sDWwNvtgb2wrPF/WaL+y38RGJj2J+sbQ1sDWwNbA1sDWwNbA18WA3shWcvPHvh2RrYGtga2BrYGtga2BrYGtgauKwBvsjEP8XwtV3A9sKzxX1Z3F9bQS/fD/sJyOZv87c1sDWwNbA1sDXwtmvAvznmN5Jetf1tpf3V+VkrzLV+zmefr9PPr+/nMuXfIKM//R01eD7FT1/0H114IHT19cR38zqFZAan/Enr3yv4Ur9m+kP5kRcXMW/QH4qbuRXrtAafym9y6H7G3XOfYnx6oPLvUKTOxIF1Sn10MnfaIMsH1vVl/uqrkLvGxel1y+eJfuI3Jze3xlZv+oOVxmELfm+K6VMfreMfejzN595irM2T2FMPTuD5xzwZTzmYOMOv188YfUaMofUmH7n28tfeNvNELMqzzZhPvK0B5pubPH7++ef3uUps+51D46bt2LWh1Q6/yYG55A0OY+TGfIrXeWxaRx+nfIKvDvZgyZExH21bbpx3dZn85KjP5Jt69Dsf8rGVFzFknpwH47S21Lx6tugnB+TWAvqn506b0/wUh9ydM5fGki15/+WXX97HknL65t4Ysm0+uX7O6V871sN45Ng+nceGfs8nJ/2cdJxPTHDlcZcX5uWe7Z0d+XTPUzd5i2V90iKb4iU25ycdc0zbeXCsjlw6H9q23PxZ56c1S35y1GfGlHrI1TEf3aJvDLSTfuJ3jp/G9VTvFH/nJ+M0H8hO9sTWNox7PcwP68LcVJ8nH3x9PTzNp7l0jZUbi75o4dL88OOlJ3Xtgw9H9F76m6ZHFx4c4cBAdGwL4dyUlHcLRgfXOqexD9SJw8nuj5J/KD/yQn7g+5qFfBonRcha0bbNp/Tbvhxn3Mo+Vcsa+VfIs4+/rmHGfCYurFOjl6NfAAAQaElEQVRvJJ076rQ3Seym5wS5az/5Axus3jCwkeOEkZzcfKbnB72nF57kac0ru/JBXHfz6BiHmOaj10c8X/5pq022T3x3PNiTr8y7/BI78zzlsn1PsTzxkz7hcVeD6E98EufUP9nhN2vuu++++5faRSflU7zpl/nMsfnSj7onHLjyXPGhr74xwKXlyKx5/eWzYS0ow96XcPbVkytYp/0VXuDd7QtP19Y40efjmBaOHgbu4pvmsYen8Yutr/anT3Oq/oTt3NSqbz7RyXV3vnmhIye43/EwjuTwxI/68ui1TB7qTnycu2onO/y651l71DJ+xUJOrZID5VO86tMyn++mu/VPW/qsh88gHJ1HDg9r8SS/i1UfrjG49l0La4Lx1TNITqb9RnvzKj6+Ox9P43qqN8VvrtJ/8kYOR9dYfca5lsptmTc24/JSMrWJha15wpY68wdsue74Yowf8umagDX54Dn68ccf3+ujO/GSB/7BRafryhhP7eMLTwPgFOIQJWjJWCwGpZxEKaN/0tMPAamPL/X//Oc/v/fJHDjqJ35uQuDADxk28sGOxFJAyt1ImDM+5/Cvr6mVH3bMn/jkQsozff3pT3/6jRPcLCZ0+MCfeODFPDJjy3wkZsY8cUeWufgUfu/iZp2u8sY8f3Hc9WJsjs0j9pOeMZMT/Siz7YfHB5RWHVswWIN8qaZ914J2Jzl4J17Yis06ph5913zC0I4YXF9yIB9b9DIW5d2efGh75QOsJ/PE+NNPP/32UpcDcXYdg5fP7MRP+zvf6JEb6gtd7WhfkudTLhPjQ2OR01UNyv/Ex/lTe7LLOOjzTLIu5oyWMXLmwZ/iTb/oqat8splk4jPHJ3GIgfqAC3OJjczaOdUGWNrRn54d/adfuejP9vT8txysJ2srLvrpH7mxE9tdfKd54shnDj3G0/OpT/cCuZ2wne+2fTKf+TnhYWcOntau+nJ4kjN14UH9sE6Zo+Sh7omP86d2stMvc+aFMxE8GIPFHGM+8EE21Yh+xVFX+WQzycT3/Zo4yMgPXPL5AQfe5JCYpljlhR19MNCTX7bgpV/6OVb3VD/yxE/2taNNuf27uJ7qTfGnb+bJFbkkVuc6buTEnTWpri2czA24xEDczJMfMB33vOvw7t2793ro88EfrT4a66ST6wQ2vtHFL3u0eMjkBX/1lKl3177qwgMZDpk4hiTBmmAI8DFgD+WMkZvoKz10xMAXC+3BXz/49qBLPw8qiU3fueQtH/3gUzz03LiNT71TQtWDy4lP6oCDnrhTzCxy2qDPRYdWubGlz9fwh4+5/th+5QrHq7gzBvTIjfmhNVbXMeey7zoSBzb6Rcc++Pkh/9aW8pM+cvRPa5Z5FMsWWz6OaSdZzovXBw15nDC0Iw+di8a33lPe/Ylnru2VD7Du5lkbc2N+5TCtD3jsDcSJ3sRP+zvfd/biTD4yz/Q7l+17iuWq9vWdLTzMkTlLHupOfJy7ak92+sWWPocWnhufK9cQbvKa4k3f2Dz5wdKEQ/15ECLPcKEF33zwTy58ttXHp7XT64Ntyho3uVv/cFOO3zxEpByf8lNOS67MFy14fJQZy52tmKmfsTifsuw7T5sYjF1b+vJr/bvaT/3uT7lsnRPXztUdj8y3PsCwTk5+1GWeteTgl/WfPNQlj83Huat2stMvc+aL+raWwXNtrCNkU7zpGxueQest57I/4cDJ5w5eWfvUDHPsE2Kr7zPIeIo1ZY2bnLDP9zxzJ318eo5IjOzDk3ykTEzX8WlcT/Uy1varb9b46gygHdytY2WnFr+cl1j700csa6T1mCenKQfzb3/72+/k6MCf/FK7cALTXCNjznq4u/CcYrqSv+rC4yJKusc69IFkHtmpkFIv++LQKjc5JCUf8tRFB1/6tC8GfNo+x9i7yGCc4kufiZ1y+vJ5ooM+RUhscEobeOTDmvlMm9fw/5R+f/311/f5tA4yP+YmZfZzjlhdx1wrdE96OUcePRiJTwuWD2vzA5dP6tM379pil/nPftsmV+cyNmXZJh721qY80J0w0i65JjZ99NzIey7Hk4+sT33kxkdfvtN817NrAKd8cWbccgIv94CJX+riS3zl2WY+U579yUfmmf70Ask6ot858pKuL/xc6cjVnHYNivN0bdW3PdnpFz37xENfGVxSNsVLbLkW1pExWzPyoQWn5fDMOoGHuMz1IUF9foBm7ZhDfdviD7/awDH54AfdrGHmwYMnberLp+XoZL7Mq7zwc2WLvvnXX+qLY1y2xue8eZswkHVuM+/M47P3EbH1advriL010DzkQyte62T+4HH3DBKLXGxzHfXjnK28mbd+4KJt8pD3lBfnrtrJLv1mvogH38h8zynDxxRv7zkdMzbND1nLiV9Z+seWOXLGxZB84UN94lN2WjN0xdFHciJm1sZ1cQ4/yGiVidO6OU8fP+C2HKxc8ydxfWj8xpy5gpsxTFxzvmPoMbj5HN+Ntecygi7jzDXxmjvk8KMmTjroqo8e+uiC3c+wMVs/cnlJ+6oLTyfURYXwRJR5SOXinPQIdjqYgE3AYqFn8TnnpkSLr/apHhj4z8058Ygvsei7oZ2Sm9j2E0M+xteY+FQHbm4EYsGZj4vesaXNa/iDlxgf2++TuPU55S1rJ9cK3pm71Mu5tmEuP/KzvrQFO/Xopw/XJDf0zGPbJlfnwOPjuNvEM0f4TR4TRtpN8ekHvXwWlHc7+Ujc7Lct46t553Lt84VM3rL2xXMPYDzxk4f4ub7O2V7ZX+lknjuX+Ou9o2OZ/E4yOdAyb21ONahu81F+157s0q99dHlp5iUi67zjvfPN/BT/hIMsa4Y+tmDAy30UGXmSF/Vg7dzVhvnl2Zu49xqDR63Spn7ySTl9edE3r/T1nftL2065Sl938Z3mMy51Mtf5fMIJn72PaAdW8+6xexu56DnHJ7zMX/PIOMTJnE1+T360Z976QeaaJQ91m4/yu3ayS7/yJj4+cMAma95cZrx3fpkXW3ttJhxkWRf0tYOXz0JfxJLrFKs+aae89ny+H8iTflNvqoWcp0888s+5zP3TuJ7q3cWfuXJtwJ64wj1zkTF0H9y+WPRainXS9Tfo5AdO5o4x/OCb68EYOTJ01U85vr743/D4k/wMgGSRhCwkF2zSc04bF6jlJMsNBxwXBX3GJDR90k+MtGcux2nP3JNPYl/xSSxilHf6PBV36oOTxZ42iZX+7vqJkfF8bL+Jl1yv8pax5loRU2Kg59qbI8bE44Y75cF4wXKefo6VJxftwPZFo4w4taE9yZtz2tDPdWEMLodoakd+tBl36pEvPtMPEsTvgwry/kw84abtlQ+wrubh77Og34wpa8b59I1s4qfulW91zCu6ymjhwcf+VZ6bEzboZ2wdq9z0oU37Qe6HOfWtq6xB9SY+zl21J7v0ax//+PaftzGGm/w73vSrLf5SPq1345g3dLVF5nsBTJ9JdODIOtBPvQlHPFpwsIVryu13rsDDD606tNjr/0puXtNmWlsxMtfKiNGL9l18p/nMd/b10X47D+idsMXodvKDDjkhplMOmbfeJh7M5TOY+uBjw8EPH4zveDNvnWnPPsg6yQN5zuFD2ZN2iiP9Zi6QEx+HRP3Tkk98dbzpX1valPf6TjgTR2T53Jl38OBn3lJvwkkurItxpdx+1juyU0zIp/cg/n3GwZKz+LQpz/5VXE/17uLPXMmlzwByhc/E3/lsyYfrgRw/edHIvGS9oUO+iC91GOMfLLBZM+xO64Gu+uihj27zSCx8XNVCxtf9V/2GB+cWjUkgwX3hgRi3RVocQ5LgtDHQSc+ACJyNhG9wwIdYcHChwHGB5aa9PvGvXzGYUw8Mf2KlT1p5i98JdJzYJz7JGTt4pH/7+HXDSFz0kwf65jBtXsMfPonxMf3mV2lexX3KGzYZa+cRO3NHe3rRM+faN0bnTJ/qM/aTXJBhS+3oFxl21lPa5fqlXP7Kss11UY5+/yQt/bl+4vpcTPFMsesnW7DEQ/4SH+ifOIhjLesTrubUHCd/uGQ+m584V75TRx4ZY69jj9tmymXHnXWu/4wV2VUszme+zI/5Enfi49xVe7KDl367n/WIjnmc4k3fPd85Vbf1OmfoaYsuMbiPdn7y+e/10Z8t89QZLTL8Zt01L3x5eBLDtusHOXlKvMwr881dLNvGNAfm/0l81A04YuoTmXjE6Twtc1lv2PjDD/XufKtnq376op9+Ol/JFZwnPMAwP/rOdZRH5kQ9WuY9fyjHnmegcSc+2ly1k136dV1yjabzFj6meNN3zxt/rsOEkzkTT1t48bG26cPPMfHl89m1Ix4tuvlM4Tfz3PxbP7GwzXqSr7Ga18QHj/crMYD1NK6neuDfxW+ujAV+uecqn9bEuak1fn9gZYytC6454sIDZ1rslGNrX1w48smci52Y5J2YsDPf2tJaN/jItRHrSfuqCw/AOJUMAVuMKYcUHxNAiw3tlZ4FJz66yujjn6S44WRiSaq/YjOB+p8w0McPCydexzctVCc3sa/4ZNyJq9wFZ46PX9bAPB8XHf+ZWwokHwjxiC39NO8cy/tT+D3xUZ5xy/m0jrn28Gd9sTcn1CKbEziuPXP4Uo9xP1TMI+eDD3JNq8w2864MP53nxk/f2tEiP80x32uLzLXq+IjZT2Kq75wtMTdP5vLyJFfwtLN94gNd/Mgh82x802avvjE2z3wWwLniJ1b7NjZbn2Pjm/IAhvO0mQM4TrFkfdBv7voVa4olfTFvXuSePpSd+Dh/ak926Tf75CRzBRfmwaef+bKfOWgdbZMfOmmDzkmPZ/Hvf//7b3ti55d6cL9/Uhv4ydpJvv3cM8cnuWe/67hjYNz2jNtPYl7V5F18zrsutsZ7qgXt5DrpqSNmtuJnHPTbZoqbHJ2wJh7gZg6x77zrFz376cM+vJm3fuTfNab8xMf5UzvZpV/9mceMD8yso86XsWQOWsd1TX7oaKP/kx7P6l//+tffnllzqj7xeWaZYk2/+OK9jp7y5Jv7AvP40I/62TJnDmgn3cTPvQ0ccq7Pq7ie6hEXPpITff1mroyj/SonFrkpu2vT//S8tb0Xnl4X4jWX8COH6NCHE21ioas+euijAx98pK799KEMDGwdn9pXX3hOgF+rnCQ+WeivNb5vhTdF7wPUMffD2fM5zgcx5dv/52+6Nhebi2+lBngB+0O9q5hPL/Yrm53b52hr4L4GOKM9OdTuM3ifS+qNfHrBygsS+eMs7BytZ2PORTnuNWF8On9Z43m58kLHXF541LVtTvhxjpZ5fvGSsqn/zV54SC6L7KJm4qdEIeNhU7/bXoATxsqfPYyvzdPVhQfMJweXJzqv5bd2n3b9N7/X+e19L/exJ3vgt5zfJz8EYf/Zd8F1DX7LNUTseeDL549+Hjy/9TxN8T95vp7oTNgr+3qfW/bcJ/vuN3vh2eL+eot7127Xbmtga2BrYGtga2BrYGtga+BpDeyFJ/4z+tOkrd4+YFsDWwNbA1sDWwNbA1sDWwNbA19HDeyFZy88t//ucR/mr+Nh3nXaddoa2BrYGtga2BrYGtga+Nca2AvPXnj2wrM1sDWwNbA1sDWwNbA1sDWwNfBma+D/AzdXpvRbJsTdAAAAAElFTkSuQmCC;" vertex="1" parent="1">
          <mxGeometry x="-1353" y="1719" width="504.26" height="162" as="geometry" />
        </mxCell>
        <mxCell id="YHl6wFyylG55uKDNE_g4-26" style="edgeStyle=orthogonalEdgeStyle;rounded=0;orthogonalLoop=1;jettySize=auto;html=1;exitX=0.5;exitY=1;exitDx=0;exitDy=0;entryX=0.5;entryY=0;entryDx=0;entryDy=0;" edge="1" parent="1" source="YHl6wFyylG55uKDNE_g4-6" target="YHl6wFyylG55uKDNE_g4-7">
          <mxGeometry relative="1" as="geometry" />
        </mxCell>
        <mxCell id="YHl6wFyylG55uKDNE_g4-6" value="白名单开关及校验" style="rounded=1;whiteSpace=wrap;html=1;" vertex="1" parent="1">
          <mxGeometry x="-1485" y="1745" width="92" height="41" as="geometry" />
        </mxCell>
        <mxCell id="YHl6wFyylG55uKDNE_g4-10" style="edgeStyle=orthogonalEdgeStyle;rounded=0;orthogonalLoop=1;jettySize=auto;html=1;exitX=1;exitY=0.5;exitDx=0;exitDy=0;entryX=0;entryY=0.75;entryDx=0;entryDy=0;dashed=1;" edge="1" parent="1" source="YHl6wFyylG55uKDNE_g4-7" target="YHl6wFyylG55uKDNE_g4-5">
          <mxGeometry relative="1" as="geometry" />
        </mxCell>
        <mxCell id="YHl6wFyylG55uKDNE_g4-27" style="edgeStyle=orthogonalEdgeStyle;rounded=0;orthogonalLoop=1;jettySize=auto;html=1;exitX=0.5;exitY=1;exitDx=0;exitDy=0;entryX=0.5;entryY=0;entryDx=0;entryDy=0;" edge="1" parent="1" source="YHl6wFyylG55uKDNE_g4-7" target="YHl6wFyylG55uKDNE_g4-8">
          <mxGeometry relative="1" as="geometry" />
        </mxCell>
        <mxCell id="YHl6wFyylG55uKDNE_g4-7" value="获取活动配置" style="rounded=1;whiteSpace=wrap;html=1;" vertex="1" parent="1">
          <mxGeometry x="-1485" y="1820" width="92" height="41" as="geometry" />
        </mxCell>
        <mxCell id="YHl6wFyylG55uKDNE_g4-8" value="入表&lt;br&gt;" style="rounded=1;whiteSpace=wrap;html=1;" vertex="1" parent="1">
          <mxGeometry x="-1485" y="1889.5" width="92" height="41" as="geometry" />
        </mxCell>
        <mxCell id="YHl6wFyylG55uKDNE_g4-9" value="&lt;meta http-equiv=&quot;content-type&quot; content=&quot;text/html; charset=UTF-8&quot;&gt;&lt;pre style=&quot;background-color:#ffffff;color:#000000;font-family:&#39;宋体&#39;;font-size:11.3pt;&quot;&gt;SmsOperationCustom&lt;/pre&gt;" style="text;whiteSpace=wrap;html=1;" vertex="1" parent="1">
          <mxGeometry x="-1387.9955172413793" y="1883.999655172414" width="164" height="58" as="geometry" />
        </mxCell>
        <mxCell id="YHl6wFyylG55uKDNE_g4-12" style="edgeStyle=orthogonalEdgeStyle;rounded=0;orthogonalLoop=1;jettySize=auto;html=1;exitX=1;exitY=0.5;exitDx=0;exitDy=0;" edge="1" parent="1" source="YHl6wFyylG55uKDNE_g4-11" target="YHl6wFyylG55uKDNE_g4-8">
          <mxGeometry relative="1" as="geometry" />
        </mxCell>
        <mxCell id="YHl6wFyylG55uKDNE_g4-28" style="edgeStyle=orthogonalEdgeStyle;rounded=0;orthogonalLoop=1;jettySize=auto;html=1;exitX=0.5;exitY=1;exitDx=0;exitDy=0;entryX=0.5;entryY=0;entryDx=0;entryDy=0;" edge="1" parent="1" source="YHl6wFyylG55uKDNE_g4-11" target="YHl6wFyylG55uKDNE_g4-13">
          <mxGeometry relative="1" as="geometry" />
        </mxCell>
        <mxCell id="YHl6wFyylG55uKDNE_g4-11" value="定时任务" style="rounded=1;whiteSpace=wrap;html=1;" vertex="1" parent="1">
          <mxGeometry x="-1636" y="1889.5" width="92" height="41" as="geometry" />
        </mxCell>
        <mxCell id="YHl6wFyylG55uKDNE_g4-29" style="edgeStyle=orthogonalEdgeStyle;rounded=0;orthogonalLoop=1;jettySize=auto;html=1;exitX=1;exitY=0.5;exitDx=0;exitDy=0;" edge="1" parent="1" source="YHl6wFyylG55uKDNE_g4-13" target="YHl6wFyylG55uKDNE_g4-15">
          <mxGeometry relative="1" as="geometry" />
        </mxCell>
        <mxCell id="YHl6wFyylG55uKDNE_g4-13" value="入表&lt;br&gt;" style="rounded=1;whiteSpace=wrap;html=1;" vertex="1" parent="1">
          <mxGeometry x="-1638" y="1967" width="92" height="41" as="geometry" />
        </mxCell>
        <mxCell id="YHl6wFyylG55uKDNE_g4-14" value="&lt;meta http-equiv=&quot;content-type&quot; content=&quot;text/html; charset=UTF-8&quot;&gt;&lt;pre style=&quot;background-color:#ffffff;color:#000000;font-family:&#39;宋体&#39;;font-size:11.3pt;&quot;&gt;SmsOperationRecord&lt;/pre&gt;" style="text;whiteSpace=wrap;html=1;" vertex="1" parent="1">
          <mxGeometry x="-1651.9958620689656" y="1993.999655172414" width="164" height="58" as="geometry" />
        </mxCell>
        <mxCell id="YHl6wFyylG55uKDNE_g4-30" style="edgeStyle=orthogonalEdgeStyle;rounded=0;orthogonalLoop=1;jettySize=auto;html=1;entryX=0;entryY=0.5;entryDx=0;entryDy=0;" edge="1" parent="1" source="YHl6wFyylG55uKDNE_g4-15" target="YHl6wFyylG55uKDNE_g4-17">
          <mxGeometry relative="1" as="geometry" />
        </mxCell>
        <mxCell id="YHl6wFyylG55uKDNE_g4-15" value="eventbus" style="rounded=1;whiteSpace=wrap;html=1;" vertex="1" parent="1">
          <mxGeometry x="-1482" y="1967" width="92" height="41" as="geometry" />
        </mxCell>
        <mxCell id="YHl6wFyylG55uKDNE_g4-31" style="edgeStyle=orthogonalEdgeStyle;rounded=0;orthogonalLoop=1;jettySize=auto;html=1;exitX=1;exitY=0.5;exitDx=0;exitDy=0;entryX=-0.006;entryY=0.3;entryDx=0;entryDy=0;entryPerimeter=0;dashed=1;" edge="1" parent="1" source="YHl6wFyylG55uKDNE_g4-17" target="YHl6wFyylG55uKDNE_g4-22">
          <mxGeometry relative="1" as="geometry" />
        </mxCell>
        <mxCell id="YHl6wFyylG55uKDNE_g4-32" style="edgeStyle=orthogonalEdgeStyle;rounded=0;orthogonalLoop=1;jettySize=auto;html=1;exitX=0.5;exitY=1;exitDx=0;exitDy=0;entryX=0.5;entryY=0;entryDx=0;entryDy=0;" edge="1" parent="1" source="YHl6wFyylG55uKDNE_g4-17" target="YHl6wFyylG55uKDNE_g4-18">
          <mxGeometry relative="1" as="geometry" />
        </mxCell>
        <mxCell id="YHl6wFyylG55uKDNE_g4-17" value="活动有效期&lt;br&gt;用户触达时间校验" style="rounded=1;whiteSpace=wrap;html=1;" vertex="1" parent="1">
          <mxGeometry x="-1344" y="1967" width="102" height="41" as="geometry" />
        </mxCell>
        <mxCell id="YHl6wFyylG55uKDNE_g4-34" style="edgeStyle=orthogonalEdgeStyle;rounded=0;orthogonalLoop=1;jettySize=auto;html=1;exitX=0.5;exitY=1;exitDx=0;exitDy=0;entryX=0.5;entryY=0;entryDx=0;entryDy=0;" edge="1" parent="1" source="YHl6wFyylG55uKDNE_g4-18" target="YHl6wFyylG55uKDNE_g4-20">
          <mxGeometry relative="1" as="geometry" />
        </mxCell>
        <mxCell id="YHl6wFyylG55uKDNE_g4-18" value="入表" style="rounded=1;whiteSpace=wrap;html=1;" vertex="1" parent="1">
          <mxGeometry x="-1344" y="2042.7" width="102" height="41" as="geometry" />
        </mxCell>
        <mxCell id="YHl6wFyylG55uKDNE_g4-19" value="&lt;meta http-equiv=&quot;content-type&quot; content=&quot;text/html; charset=UTF-8&quot;&gt;&lt;pre style=&quot;background-color:#ffffff;color:#000000;font-family:&#39;宋体&#39;;font-size:11.3pt;&quot;&gt;reachReqRecord&lt;/pre&gt;" style="text;whiteSpace=wrap;html=1;" vertex="1" parent="1">
          <mxGeometry x="-1501.9975862068966" y="2039.0006896551727" width="132" height="58" as="geometry" />
        </mxCell>
        <mxCell id="YHl6wFyylG55uKDNE_g4-36" style="edgeStyle=orthogonalEdgeStyle;rounded=0;orthogonalLoop=1;jettySize=auto;html=1;exitX=0;exitY=0.5;exitDx=0;exitDy=0;entryX=1;entryY=0.5;entryDx=0;entryDy=0;" edge="1" parent="1" source="YHl6wFyylG55uKDNE_g4-20" target="YHl6wFyylG55uKDNE_g4-33">
          <mxGeometry relative="1" as="geometry" />
        </mxCell>
        <mxCell id="YHl6wFyylG55uKDNE_g4-20" value="活动规则校验" style="rounded=1;whiteSpace=wrap;html=1;" vertex="1" parent="1">
          <mxGeometry x="-1344" y="2116" width="102" height="41" as="geometry" />
        </mxCell>
        <mxCell id="YHl6wFyylG55uKDNE_g4-22" value="" style="shape=image;verticalLabelPosition=bottom;labelBackgroundColor=#ffffff;verticalAlign=top;aspect=fixed;imageAspect=0;image=data:image/png,iVBORw0KGgoAAAANSUhEUgAABBkAAAGvCAYAAAAe1A09AAAgAElEQVR4Aeyd2ZEcua6Gy6l+qDZGektLpOeSGRoHyoc7MR6UCWfGhrwBkCABEFxq601/R0i5kSD4cQWSyTr89+//9tm/w+FgwvjrWfy3ev7R9Orp4+/767fi5dP5KHqQXiNd/DN/7fP1VtcfRQ+fX6/X7NrHf6trr9dbpevTIT38Px3G6+mvddi3PP8oevg8e71m1z7+W117vd4qXZ+O1+Paay/vra69nm+Vbi+dnj7+vr/uyXv2/Y+qh9drdv1sTj35Xq9euLe+7/WaXb+1fpKe10vuv9Wxl76/f+31e+v/UdL33EQvf99fS7hnH98rXcnXKP1rno3CSlrPOL5XupKXXvoHCTA6+sj+ehT3LZ99NL16+vj7/votmem0PoseXk9/rfP0lucfVQ+v1+z6LZnptLxe+tl7nUc6+Xv++iPp+h66eB7XXr+HzpSm1/Oj6OH1ml1/FL3fS49ZWYLf+MXSjM/s+XuVu9frvfTQ6UY6+Xv+Wsd/y/P31qOXvr9/7fVbMfR6vVW6ks4s/d5zf99fi/xnH98rXclXL/3e/V68WXiJ9+jje6Ur+eilv+RkICEkQP6JUH/sJSLhvvpznU9hJUd6pvMv9/09kREdddiv+FzypNnIOT3T+Zf7/p7IiI467Fd8rvM04zN7rmXJ+Z/Ej/LsGen8+2cSXlhFRx3/Kz7XeZrxmT3XsuQc/OqKQvC7zlCmOqTrD/jN+QmjqP3JM89UwkZHHfYrPtd5Ej7+nlzLc81En0s4ffyqzzULOdf5pnO532Mwey4yvFx93ZMtYT7qc513ORed6Sj39FE/92H8M7mm+HIeHT/rc81FznX+5J4+6ud0PnomYSmMnEfHz/pc513Odf6WnQwU6bNCkAw/W39Jp3d8dvqfXX6Pm9z/7Pl7tv7CqXd8dvqfXX6Pm9z/7Pl7tv7CqXd8dvqfXX6Pm9z/7Pl7tv7CqXd8dvqfXX6Pm9z/7Pl7tv7CqXd8dvqfXX6Pm9z/7Pl7tv7CqXd8dvqfXX6Pm9z/7Pl7tv7CyR/hZFB7UtxbCB6uv75X/leP73n566+e/3vz53n563vlf/X4npe//ur5vzd/npe/vlf+V4/vefnrr57/e/Pnefnre+V/9fiel7/+6vm/N3+el7++V/5Xj+95+euvnv978+d5+et75X/1+J6Xv/7q+b83f56XXMPJ8EAnw72FhPhfczlRaWxfdLkU8peWHqP9ov1KW4iOqB+oH1G9kHuoH6gfUheiI+oH6kdUL+Qe6gfqh9SF6Phe9eNACeMfGKAOoA6gDqAOoA6gDqAOoA6gDqAOoA6gDqAOoA7cXQcij4fc2+/4O2+H/bCdnYTLfjoe9uPp4u53Ls/bfjhsu5Vy3jdyjDSynQyKezztiymZyJdLEOty3s/N7SA/l9N+Op3245Lz5rgft62Vm9Nihh05x9N5Px09G5MNXIAACIAACIAACIAACIAACIAACIDAmxIYfi5xsyaXbGSTkS/n5Cxgp0F2EJT7E4eBcxZcTsd95l9gvc+bdWbo9Jzh7p0eXeO+SZicDN7QP+/bsnODHCY+PmmfnBdNcqpAio6jQCo8TkEABEAABEAABEAABEAABEAABEDg2QSe4GRQRjYZ9mJw07kYxM5x0GbyvG/bllYsZIcARS2GdXESRAZ6luadDLvSqyQYOQkonePuF1to5wbrwXmJ4kfpZN0l/yX9npOhBGhPsrOkEdWGxB0QAAEQAAEQAAEQAAEQAAEQAAEQeFMCNzsZ+A2+dhyw2tXovpw2NtTPJ/pk4bKfNvvpwvlsP4Kwua5y5D4Z9sawbtJOIVtHBH1TQ06DavxTmLR6oU2HpBQnAxv0yeGgnQz1PIpf0xHdk0ynPz9cdzJczue0KkScNlo4zkEABEAABEAABEAABEAABEAABEDgAxC40cmQDelmtYDOERngybBmo9ztU0ArFdKGEtFqhNZ4X3UyFA0a3arxX5wI/FlCm355Tk6GbNRXx8K+1/NWz11WTMinIWXVRbuByHZedzLsLK/VteQXJyAAAiAAAiAAAiAAAiAAAiAAAiDwzgQOP7+97IfDt/0v9VOO040f8yqCamzbXPBqAlp2cD67TRttODKc/X4IKURyUEx3tTRLG2ay39jJ0KjTfoLBDgm9J8OF1nx0/kJW5KQ43LzBZScl3AYBEAABEAABEAABEAABEAABEACBmwjwSoafL+tOhvBzBGfsG+cDf3Jg3+IXx0JoOFM+2hUCSysZgrTEUcGrBnhVAsmmzSPJnG/TodQfspLBFEd2mjhOjZOBVkEMVj5IXuoxr2wIf/nCKIALEAABEAABEAABEAABEAABEAABEHg6gaudDKxRdg4UY9yp2TgZinHtjPqhk8E6Jqphre4XuU4BuvSyy6cPyclw5E85nD5ZTMlXXrFBt3We6nkUv66YKFpJ2s2Gl9d9LlGcM0UwTkAABEAABEAABEAABEAABEAABEDg4xB4GyeDeTuv9hXwjoDCpTXUm5UMJWx8Qo6AI69YyM/lUwR2HJyCn56scoqTQelXHQvplyKSf2PNyVDkURJmbwU4GSp1nIEACIAACIAACIAACIAACIAACHx2Alc7GW76XKKsOHBGuTLiGSQ5AIxDQq1aGN73+x3UdFjfkr6sSKjP6ZOJM386UYtSfvmCnQOnU/NzltXhoeVIfOsgqWHleXJSpFUJcDJUKjgDARAAARAAARAAARAAARAAARD47ASudjJQhnmVwIkMbG/cJxz6rf/eOA5WVjK0WCNjvQ2V7/BqBfmJTO0IEAeAvnfZTycJqyQWGRS2t7miliNxcxr51yWUf0MC8F4QF97hEU4GBQWnIAACIAACIAACIAACIAACIAACn5zAwe51YDeA7OUtGfzJQI5+DcE4BC6nPbLhWbZfydBLkL8ySD+HOQiSH13203Zqf6XBfKagnQNBeHIw5J+ulPTIcXLQvwTBD7QcCSmODLkeHWdOhsuenBHBHhMjsXgGAiAAAiAAAiAAAiAAAiAAAiAAAu9AgFcyyE9W+mNPn9Nx28/lTX8byjgZ2sc7PRfnxupmhjOZnAzpdNCrK/IqBPrUwi0pSE4D0UPi5PDOwSBZOG95FUZepcB58GFZB5G7clQrOyShclT6H1adLCUyTkAABEAABEAABEAABEAABEAABEDgTQnc5GSYaXgpr99nIfEcBEAABEAABEAABEAABEAABEAABEDgqxB4ipPhq8BBPkAABEAABEAABEAABEAABEAABEAABNYJwMmwzgohQQAEQAAEQAAEQAAEQAAEQAAEQAAEBgTgZBjAwSMQAAEQAAEQAAEQAAEQAAEQAAEQAIF1AnAyrLNCSBAAARAAARAAARAAARAAARAAARAAgQEBOBkGcPAIBEAABEAABEAABEAABEAABEAABEBgnQCcDOusEBIEQAAEQAAEQAAEQAAEQAAEQAAEQGBA4HM5Gc7bfjgczL/X7dd+GWSweaRkvP66KiaL+vVq0y/6bOcmqa984/LrNZfD634Dxq+MBnkDARAAARAAARAAARAAARAAgT+WwOElG+0v337v//z7v/0/9e8jUiHjtjoHLvt5O6jrdY2tnPV4FPLX67Ybl8Ll1/76QCdDI/869d4k9D383kRBJAICIAACIAACIAACIAACIAACIPDmBA5//Z0cC3/9eNm//15wMlzO+6be5jcrCc6/1PPXfftlzPF93y/7r03egh/21+11f339lTJOxjo7Perb8fLGPIdpjFtl4EtYsffJAUErDapTovJt5MijWf6UkyGUsZD/s8r/4ZV45fyW/NvVEpKfDMnye/1lHB46z+dfW+JpnCJ9/sKvrM5Qq0Y8wzDvwhBHEAABEAABEAABEAABEAABEACBP5JA+Vzin0Unw69ts58nkFG+ZScBI7zsF/UVAhm92khOxum5yLjQ5wviZKD45805BS5m5YAxbi/07LWRr9Nr5aVyNnJU0c/zRysZqhPAG9/kRBnlnxwM21kBIn6H6lQhVUYrGSi/5vMEdoq4T0b4k5BXXl3BulzORacpf8VidNrjN4qDZyAAAiAAAiAAAiAAAiAAAiAAAl+bQHIy/P620+cS+lMJOm/+Om/aDwf1+cBFr2Q47K+v1smw724lBL1lVzY3r3TQb96d04GM2/qm3RnstE7il3U6XOVkWMmfcgKEhvYw/5R37ZBpCPONrpNBrdrQMclxYRwPjpkOO+Jv2VZHSrQaJMy7TQhXIAACIAACIAACIAACIAACIAACfxiBwz8/vu3ff/xf42AInQzsIBgZyfmtvPIaNEa/Bny57JdfbiUDPS9Gsl3FQI+0cUurIF61Q+JeJ8M0f0n5rhOA4tOqhG7+k5PB+FQ0j3zelf8QJ4NKsMdfBemd6nLohcF9EAABEAABEAABEAABEAABEACBP4vA4Wfek+E/Ws3gnA0RCnpr/trss5BDkhH8utWl+Xl/Av35Qvq8oZrZ7CjQAVhUci78oj0FzCt662SgoGTsHlR8bfxezmmPBy9D4kX3h/nL2Rw6ASb59xtVXvIeECoL/AmIZJucMK+H+onK6ucSUd5I/TX+OaODg+Y8CIZHIAACIAACIAACIAACIAACIAACfxCBQ/304LDkZKDPGcgQL/Fe87f/GRob/XnDQNoU8syfN9Tl/GSgbya+/1wiC+J9BdRnGHRb/fxk3ceBHBKHuq9DNtpZP1rlQCslyuaPtNLAfgaQ8qHTGedP78dwcHspkIqz/PuNLw+0x4Ja+cAyaIWG6Bl9TqL40aaZdWvNOH/WgbHIPxdD7wAnQ48M7oMACIAACIAACIAACIAACIDAn0ugbPzo92OIP5d4Q1Dlk4k3TBNJLROAk2EZFQKCAAiAAAiAAAiAAAiAAAiAwB9D4MM5GeQnGNMKg7oC4o8pkU+S0bpiA2X0SYoMaoIACIAACIAACIAACIAACIDA0wl8OCfD03OMBEAABEAABEAABEAABEAABEAABEAABJ5CAE6Gp2CFUBAAARAAARAAARAAARAAARAAARD48wjAyfDnlTlyDAIg8GwCl9N+lM1be8fjaa+/syMKXfbTFt2X5/mY5R9PrYT9ctpPW9rwNn12duBf4LmcjnXDXtLpeNyPoQ6UxmU/HVO8kjJtvNsNX0ItnASyTaz0XG9Yax4/8OJyOqmNc3uC04a6IetelNl9Kr8wg5fy60y80XHmfTmfc115gi4zXfEcBEAABEAABEAABK4kACfDlcAQHARAAASmBMiIHBjkZPCHNiYJZgeC+sWb7FAoDgN2ECRHxOUSOxkaA/a87Y2RHN2TjHX0Z0dFV/F9t/pc9rP75ZwknpwIxz3yj0jy+07GNIXJDomeo+ZwsBx7rKL7h8N+PJ32bZCfVBzH/bCd9tOp/o5P1TM407+C1NOb6sZ5s7pnUbQvEZdVKR/lWCDZE30DjXALBEAABEAABEAABN6UAJwMb4obiYEACPwRBDpGrXYUjGzF86aMcJI1CuyBRuGLwaoCR/fy4+QEmRv4nB+lm924l34uWOWjJD1wMjC3FOd8nhn1ZHwrZwzLP1unQcnjed8GTp+imj9hfXIaRZYPNLse5DeKKuWX0ztvNY+mXkRxcQ8EQAAEQAAEQAAEPgABOBk+QCFABRAAgS9GgI1TMrL7/5RtPs68GJ3jUPVpFD4ykKN7LOVGg5wXYagVGqTHcds3+uxiwMF+gmHTtisjKIHzXhdHPNvJIKspNNpjuyKkPu6ckZOhOgo6geonKj1WtJoiZBk5cvqp4AkIgAAIgAAIgAAIPJvA7U6GPImOluDK2y35BrgJ8+xcjeTLUtbtvN+k3yy+POeluMFS5pFu7/xMv4WkMhM+XJ7H0wO0S8t+i8HxEJlKrVwni3yarNPk/g2LITYC3LftSuUPdyr191ntw2Q414dH1wOThrt4q/yxgd3fW0H2ApAja3kmA7ru5VCcEOpeqttUp2s4a6TL5xYTwz4bslHfnNp9NVx1v2DaFrcvm0eKa/QOVw+M3uxbJ0OYdkmg42QQvXJZpzy6vifnP15pQaVRdbycNvNpR+Kz4jSQuhfpKc86R6mnpKfkl5xC1C5zFNKjKT+Jd0P7Tflyn5901HvM7aD9i/5PGz8vO60GkXp83E77WdfZqzIW6H9V/CCw5P+G8gukXXnLtZG37Jev1DQMrvpEbjLC0n9SFUa+5WZQ/irNpm3ekoSPI/IH9YP7zCWnpheOaxAAARB4LIHDz28vacB9+bb/9ff/9v/+rf9GSYUTHIqQO3ruYHOHKHOkkbw3e3avfovxu3wWMrr21mtBUCfISH67HDdN+juibrtNDI8nnuyNv8uOxY/0583SdIXjtK4xCOI0r7nb6Ec6aJ2uERaEbeQHYW6+tVi/u/Kvjv+E+tVV7gH90zB/bpJeDNmZwS/1Uwxs9+a7qT8SrpPRJvy+U7toJr3RPY5Lqw+s86CTUnNbDFUx4pID5LyfTEOvBnwjgPZiUGmTPN107DXxFnZZEm16SV9ZNAysXA7dhKkyjuYzD9I375MgClNcLl/aPFMcMjeWv84gq057QJxrmdE4SqsYaENQckRlHciYcFHvHn8tX8nsM4+pXHwKpEdTX32gG67T+CZuGoKdyrbhuCw71n85ug+Y69W7zp9IhzvGZ5+lR1+Pxr+m/nLbkRbzaE1IXlz+z6q/q/PrsG94RvYhEwRAAAQGBA4/f/8fOxb++f1tP3z7/TAnAw/a7GSQCRjNf9IbhOO21Z3Xvcf1fFLLa4/7VjbbEq+xLL/d9jNNkmmip2VcqNOvk3p6U6GmFGUSFulXOV32jSeQbgJLAfIkYBw/5TWcJHXzV2WXCXo2UswEaJY/egNn3tSkHeQ5b2ViXPlQWlr+3MkwkM98JvzzJFr4VUYL5bugf+NkyOmVdJb4t3WWjKX0N8n/vpel0eFEY5R+KiTzpo3S3cSIWcm/L3+aLGbN6SBvhonH+RS1n2Q8Sfn03/Qqofp01j5M/SUD0k3SzPPD3rRfn79N1W/Ww76pNPzo+Uy/LOO+9p/yVPodSnPbuE/Z1K8+pH4w6GP4Lbq6fzntmzHSnXzNX/KoGzXdixwKzT35ZQstPxlhvk+q10pP3bZFj+ww4L6/OA+uczLUtFK/VbMWOBnECGfmpuYb5wUja8Lk9lH05FD5P82k3l+azOd0zKqVKkKdpT6w9lVqY8jzKa2mECcK15HaTxUhlJb06W78LWEGJ1RO20kcKG5spXiD/mtpfDftO2j/Wbew76RnJn7bPwz7t6C8WxSuf3f9p00/0H+iX0rvtvmF8JX6r/Na8+H09/3jgn5cB6jpmP5hYXxmJVz6it9Mf3nenR/mut3vD9K8S/iwOt7J8JnrL2VosX2XMqwVA2cgAAIg8OYEyucS5GR4eYSToewKLh1iOwnVS9jJqC2TKs6++gmvbBSVQYM72DSxoiWsB3qLdaGxsL7top9uK5N7kkeD6iYGIt2gwTJPzlie1S+VwGASsBR/4GTYB/lLiRcjNV+awyx/NLgcT2pJLQ2yxUBOokZvAmZOhpn8mX5pGbKU0cVO/BfKl3Iw0j9yMth7E/5mYkWpkUFU68gs/0m/6sSxdTvJ0z8I4I2UVJdVDab6K/WVok/y3+zaz5NK52jLxgcvvaakLuf6s3mL9TurEhyUvk37IkNNf76SHQKqfs7qz4z/nN9IP8nOve2f0qh1gCfFuRPTmxmmvKiyluSDOlf6QA4TG7wlOpevS9/rk69N/RRDlupAaGiXFLonlKeiK5V/kaPfGF/nZCjyeEhR8rmu1raZ0OSf2eS6JwwoTJAnCmOFp1UQ3dypB+LMULd6p7Wc/YoOF+NyUWNX4mXKh4OLjCA/+XnpL5r259ILLklXGVfpMbUnq8O4/+T4qo3b+KTzuP2LSpWZ3EnHWf/AoXr9W9O3W9l0Ne4/5/ov6bff3r8QF11lrSNA5h398X+uXxrvUq90/fg85hc7AXT9GtefXAfUeOxLkOO7vk7Lp/F8NP6O05+Xv+hDcmy6Wffp/DQ5d8i5f8/4TOmbeiKK4QgCIAACb0jg8B+tYKBO+eXH/o/6VII+m+j9kYFPy0lv+da96fz8wE9v7fRKhKN6054nrawXTSRyL1pkmomlTDDp6CaivYw98H5vkCFPdDd/OX1t1BqVlvJHA2HNO2285supKz9PKs1L0zw5r3oM5K/oR+WtRr9kFGbps/Kd8aHnql4UnfW9Kf80ySrvQH39ZB5rfMM6MEyf2GqHWMmBOemWH/FTbCUSMTZl2uRJQj75GKWry3yl/gz5r/F7ci6pEnadDPQmOJUFhen1S7oO6nPRPOUzck9QiLDeReyje5yEk0/hjvU7dvMmsTgRkm6lL06KKCcDKSZGNOXJ1ckUPbFTMo28RScDT+6bthCUCY17QXsJy88ZLtpxVFQPT2w561+KaIMTl9q3kG6U/8Rb6kpebaL7tFbQzXc8b2/EzsavYfyovun2r7QmOY2RttQ/pDGgiUuyo/RVmvyWOKgPpf+M4mv9V/XTaV55PuTLsqjt1jpkxv8V/SiPisFV4zPJV3Ela4Vf037bMpnnb/ySYRp/OP5OnCCz8pcM9/rgFf4kI0pHyV46JRlP29dkSQMEAgEQAIFdrWT4sb98+3H/5xITqONBgCZkx/2krGITnjppMcLUJKuG+ShGRmeiz8bHIH+ZXdeIZANrboSWIqBJPa34EGZT+enNlTFINfMiOJ808uf8ZYmnMVRkYqLTCss3pdvnkwZobzhQ/UiTzkn9kvyVQT4y8CRQNpqu4jtL3xl3Kil92s0/8ROWKoKe5PHtkj8V6C1Oo3R1md9dv9f4PT+rTo9SLuedVjJs2XgMiiqrpurdWS2ZF8Uzs56Twa+O4WgR++heCmxXMvTCBfdrX8wzbetkEP17S/2DtKP+onKzBrzJZ2Euiboykds3HEmn0IgNZNW+Jz9s9Aoi8TghToW2TyaZV3/GFCUT3DPlR89NGc/6rycbaav9g9FZZTK3G3XHnnbKpvSfkVwjM9UxK/SxV+PycWm99fg84/fuToZPXn9d8Y4um3oyCoxnIAACIPAkAgfZ7PGf3z/2l8M3s5phlCZ1YqsTLS2n6fz0wM0D9laWs13y93NlUqkH9I4RShMC+lzgvr/RcsY1ySGfWf6yaP2WL60akc8L0oRzlD+Ku2knDfEtAFMCI/mktzbS/fVM/ph/NNFXBtVC+VIORvrTpFjrn76hzRP2Rf7yicSJVuwYj0tKe863Ggimtiyk7w2YS/6GVhfhKP/6Gafd+VzC58voObsgxt23wKPIVP56ZU37ucS4/sz5r/AbaZie3dv+Uz2nXeuNM01WLvg66hTiPpL2bqB9HHTBS7jcTmInQ37TLWHlqPvZ0T1+5tppFJfCBfcbp4BalSDJpva1tpLBv/mnjQ9rvidOhrL6gNJyearKXHXm+8Nh5F450/2Qi5ZGectvpF1Y1sF9QqVjTs8H7Zfrnh4+dRkv9F/D+OwkGLd/0Z3kRH3UrH/g+FpnEZiPKX6tQWl8qEvLx/3n/f1XUuP2/kVzofmRf1tN+o/GpzG/qI1cNz6P+dmXL5H+4/qT6Ok0/PxoGP8L1F9XnbuXDQcdctD+dTCcgwAIgMC9BA7fX/JE5uXb/vMRvy4x0Ig6Ppl089xZOju1rEuHoU3f0kQ9TxJl0kWRc1yaiEicNB/3G7/lb9sGerWPZILXMRbbCPmOxKvLFVN+qxzRle7b/FWhF5okSV6NUUZhxvmjt9yb2vhR738hKVwjn3RUUzLen2Asv6MfDfCSpzJB7vAali9tIdDhY9KQCbqe1KZJjtTBHn/mxPWrlpuwm/E1y51LPiX2Svp246wDLStXTiOS1M0/J2Pj08qfajPEvFO7qTrOzpIh2TMSJ7Gz0ySVAU2Is05ltU2n/mSxM/5swJr63/KbaEjWczbw2vIfx6UJeW37xUiieimQqV7JMnhnPMqmXiWe6uNG6dJEu/jCopUPFFkZXmVfCHXPynfGRtZD2o0+Fl2zAKobklUrkyru9Z9LNDLoRskjlZMqozPtV5DHGM82vwXXfRnLzuURpuNvspFi+0MfRK65n++CqP2A5yfxpS6wCO7XqL2l+pXipDo6SKKI8ie99qvHJparyl301GF8/6mf9eIno17aiG//0u7kuRxVGQ/Hvzi+Z5QM0yz7uLn+ddR/cuerPkfw+hPpcf+VykL01PnypdS51v0nzQ14b6q6smalfyRHQ2nDR/n2/1Hj8xX8nP5L9Wcw/q3E12E+a/3t1Axze9QP99q/EYALEAABEHgAgfK5hP7pSjkfys8GnUw+hmHxEAQ+G4GuAfbZMvJofbWh82jZX1QeOxlOyQGhLZ7ch+o9Y4oDQKHQE+NiHBSHXTUwet+Usyhdn5XxqNWpSbZOhrCf1zJr5MGZGFdk4HUMLGLSOAhakWmi7PdUSJ+itKGzUU8GleLGLAlA2Scjiin3qN7PHGvVyRTyElFyLOUvcmt8v9IhNgyEp8QXwaMj2u+IDp6BwGcnwH0FOXDCjKD9h1hwEwRA4CkEbncyPEUdCAWB9yVQjBc2Rq6ZvL+v3m+WOhtGvQnMm2nx+RJaMmQ/X7b+GI3fovwu52aTXuJLfVLsDLqBPtrvDdAQBQS+CAG0/y9SkMgGCHwOAnAyfI5ygpYgAAIgAAIgAAIgAAIgAAIgAAIg8OEJwMnw4YsICoIACIAACIAACIAACIAACIAACIDA5yAAJ8PnKCdoCQJfgoD9HOWwb/QrCu5befqe3e5D0H62QnJG373X+G3cBDJ//67XodNeBQv7ATQFkb+t16KaMIMbzOSWdHlvBf/pSv5O/1ZlBnriEQiAAAiAAAiAAAiAAAisEICTYYUSwoAACDyBABn66dcf9K7/5CAYORBIEdohXX5RwTsuaEM/jl9+zSBQnRwDgWHPzokrDXSKc2WUqlBHD96l3v2qSI2kzmClfDIAACAASURBVJxj5C5dlFicggAIgAAIgAAIgAAIgMCtBOBkuJUc4oEACNxGQH6VoLOZ3vk0/5lA7WSgX1U45a20z1t9s88Og+BnREnpZIzn1Qz+Fwf89ciDIHmJSHTyV4OKk0X/fJz8bF86xknTryhs+Wc2a7jW2VJZ1DRxBgIgAAIgAAIgAAIgAALPJQAnw3P5QjoIgEBAgB0AZiVB3+AvqxryZwn+ZxzpORnYbJDTm30+od9r7zkr3E80BvqNb8lPB6afUEzODOscKDqaPFqpydFh7/EV57Ou1GhDECvrQCj5l8AkI/ZQSAgcQQAEQAAEQAAEQAAEQOApBG53MuQJfzEARD3+TthOvpswEvY9jvfqd2/8u/NMBtVxFyPmuJ328z3LtYf6ZGPqeGpCkVFzS7mejh1j7LMYRPeW/1Xx+/ybAnnUjav0CxIdxTefLyhD+Xzez7u6VmLNioXO/cv5vF/KqoHLfqFvL8q1ipRPk1OgGvHtCgBVR0MnwZqToutEyD9LKM6R5BQRPanMq25y1x5bVstOhlH52ETiq3vjx1LrXZEvn7zUJ485E/nbuez7cUs/9hhlHitFnF1v15UG/ZPwfVb57Y8c/wL97y0Syf+71a9H8pnB6PO7fn6QZamfjpb6LJ+/yfVK/b4+/Vle00/JlnmX3zcomCPNJV4ZQjnZmYHUtcMDf+LWqBSUr0rzKf2myB+0Hx6vnZPdqI0LEACBD0OAnQz//HjZD4dv+1///m//T/0baUkdftjJaOdD7jBWBoVRWg99dq9+98a/MzPJ6FJfsF/I4HjWIEPKJoPqGrX9W1Yft3lOTB9YSRr5XoF7ru8t/6vjX8//nuzRpwdHMRBuab/D+HoiSY5IteR/O9W385xuelM/cjJs5Gw7bjsdydmWHFjH/UiOrHJNDgP11p/0o3RD58EquXucDIlBre7UfrNTgdnNHAykY2rzMuHtHmsiNWPD8qnBumf3xu8Ktg+644sNdv3VA/R/av9yfY5MDOIWFbsJ9NCLuH96Vvk9fvyL9b8Z0QPq181pl71qPun8IPz07LJvx22XHD2ift/Tftvx6MH1Z1L4Tf5prHxqg4/z96z2vTr/aJzqE254DAIg8D4EDv/9/ra/fPu9/3x5rJOB+z02FuqkmTom9kpvGxsyPDn2Hsnzad/K2+7jvsnH1mTskpebjAp+vu1nGpTyvfxJ9r5fqFOsbyLJ+JABihHnSUCkXy2CS/7eWRkn8nAQX4yc08nmTzaoIxHshc1G3FnCaQYj/SntyYByl3xS0KRPE1Y3yGTDk8tRZ4zjxt+We5VlkA8Hqm75lwIwKzno1wA2Y6TVshfjy6ZPy+jVSpDjaS91Z6l8Uh7H9Ud0DY6D+sOhZ/zN8wMb16Z+kwGq80cGuHnLYt90GX6kwEy/pORN7cPQkLpcVhyot/NqstlO6qqO5OTkPsUWcE1G7dWQbsonFKlOJ24zgz3oA7LjzXKvycoZ6dZTTcKUo3KslHvdE8Uqh2kmXcLXy1gqXx9JXQ/iS99T+gbVV1A9479p+07Bor6By1q9tZP0jLN71j4G+tdcdvr/HFf6FTnqMtY6+f79IfpXJcMzrnMn1Q/rsYViDPiLfuSE43HVj60U3/ANxoesFcky5SLamvht/zXix32Thi0yzdH1f65/n+o/0S8l1akf9HBQvzA/UPWSVyyksboUKbHji8yXz+38Y16/t7rK85b5yaT82/HI6scO4NH4O5WfmFDb8f1Hql5uTKE+tgD85O170n5S20v/cz3QEzf9EOcgAAIfhsDhe3YuPMzJwM4A/WbOTtJ5IkMTnzxDp07bTkbycueMiCYdpQ/lATzJvpxoMElySIaEOW3V680iqFPf9HJ/clb09UvJDiYRk/zRRIIdG8UCaQ2CnSff9Pb1nJZ2X/Jx3/eh/sr4GtagW+Wz8VTLhne457fFml8m1JtEUh78xNYpmyZbdTC1jwflz04AKusCN016pTyzoFH65a2xJMqDvnNEDfjxyg5Jj+ujrd8itn8c1T+asIz5D+sHz3GpPdHHB+nvQnkRA2+J30g/ydXt7UMktAaDaieqnptJHZcLORpP7Egpc0i5ryauyQB0ZVMcGtrJUDS64iQ7PJv0Zg6uNgn61OO0pc/LmqeXc+kn7bOZYyTrIZ2iibxSviaCuxjHb4xLKkujx7h9S2KNnPygmVyqukJBZu1jrf2O6ve8fxv17/frL4TiI8mXcZFCXDW+5v6DHPnSxdr48/5JtOqV37x8WOn9cAjGR1fWkpY+jvv3uf5L+u2j+jFuH5gfDNoPjac0VvHxmFab0bnqP+b1O9WGXv2jp8P5wWT+aMYjTiqNJVIHU7r98Xepfg3mHyn/dpxZnj9/9PYtPBfmV8RBVQvBjyMIgMAHI3D4/jt9InGNk4EM/OPhWCYi1+Sp6Rz8xOGiVzIcdlr6XDoTGYQoQeqI84Mik56HE39nbFyj8JVhm0lO7thLHrLudmDIicz096x6uvXC3SJfM1fpEfMwD5NBnETIIB/KGJV/foOs1AhPRX7zkPJiCiKFaCYOPX6NwAffiNLV/Gflx+rQpKdOQo7KYLjl05cH57CKa8qiOhl0vbBlUw1Uez+Jrb9KQRP9UZtPE0NxxFBfcjzW1S3yhpqP4WcVLn7NlTkr/ZK5Wy/krS1XyZ6jZDF944ytSbzDmV3e3PSHw/Zd1dV1oN6VXwVRd3SbWWofKu6Np93+ReRpneRePjZ1Qod9gP5D+aTDhP8wvtZV8kU6KydmvR2MD6v5i9Ihwb37NdFx/x7F1/qv6ifp3XBs2gPmB4pi7le5nM7pMzKaaxZv8qT9K0m9/oOCdNvvQvm3407SuSZN153xd0E+y4nqaU5g2D4pzGdu3xXi/IwYyWed89AIAQIg8E4EDmZC/e33/XsyTDIy7iTzWwB5jeIHYD0hiJwMi0boRMW7Ht81iZjpr/M/0rI7SPkB0QmJ4nXSvGkQz8l1B3nKP3mxe+Wf+RTj0Kkvl135lJfP7GSY1Q8BIEfaaJFW/BQjIE/i5Pl7HpuyqE4GbTC3k7qkdHifJlj6lya6+XMconpPcXv3F+th09eRTMp3doRSVQzDZL2bNqbimn47dKzWiS69FVbz9C6VRz0oeSJ+pr3N2nfVoMm7YmJFaiNk0r9V8XeddfsXkdqtN0F5m7D361/Yh7rM+Q/jG11zAlQnS/8iiaZ8auMwPVnMX5QOCeikVVKl56Zy5FS3XP8juUbmon4lwetPMD8YGPm8QoT22EkvlrgPOFpn1bB+quLguJ1Or99+5+XfjDum/igF6LQz/rpQ7WVUT3Oocf4/eftuSXTvNBy6IfEABEDgPQmUX5e4ZiUDKTzqxEcZajoH3aFyh72lTwgojfz9aJk36A49dDLI8tB7P9YaLYcc5Y4G0LXPJdoJWJJLgxgtd+/9pefKzObl/m7pmGbqBI3l0yBbl8re/rlENWrSqhf7CUt3kJ+VP9t99lctLvkbx1JH+E1FP/1mktf5XKJXPg5nfClvpbVScUh3d85/XH5U/+znJPS5hJ54kwGv8xbxc0oFl7e3jyKMyjrkkyZ6/JnHYDUCcYjmkD5/JT1zktOQe7320rt/s5PBpZv70RDDlX2sdsxItm4+3lx/JcWUz7atkUE66N8l+iDvetyh8cG/zZq1D5XE4HRcv3W+ov6t75yy4+bN+g/K567xNaqPpg1Qud43PiyVj0nTFlOK3x//dNlwTNO/z/Vf0m/4uYTV119hfpDGKOm7ffuh8uPVdwSO6oHag4VuDeu3gq37CXWbT3Ud8enPyp/kygpa0Udfk2z9OWc7/o7nd6zgoP4P878wfxrG53Htfdu3L6vedZMPHXDQP+pgOAcBEHg+gcN///7ev8ubsJcfT13JwB20eotHg4i8kRPDR4c55p9nTG/iyEub387RrDzHpXgSJ03W/cZ2+dvOq1hKWqMl17FAHsB4s8Ssq5mUiVz9llF9DsIi5/qngbHKr2/+HyA/G+2pXGjAzDL5bVUs3+zeTxOBPDlgGSb/yQkjZR69YZWypDC2/IW33djrQJs+qpUPFGqUfrMxk9kYLM5fzwgUjfyRDL4obz5ceD3kTzHG9YMcOPyrC9JWHH+f/4hfqJe5KZyubx/0ycaZfGihk4HkaudBTicoAJoMykSVVcv9AQVNdcg99/rrzxBUP1TrZmpf0i+Z6DQZE76TY6C6EUW69sLQszh9I4IvHulkuKv+ZtW4DIKMpbLJbE3/ThF7XFU90+2D6jbvzaMdZ+P20ZKL7ogeKl0VrN+/SLzcN+e6YTA8QP9e+Wi2nKaq11KPdBjfv+pnvfjhxomUz+XxYVQ+C/y467AbU9r+344PtMrCuOw1/4Mf36iQR/pJJRA94/ohoaIj5gfj8ZnrdlkZQ5xrPz6vn1Iutv1dMz+Zl7+tH9SGlMuLP8WYjb80dpVxhpwqtDcXV5ZYf+k/5vmXsS/uX1fif4T2HbUbf2803vX6Ry8D1yAAAs8nUFYy6J+ulPNh8mQk4JuoBpH2kjcPceMPIJA25ZNJ/R+Q4auzmCYBYhjqTQyjSTtNvOS+C5v7IJ6wyUysaKPD1olqeuxWFPTeHPXu37ySoShXToRFmXQ6p8VqPRpNukpiSyeov0uY3i0Qyufd0D8gYcwPHgARIv5oAjxmkoM5pID+McSCmyDwTgRudzK8k8IfOVn9qwn1O/iPrDF0ezgBNnx7A+DDU4NAEHgsAdTfx/J8tDSUz6OJvpk8zA/eDDUS+lMJoH/8U0se+f6gBOBk+KAFA7VAAARAAARAAARAAARAAARAAARA4LMRgJPhs5UY9AUBEAABEAABEAABEAABEAABEACBD0oAToYPWjBQCwRA4A8mwMs+/QZm7lpvXllQ0cZ3djOy8kifZPmzPR94szC13wV/D6uutUh9TuFi2SvfzKYN0OL4OhXaRE42TbP3eYNT+r16rStthBgya+Ne1G5uJs9TGZf95H8dKP+0qk7FyNQPls4TQ5M3Ey8911k3jx94cTm5jRVD2evlGUaPblL9DTN4Kb9OxZtD5/Ku9eQJukT64R4IgAAIgAAI/OEE4GT4wysAsg8CIPABCZARNTCIyfgPbSzKCjsQ1L4g2aFgNpcU40tb0/knYk04txFl+KxRRG/WSQrpazKAZSPOjrFMhryWqX4lwad/3OxPtJaS7PDzTpMSXp9kXkkFrW8OZJ7riPk8cETYdN3Go0rExZTHZT+7X85JQQOdlIx0SsyJc2Y8KEeNOtWdwJkV1SHe+Pm0b0ZAo0j6tZft1Dpf2qBZ9fqrU768yzXV3/MWtoHi4CobtyrHgq9bPR1wHwRAAARAAARA4C4CcDLchQ+RQQAEQOAJBDpGXTGy3O/Hew3MT3ySrIkh6OPLtXdm+GsJZ47eKUAGIedHjN7kZOjJKm/5Rc7A2WLSVRdJ9tzAZp6ODcWtqyi0g0Ql0DFwU4jICXAuxjj9BLH5+VUj1hn46if8arBIfn5aOO/7mX8rtsZqz6K8VT05vDbUbygH4/AqslpNxncG+Y0iSn3P6Z236nAz7SKKi3sgAAIgAAIgAAIPIQAnw0MwQggIgAAIPJAAG4ve4LTXzjbuJy5GVz+EeVKXlrefI9g37SZaudBGXbnJqyTI2BOD8byfIktbdPVvnC+n/bTZN9y8iiE0fPsrBbQ+4bnnTr9jP1gFwE6KUAeRnt6ia+eQP9flaBwvpMtx2zf67GOkg0nf5r0pr8t5r4sjnu1kIPmyaiXxsA4cYTQ7Up2pjoJ+aAo3YEWrKcLnVse+fDwBARAAARAAARBYJXC7kyFPxuobn5ykvH3azmmZJC+pVB+4rmr2rHD36jeLL8/fLd/0TfaxTEplIv4cnHkCfTwV8e0k7rhvkTFRYriTGb/Bc34DqrjThLZMzvVM3iW5dikTWDchFX0UgzV5caiWX540361/nN7D7wqPW9v/VfHb+vfw/HiBV+nnI7OlnerkjA8bmP29FeRbeDlySmcyIE/FKC5VRt1L7WEz4fw+BdKOStsZGbj0TBu5Zv8BcSjs+0imHkPOp5xn4lwykD8B0dd8K/5kJLX72k5HaRvdg+Ki7/q1flGQ6F5j3OdAszfprZMhqgOVa5u2dTKEeS8cO04GKdNc11P+c1tr6kLlbHWpOvqVG6l8VpwGIjHSU551jtJOSV/JL5UltbschfRoylbizdpnJ1neByKnmfLZ25ukJ2ByX/RT49wkxnWPRf6N+b+QE+u07cfjLN+5PknZLGgpPK+IsiB1FCTrqMd24fMs/vtlpz5C+t7jdtrPo0/jRurzZ2qpfx4Gu+ah5L9XP+T50/jMlMX8V/o0aS9cl+5uNG8w/1XzFFZX1aW71Q+rzTu0b8lTr/3IJ6tdp3rW+d3aVwhyePMgndnh8LL//Pt/+3//1n+jmOEATRFyReGKnoE+p4KMtBs8u1e/xfhdPgPVVh+N3upQutqov5zTt92rsq8Plya1NR41Aj2BTJ3+NX4GkjXj13tOAzS9/TuLQlReepIg9285StmrCt2kd4tcF6cpX0pXpemCX33ZyL9awiCCMKICv6X9Xx3f17+Bbo94dLV+LtFh/DqA1H558Ga2GHxS38XApAmB3IsMdAnndKNLKjN2GtB+AKd9K2k4PSjM+eSW/adNJ2lSnPQnAzTtKxAb107P3W3ap+s8cdPXPScDh6O3/5FxHuR3cov709KZTALLBIKZpbyT0VUZUt/kOFJYpSulZ8qen/lVH9WAbzWyZev1t9e+r051hfetbHhbuZxuEyZrQ/fNCoY0QZXJb4mbOR3LHh2aVcCpVxeDesGOBXEQUbnQKgbaEJUccVlNcsC4qPfPXzjv2cC+pf/Lus0OVI6G5yzC6vNH6S/sw3Rz/aW5SVMAYYRy09bfcvuJJ6ne+wSexT/1k+IGo/aY2s6VmJS6sf4qwHWni/XjWXxIWTO2Oe25fqjJJua/n2v+27Rv7rulx3aF/ZDLuH08rf4utp9wbFL5fZp+Ko1HnR6+/65OBe1goPPRXzeTGSJ3ijzI1jcdFIcmUPx2XSYMejJMCdLEtkzEyGCWCpYnIGX56LafaSDjSZqeUFOlqRMU8gSrLrtMIiL9an4veWKo5MrDQf4kCB27fLr5k9jeE0sT07xSIKdtJqHu2+yUbn1bI1LLkSa9HT5L5WPi05tE30jbiSvJJd4iXwZMecsWTZZSPkzJlSzQSe85D9L0JkUSIWbCjyP28y+rCLQ+oiMZAuxA4yW3uV6Q7O3sBr1B+XEOVPpU909pCbhOUwbRMI8L9YcYlDpypPaU2+BC/eFd+VV8YictkNQXHqQvv7Fq2l96kz5uXwwi/i/r2I0/q3/mOfU1rv3Tcn2dP3ZK1ZU4lP8uP9J4ph/n6t7+I7WpUvu5nm3cJ23qk4HUjwZ9FH+SoO6b1QWkoJMflgRNbpUMHaZnQJSl+NmIKBmo9abUS+n/tUOyUz8pznZqDRJqH9LMk3rJyXEx+UuT9DZdGSM6eWSBKR+hY4Drva9bAqnytZ+OtH2jxJCjyRPxyA4Iul+dES1fie/LluMV1inPlVmgjxjhXOdMy28dN02YXM7KadLTS+7PJlMcLqdjVu2IAHNMc4TSl+p9M8QhRp/dcLY6DCktGVPd/MUk1bsYxJe+k+oi65idEFw3ZYya9u8pYSrXks+si5S1lK+kZ8LN+seB/jXLg/5NAvX6CB5DcrvN5SpRVo6UR+4LpE77PmrAT/gM55+GTzS/SVpG/PmJid+OP7pMmvFziYcbv9z4vJv0A/3N81a/nDseaw66b5bCWaof/flZf35fEuiPzzlt35dLfScJqVww//2s819u32bYcSsaP3P7ThV0aXxpOEjzyMdu/+PCfYTLw8OdDLxESxs1dhJHcA40MOQJKE3ozSCo32Zlo6Z0ItzJJNm0BJM7QX5hWieb9N2umtvSR8X7tmkjgiYiff1SoYwG0ZX40tkZTaR61J/Y8vkLOknaQZsNXFVbupN/DpOMJPmOmI0spcaMz7h8aPJcy64YZDJB4vT9xNVO5prG05mMzBpR7zk7GXKdYIc21Rml3zD/FLZUtgpcZCYnw5nf9lKdpfsUXJdH0qsOcr78eGd9qfz5LYWt/yRPDKBoyal62xvUn6STKnCq/1Lfc5a0vjWX6azu/J+f8KTEGVN58k2seDP8Sz5yFJUet1fb/n167fUo/rz+Dct3oX3N+Y30k9zc239QGrUO8KQq10u9mV+vDaSfb6zcKZyt1tUIFo3bI7XbKsM877TZ9CsSTu9sjJNjR71gyuKuSIPrUivbtB0xJI2TwWh+3UXpD/zPUlL5dNhwCh2+OQ9GZ6eRKSsKXwx2YiVv3m2fakXYtI28XP9rXQjykcebtFGn8Ka8WrmcZuGTNSgGvNUovBJnRvjQ3qz13K/osOGoM6o9X+LVshYZQX5Y3Er7dumay3H8mpccidpSLRAqoeH8QJJq5OQHvrz95z6z/jG14XvmRypfbYNPRqDk19cfydzgSPmTeR8Fo/7alvGYH8dXcxgbn+rEbH6TlOvxn/NlpffD4cjlbsbPbr9agYzH57n+S/rt945fmP9WO9n21bP2KSXdq1+z51SfqdnJkeesn2j+y+3TzX2+TPvmwhuPD7p8pZuUe/o4qx867Hufm88lvv/4v6XPJcjAp+WQYitdk4lpI6O3btrIKhMrniFVg5EmQ7kUisw8ifOeztAje43SN4TtVoJR/jgdGihkcndIS//rzIlDdCf/gZ7GyF3gU1iKLD3w6XN5TjJVJ9YaGmTg1AwM5YvMYgzWeOoRn/b4+s6VJ8ui30L+iS2lyoY+T/Av9Q0exec6R/eobJLzypbHoPwaVmnCYTvR6rQI8zisP5S2dqh5auna6qvClPype3kiZ+aLUT2wUZ5zFaWrmdK5G6BSX6ANwkH5ZEPqOcpfI5UGotoHaCcDvQlKZUFhdL60fJrYyDN9LmFSPem3LgqXjLS2L016jQbAFNc6FUq7FBX4GOmWAlDdH/fbZ17+rroWJdnlj+rNUa3u0WyLEa+i51Ojs3orPn/77tJneZTXxCTlzfKR1OlZYZvrdimnYkRXWRKvHm3aRl7uV4t8fiEg9SRLkDbW9AVBnSSOVVhVgeW6+quZy3kYV4nhU1vP7coQH9bVWfXda61LebWLmj94Kc+9prGjvgiROlHSHPbvJVR3JZ8vb+NkWOofaxp3nUk9ckLkTb7uV/z456KYy2H+KOSE3zB+pHNug0aJ3vxklW+UDiXQuy+JN20yPSj9VBRf67+qn6R3x5E4h+U6KZ+0Eqv2Hfzpa+kAk0J1bJsriPmvmp8vlD+xfc/577B9UnFP6s8w/qx9qOoU1t8FfiwiSkfJXjolGbLiLYgQ6heE+wi3zMaPP1++7X/duyfDJFfDSsCTk+N+UjNHE153mGqSUMOkCdZEhTd5HFcCmjAN8uc1o0klrdhwhuM1nWwy+mUiOedTWWZldIPR56KrLhO+ZyeFEkyOQ/kSqDeILzwvA26WwUsrC795/lP8FI7P9TJtymswMe6Why+/hlU8sejKm7UPej4wmgRfV34nf5opy4jqgQh/5jFK1zCdl69Rz5fPIj8j4ykXrhxLuZz5Zwm3bDwFVTFro4x3ZRwXVTMzN3crj8VJ0P1MQIzEbl1rjeDIuGgdQFWF0g7LKhyVJwo2zIPjF9UbktG7L/IdYNJpa96cVp3rmUu//KJGDSHOWD8RN/1jN48t3yrZph1xr9kK+mphUuqcSLZy5e4tR9LJ57snpxlHG72imDZfvv8imfQm2ThOIzFPulfKmFjXwqAKuTw/aLhkXYts0V3Kk69TGcqjpx5Nup2UlsrSxp3mbzK/GsaPdM5t0GrRe1O/yDdKhxLopFXS7vAq9TuSa2Qu6lcSvP0krp/r9ZtTbsbnpE93/hKqq/uCef7vrx86vVahoXwVPOZXA/Sel7rwSee/Yz7z+jOMP20fM77z+sMSonSq6KWzJh8uVq/8XbAPcXn4+TuvXvj79/795dv+z3s6GbhD3MpyQdq0hd4Yl3FYd5ihk0GWz9XFSrdRHi0XW5MYVoJZ/vgNunvzTxW2AEhp67cfaVWJvBlpGyEPXCo+dULHss9Fm5emcpsGQ41stpxw3snKBJM35el460J+St3ec93JFq94cTIs1A8yyra8ozzl/ejeLCqWoo4e9KhszMoNV3667Kii04oJ4RHJk3t8XKg/fgLPG8/pNpTrmEywbf2hVRRu8t35XMLrbPScXVDb7b4FHUWe179Z/Z6Vzwq/kYbp2b39RxrM6gaK8mYnOwtV3xfpwm2Y9m7YqC4HfWHuR2dOBqkjvTT6dUCM4FS/SQXbLkUiPRcHqNyjI33ilvXWeVXnVG/7+iV+JX+mD1Pp9O77PS1yFOJK9VZUU5LMaTHsOWDuk4syKiiVgxNW4g4dOcJXySqnNu/+zb/+edJk1Dr+woR0Ex3YILdyS3JXnjBDl+euCFXeJgzd7zq4JCRxz+3GhU3l6Po5ibZypPRv6r9EeGLZ9rX01nEw/5Ho2YCI2h/lTe5H4+usf1RJDE4X+jepRwMpfm5Sgg74Uv5M9dHpLIyPw/jsZJ7Nb5KWmnPRm/2W4/kVh9U668glvuosePyteW7rjG6XdD7Wf638F8rX6e0vQz4L5TMbnykdzcDOXzD/teMs1Qf76yLT8n/n+e+wfS7Un2H8D9C+fTvpXTf5cAHD9uXCfJTLw/cXmcC+7H5/hpGSt2SS4qS3V3miJoOJMjR1GNpPIE20aUKgJg00yuS4NKBKnDT4+I3b8rdvo8w0zyQtNwFrwvkbEk+YyrHKEV2Jg81fkkWTbnpbJpz0/hWSGi0BKxNAM6ikTraJLxH52OejdWOWQfmEGwvRhCsb8no/gfBtEQ+aMvnzGx/O+I2f6wm6TLS4nignA72lpY628nX1gyfXMgGlwTaf830pz+hecDqB9wAAIABJREFUKuN5+eWOn5ml/Bdd5TMNmRxL2qr8dBlF9YffQrv86ZVBJKpff/ip3XjJbCwV8zeTPqVr7zSVkzDuherc1/XnQJOvrFMp43H5zsvHbqx1IKeLWlnV0crdFk613bsAnctklEvdLPWC6p5ApjYpy8Cd8cSTdtWX6j6ykyDfbg32kRGbJFE9LPo1wiUftYzt5EciULiWURw2vekrm/YNHKXJuaj2EVH9mLCVY5uHKO+pPCWs9DNSJJIb4V3uqzGqhAlOdH5Jdonvw9KbPb4X6SiBtdEh99yxrG6hfCn+Z9qvIPeNvm7xBE0xFZG5Psrl8MiTxEBGEIn7uS6I9CaZylDKpBGR+2sWwedUF1O9THFSmQ6SaETKjbv6ryykl79x/y79ioxDclRlqPtHalvNxsLj/lHyOD6KHirdHEHahrQvPpa+uUrV4XwZ9vhqNlxuql2LDB3Gj4/6WS/+eH4j+RbuctQcRnzj+L4OJsM5yz5ubvyx4xN9smncyLr8bxgfUwmJnjpftez6ZxJPuMixytFl4MuH5M7H59H8hdJPq81K/WvGl375aN1uqx+kv+SZjnX8K8x0+TTtc8Zv/DxsU9RGTPvr5591LH0lXb3t/HeFvw7j649+dlv5jfmmMhzxi+P79l3qwuCEynIUj/Iqfd5AzId4ZD6XuObXJZoJ7YfIDpQAgc9FgJxon6WzeAxZPdF/jMQvL4UGfv5VE/cNfDak6vfmO39O4XnowbdMvoojKzLUUhlFYfW9Ub31vwSgDen0OYZMxuoEVO6bwbXkUcJHRz+Zc4Z2781hc58mCUmWnrBpvpWtnVAYnWsgPpvxH8W1onSampsKRbwaB4F6nk9L/kziagWJi8J5OB734tyW+kPxyz4hLpK5HDlGJGCtd6O6JaFlDlIn8zW+X+mQ8hvUE86Hv19SCE5SGkv6BbFxa0YAfGeE8BwEvgqBP2/+Oy85Hqsa55iN92c4GWyecQUCILBIQHu7yXhUiyMXJXziYGw0dgykT5ytp6u+ZMg9XQskAAK3EXiL+lt+QtWqSJM240uxj6+7Qv91Ha9rQ4PvtcQQHgQ+FYE/ev57d0nVFw2fxdF9+0qGu2FBAAiAAAiAAAiAAAiAAAiAAAiAAAiAwFciACfDVypN5AUEQAAEQAAEQAAEQAAEQAAEQAAE3pEAnAzvCB9JgwAIgAAIgAAIgAAIgAAIgAAIgMBXIgAnw1cqTeQFBEAABEAABEAABEAABEAABEAABN6RAJwM7wgfSYMACIAACIAACIAACIAACIAACIDAVyIAJ8NXKk3kBQRAAARAAARAAARAAARAAARAAATekQCcDO8IH0mDAAiAAAiAAAiAAAiAAAiAAAiAwFcicPjv3//bf3572Q+Hw344vOw///7f/t+/6d9XyijyAgIgAAIgAAIgAAIgAAIgAAIgAAIg8FwCh+8vL/vP3/9XHAviYKAj/kAABEAABEAABEAABEAABEAABEAABEBglcDh+++6ckE7GOBkWEWIcCAAAiAAAiAAAiAAAiAAAiAAAiAAAkTg8P3bt/2FP5U47C8/7IoGIAIBEAABEAABEAABEAABEAABEAABEACBVQKHw8uP/R/Zh+H37/2vvB8DVjKsIkQ4EAABEAABEAABEAABEAABEAABEAABInB4ISdDdiz89eMbNn5EvQABEAABEAABEAABEAABEAABEAABELiJwOGfH/hc4iZyiAQCIAACIAACIAACIAACIAACIAACIGAIHPxmj/rahMQFCIAACIAACIAACIAACIAACIAACIAACAwIwMkwgINHIAACIAACIAACIAACIAACIAACIAAC6wTgZFhnhZAgAAIgAAIgAAIgAAIgAAIgAAIgAAIDAnAyDODgEQiAAAiAAAiAAAiAAAiAAAiAAAiAwDqBpzkZztthP2xnp8llPx0P+/F0cfc7l+dtPxy23Uo579shku1kUNzjaV9MyUS+XIJYl/N+bm6v5+e8+XyYJO0F5/uwHyifs3835tEmiCsQAAEQAAEQAAEQAAEQAAEQAAEQuJ/Ac5wMl9N+JOOYDGA5J2eBGM/kfCj3Jw4D5yy4nI5747uIOJw368zQ6TnD3Ts92EHiwrCx3yRMTgblPBiksZ2zcySQ24g1up/3rTgSbHrEwuseocA9EAABEAABEAABEAABEAABEAABEHgLAk9wMiijmIxuMZDpXKxp5zhoM3ret21LKxayUU5RW+NfGfheiDHU6aHSq4S1RrvcPm/H3S+20M6Nukojjk9yUvjLftpGqyk68Y3uWm8bHk4GKTEcQQAEQAAEQAAEQAAEQAAEQAAEPgKBm50M/AZfOw44N9UIvpw2NtTPJzKyW2P7fLYfQVgYVY7cJ8NefBQpKeW0kEDkSqDPNJrVAuQ0qMY6hUkrANp0SFRxMvDKhORw0E6Get7Gp2dt+qRT67jYiYteCZHzYWVs+5n1EBl6RUQkU8HAKQiAAAiAAAiAAAiAAAiAAAiAAAi8IYEbnQzZYDdv3L3WZEAnxwAb5af8CYWsTNhovwUynKPVCK3xvepkKFo0umkngxjnbToU3zgZ8kqM6liQVQoUMoif001OFnGu1LSLfnwSxC8OhchZEt2L+NlUcAUCIAACIAACIAACIAACIAACIAACb0HgYN66f/u9//fv/8q/rgJ5BYM2vHVYXk3A3zec3aaNOhRb8509Bcj4jgxqd88sbZjJroZ+cSJEToIHORnSRo/eyaBXIUhexOHh9DeXVXe5PV4JIqFwBAEQAAEQAAEQAAEQAAEQAAEQAIG3I1BXMvz9Y39ZcDKEnyM4Y984H4I382Wzwma1gWS8fcO/tJIhSEucKLzxIq9KINm0eST9VESbDmlQnBAk76aVDKd9YyaBk0H2qJCs9o4mL/qTCXFOuM9HenJwHwRAAARAAARAAARAAARAAARAAATeiEBxMvzz42X//ruuYqAVDd2/7BwoxrgL2DgZihPCGfVDJ0M1psVR0ByLXKcAXXrZxWGQnAxH/pTD6ZPFlHxRnJyGzlM9D+LzL2ioTxjEWcDOhXZFQqB5uiXxmv0lhItKoysED0AABEAABEAABEAABEAABEAABEDg7QhkJ8P/7d9ffuz/qE8lHupkMIayMo69I6DkuzXGm5UMJWx8Qo6AI69YyM8vtP0k/+zDftxO4YaLIqk4GZR+1bFA/gtZRdBzMogjQB1vcTJ0Vz0E6YryOIIACIAACIAACIAACIAACIAACIDAOxFITobf3/aXH/9X9mKQfRkinW76XKKsOHDGsTLiOa3p23tltBvHhd/XoKbD+pb0ZdPG+pw+mTjzpxM1t7LfATsbTqfm5yxnTobyOUgRKU4TOZYH/MmGT3+NhXLWaHE4BwEQAAEQAAEQAAEQAAEQAAEQAIF3IsBOhr++vew//7afSoxWMvAqgRMZ6t64T7nQb/33xnGgjGPvZBhAqIb9IJA8ojSLY0E7FMTI1/cu++kU/JxmkUFhD/shXFWg5eTEwzxJunIURenYOjn4acPNO1gURy0O5yAAAiAAAiAAAiAAAiAAAiAAAiDwTgQO//0bfyoxcjIkg59+KWFLnyA45Y1D4HLaIxueo4QGuROWL43MOEi+K5stukBmrwTtHAjCk4HvnArkOGl/blPLKYrmn+Z0TgH5XKL5yU5yPNDGjk7fQIcaIki3PsQZCIAACIAACIAACIAACIAACIAACLwLgbLxo3wioY89jU5sFOvVAjbkzCFAz2UTx/bTAitLrmYyORy//derK8gYz2mVlQ1JYnIaiB4SJ4d3DoaqQ149wA6LHNeHDR0nagWDjiuffGQZVifRbe3osicq4wgCIAACIAACIAACIAACIAACIAACb0bgJifDTLvLxb+Wn8XAcxAAARAAARAAARAAARAAARAAARAAgc9O4ClOhs8OBfqDAAiAAAiAAAiAAAiAAAiAAAiAAAhcTwBOhuuZIQYIgAAIgAAIgAAIgAAIgAAIgAAIgEBAAE6GAApugQAIgAAIgAAIgAAIgAAIgAAIgAAIXE8ATobrmSEGCIAACIAACIAACIAACIAACIAACIBAQABOhgAKboEACIAACIAACIAACIAACIAACIAACFxPAE6G65khBgiAAAiAAAiAAAiAAAiAAAiAAAiAQEDgczkZztt+OBzMv9ft137VD2YqGa+/rooZ4Lv91uXXa87H6/6OatyeAcQEARAAARAAARAAARAAARAAARAAAUfg8P0lG+0v3/a//v3f/p/658J+iEsyzqtz4LKft4O6XlfRylmP96iQ753+o/IBOSAAAiAAAiAAAiAAAiAAAiAAAiAgBA4//86Ohd/f9pdvv+dOhst5317raoJmJcH5l3r+um+/zpJWPl72X5u8xT/sr9vr/vr6Kz27/NpfeaVCfbtf3vjnMI1xTnG2lIaEzZfsgKCVD9UpUVVp5MijWf72vv6Svl9tEenQTV/0wBEEQAAEQAAEQAAEQAAEQAAEQAAEPhmBQ1m98PePJSfDr22znyeQUb5lJwFn/rJf1FcItNJAjH56nIzrc5Fxoc8XxMlAAc6bcwpc9l+v2y6uCmOcX+jZayNfp9fKSyVk5KRb/P8sf1P9lazRaS/9URw8AwEQAAEQAAEQAAEQAAEQAAEQAIGPTODw/eVlf3n5tn//9m3/S1Y15E8mGsXLSoO6kiG9ta9OgP2iVzIc9tdX62TYd7cSghwIyimx00oB5VTwTgIyzutKAXIwmMjsxLjZybCSv4H+VjfLyK+mgJOhqV24AQIgAAIgAAIgAAIgAAIgAAIg8MkJXLmSgRwEetWCz/153w6v+y9l+JMxbYx+HeVy2S+/3EoGel5WMziHQ1kJkRwLtAriVTsk8nOTXpGlE5YVFdZBkRwgo/xZGbRkI9TfBYsu4WSIqOAeCIAACIAACIAACIAACIAACIDAZyZw+Ec2evz7x/59YU+GM+2h0OyzkBHQSoDXrXwuccn7M2ijP33eUI17dhToACwqORd+/fKfTrTOAV49oOJr453Spz0e/CoCSkKH0wU4zN++588zZvprifF5L/04NO6CAAiAAAiAAAiAAAiAAAiAAAiAwMcncMOvS9AvOqhPFl5feeNFMbvZ6M8/M0mbQp7584a6kSN9CrGZ+P5ziQyNf2pSfYZBt9XPT9Z9HMghcaj7OuiNG2mVA62UKI4GWmlhP2NoPvfYx/lb1n9S9nAyTADhMQiAAAiAAAiAAAiAAAiAAAiAwKcjcNA/WenP3zU3nc8c3lWnByYOJ8MDYUIUCIAACIAACIAACIAACIAACIDAhyDw4ZwM9GsUemPHX7JE4kPgepwSdcVHXeXxOOmQBAIgAAIgAAIgAAIgAAIgAAIgAAJvT+DDORneHgFSBAEQAAEQAAEQAAEQAAEQAAEQAAEQeAQBOBkeQREyQAAEQAAEQAAEQAAEQAAEQAAEQAAEdjgZUAlA4CsSuJz2Y7jJqfoc6Xja26+RLvtpi+47SFn+8dRK2C+n/bSlDVfLp0/beb+cjupTqMN+OB73Y6gDpXXZT8fDflC/HMMbv3bDO/2Gl4FsEz4910mbxw+8uJxO+3kqL21YG7Kexk0B+DO0R2bovO336LOodj8Y1b9H5qefEp6AAAiAAAiAAAiAAAhcSQBOhiuBITgIfAoCZIQNDHIy+Ls2GjsQ1C+7ZIdCcRiQ8yLLvlxiJ0NjAEZGaXRP4Hb0Z0dFV/F9t/pc9vM50I8dGMc98o9I8vtOhj2FyQ6JgcPGqNNjFd0/HPbj6bRvRkDVQM5Snk/76TR3R0gcfyQnwyQZFaX3KzzKQcVOo23CUIm85lT/ilCPO9W/83ZFnq5RAGFBAARAAARAAARAAATuIQAnwz30EBcEPiqBjlGrHQUjo/O8KSOcZI0CewZR+MihEN3LspITZG7gc36UbnbjWDKKVT6KniQ3uk8LKGgFSHp2Ps+MejLGlTOG5Z+t06Dk8bxvA6dPUc2fsD45jSLLB5pfX+dkaOVRebzfyoVBebWq4g4IgAAIgAAIgAAIgMA7E4CT4Z0LAMmDwFMIsHGq3jwHb4SVbT5WIXIajGJE4SMDObrHcm80yNlHoFZokB7Hbd/os4sg/+WeMf5t2nZlBCVw3uviiGc7GWQ1RYU9NvYve7SwhGLHToa8YsHkv6alz8bp6pDPOCcng3fmPCMdyAQBEACB9yfA/V00jr6/atAABEAABJYJ3O5koA6Ql/u65ciy1FV9g/1+b8ACDvfqd2/8QKX1W9koEIPpeFqPuhJS8ibyqXxXvs/XspWMm8pd4t9af66KX40snYWnnl+lX6DJanw2sPt7K8heAHLklM5kQNe9HIoTQt1LhvlmwsmnE0XbJnzfyI/qCBm0egVCuzpByXMGMsU1ervnScfRm3HrZAjTLglQ/fHGb61TtJyfeKU8urZb2lhnRYX6pONysp8lJD4+3ZSzUN+SluLG97IM4zgppWhOVp0MF5J12vbjUfJtxPAF5YeeUxlH5d/GiDi3ofjOavvoROd9P4jNrf1PT+4nu0/1aK1srszYs8tH5Jd2d6V+7xhct11in9p5brMPGetdH/QQmQpY1O+Tc9BNEVWMh5/yPj5Rf1f67Icn+QSBeQzqOuH7Sd7d/0r7GfR/XE/h9O0XAp6AAAgUAofvL3kQe/m2//X3//b//q3/SqjgpDvpzAMNT1Byh/Wh+vd79bs3fsDy6lukw/G0myXtVwgZvRW05XrhN6C3TDatnCuUu5fv1fHTgH6FhvcFvVo/l9wwvptERpOt8J4YrGJguzfHlKZpxBLO6SaXTXh+ld4aLdEkiuPS6oO+g0SSiY5mYk55ZTnn/WQ2YFh3MpA8nXV7HRi/tOklfWXRMAiYNWFyjui++cyD9HVGH4fJhnrv048CKIhfnqmTIjOPCWFdCZ5FZRWVLSXl75t9FW6sv7aAqvP7lvEnM/iw45cqrk95ei/fxfg3jz/7/vRVM6Pxtx3TnzA+EcMnzR/YSefb4xsbpA1fyq/W6c6G08i/U14TPetrxxoKdebP/LaVvXl8PyuJ+Pum/5XPBfNYM+g/ydHwQKSiHY4gAAJfjMDh++//K46Fv37/LufkbBj9dQfxPAngDog7qfqmjuLwm71tqzvf+wHofFLLm4977VDzBLQsf972M3WYbEiIkZSWM+vl0c2b+IF+Nb+XfeMJtpIrDwfxJX/S+cqbCWuk0+79dZf945Z22BfxtBx7qD+PA9nwMQPGAp+se1kmno0I0Zd0aMqV4uQAa/lLOWnkSAZn+RvwFRHD4yy+SZ84ukmceR6t5JiU306OmVq+ZORu2gic6ceZu63+VS7OoOUy3LhOb+pXH47cDoM6zm/R1f3Lad+Mke7k14TTGafn9jMwdTVHaO7JL1to+clA9nW2Xis9ddugJEiPbABz3S3G8HVOhppWMrBrewmcDLQaRNKuAXmC2DhOAk7pLVHkYNFMMj+22Vcme0nP09IvWVTZ+qzbnnUgfd6UbXrYGFEBAy2Gz3MYs+qmCZRvUNhDZuLGn14Uc38Wf9Q/5LhUX7jo8yRdVuWkt6zH/UQrOcSBc7SrVPSYwStCrh3fqO2q/qcZX2bPi87OqVUgOflkrBb0C+P7jC/Lurf/C8Yx0b87v8j9hZSLOppmPCr/rHuXv6ofuk/R8pv2QRvQmhUHjv8Hmz80TgY/p1ji384ZaRxNf5P8KydR2GeN0s/l1x2/F8qPfxVJtz/VPkj8rH3Lc10/zC8sEU/Ow7afRktEbu1/l9pnal+63ubCwQEEQAAEDIHqZPj79/6dVjPcu5Kh7Moug3ZrBBzUEjrq0L0Rrr8rpk63dGbcAaYBiJbcHmip8oU67vq2kX46z6zOo0nBJgMU5Z0m3HkQY3lWv0RnMMmZxKeBrejLydmfeksD37noyEuqywC680//jfUnA0nyeLFvfBf4kEojT7wZmHlnfZufWf4Sv/4k7zHlI6lEx1H50oRNL9/MDoEr+M/KL9VFVYJU/6S+sbrq+gn1LxGhNNwb51wp9WaGpqwNylTHtPFg6nSe+KpcmthlybnXIbg2bf98yr9WEBvUNpH4ytRP4mscC9KXXOdk0Hk38rkvcP0HGWmUJpetlAGFCfJEYazwtAoizpq9K84Meze+Ip0oncZZFAeP7vbrShSaZ9OuX0/hqH0Yf1Uuo44Uvl3T9itSolgr7SuKJ/fG8af9F5d77jP1eRbPK1LoE7TSeGxb42Bs6B+5bnC4y7mEn6WfWPXHl9lzoVCZy510bDZMZaO7OsUo3nh8H/NNqdw+/oq2Pf3JCKzs471KRuPjvfxJv5H8pn3kfsPmq1++M/3STwM/b/4QORnsvQn/xji27WOl/upPJsz4whDH6c/H73H5zdoHqzBo3/Kc9G7rgtSCdGQnpOlL1POGY44z7X9X2iecDIo0TkEABAYEzOcS319e9p/qk4lePP6m9nC86Vs7GiT0vJoGIDMQ0ERYbdRG3+6W8HpCKhPn7CnnMDypk4m9PjpDoJexB9yf5o8nDVU32piuOKRX9CdeBYh1sMibW85GxCfnbzTJIf2rF53KqsyGOfY8fykRCmfKlW6v5C/r+JSDr2uikzgZlvQjY7FTfm5C+JQ8LAmliULVkctT6ow25Jv9BES4ntjpc3keGMzyKLfHpuwj9tE9luPkU7ijrpcqb8WJkBQw9ZPKUz+/XLJzj/LkjN2iv03byNN9jejpGUqeKG1hXsIqvaV8TBhRIig/Ca+PYVyRUY/aUTubuNZY9ixszzaIvRIO9m47cc5l5IKpS2JR++/zVs9VoLc5XeofqJKc80qFto5F9c7XsWZMlNwtpT/qn0jQ7HlKLCzvpk6nsLpOLedF8vSkY6g/pTWaX2RduuPjQ/iPjVTNMqmT+qOKaVB+K/pRu1T9BqVXLim+jIU3zh+sQyFrrWTN+bvxpulHBvl35RfWgWH5e9aVuj4b1o8Cs8ZoyrTJUw3LZ/l5E88F40su87af6fUhjUxd5pH83j3S8RPue9LLDu6DAAg8h4DZ+PHnQ1YyjBUdT0KyF1UZtia87hDVwFXDrA0SYw3ve1p1yXJGAwoZPbQiQwb2BSN1uJxuyifp1B0knYFIqyzYCaKQrOaPwjWG5kL+VFKPP43KQjO7Vr9O+Vm3zOOzMZeY2kHRg/LIk5/zTisZtrypUzAfyqLVRM9/s0khMrMi3ymkjdryKGIf3eMITv9euOC+qZ9dPdedDFF7q9ysAZxUz07TwlwIuDzJ7RuOpFPbtjqCGga36RG3506adDsom3RbOY3pRsPJymzSnYS3sR99ldjNpKYNP+kzuNZJe5eT4e7+yWne9F/1ecOdHnXYa8PFtD+K06kHNaXnnIX6Ez9aVdabX2RV+uPjWvmXHHX49uWnlwbLK30a+XP9ov6sLMfPfQXrH86vUs5G+kdOhloWa/xrnVHjUIGqTpr8z/Sbpb/WN3bzv9A+WMNBmxiWj8o6nd62kuG6/tclWS6bdl6e4AQEQAAEKoHiZPjnx8v+8u0BezJU2eFZ0znpDpcHua0sZ0zfnqlOcWEQpAnPcWVjnFA7uTlarilh4mMdUNO3c97bS5NMvTqADflqtfCbvr7+0SCoBuIFPqS1nuimVSmyfJLmkdY5QNdlEtI4ITq/MOLCaVIPKR+aANEbXcVNp9E/J35q5Yjsn1CcPGmS1+ef2I3LzxqAtNszrXy4TtXb61/Ke6onZ7Mqhd6i57fAagIZseI2Sns3bBs7JJowuZ7FTgb6ZrYuny5xdTuXm9E9fubqeS9ccL+ZpOmVDJKu+uWGcquc2LT9m/PLuS5VTp9euTfrohMxKqsO6E2TlVuSu/LEt8dx9MAJQhFYN6f3WFDTL0yC941L98kG9QfdttGrp3Q/LNepVinAzf3HvH/g8il9DJW57Q9WP5foOZFm/edsfJk9F4KUj0gHPXZwWFevue+Q76wogLQHEbx0vLf/a8expCu9qR/ML7JuOo9+fLyXPyUxku/bt7+eld9Yv6gPeuz8oXEycP3IfQ2PG3P+8kkH711iPC7z8Tfx7fRtC+l7B240fo/KTz9LdS5gPmkT0vYaWbl+3rMnA/X9en+lYf+b04sOTTvXge7oX7UYnIMACHx+Agc21l5e9u8/6gaQ8gsTo+xJRzgK45/xgJkn3jyxlM5ILbvSYY7baU+GUp6ky6SdIue4NBGSOGmy6jfey9+2emWG1zQ5V0bZMKx7mI1K5kqTTd47ok40yQu+qY2B9PerSVJH/8ZoodCip1uGPeRDzg+78Vh5saPKo66uoElI2qWf9Rvmr6OPGLdJADtSmA8xPl5fPsmQDJYIJoDj/7X+BzJwss7F0dDhn6WulJ/e+Ivyp9+cjZWTp8KxM1mSYM0xl1VuJ8VIoLqTGkdqN/LzVN5Qy3WsxFNtrElK3aCJeJkLRisfKKyaWJV9IdQ9JS7Va62brpfSB/g8ZgFUNySrViYZ19d/LtHIoBslj1ROqozOtGdA/qxD689CgslmlrXsLONJcuDAiZRkZko3H0b6ky4sVq7sJ+In316cXKe26fqj0rZSKF691Sk/kcN9+kA36fNLXZWIC8e7+g9xTEo9VP2X6ER9G6uu6q3oyYYDbzabGRWHBCku7d7ysxju65/G/VecfnFOMlu38Z7a2G4l/wvFozgM6m8oaK6/1tHOL6rA7viY80+GWW/8GvNNaVwjn3TUzty5/E79kPbO9VbGzg4vqnCq7xdmUg+7+ps0ovqdnD/CrsefKXX6r1n+9X4MsuFqLdmV9G39jsbvbv5z/dDjP31+Un1uMW/hKnqmMYzC1pc/6dn81yUe1f+KLr1j0jF+el//GsvEXRAAgc9JoKxkEMeCPg6zlAcUmTwNw+IhCDyMQDKkUe+uAEptdTslZ5Ge0ZRJYZ3MFweAEi+TTJkc+mMpC06nTqmUCONkkAksydHq1PDOIO85I3r3qyB3pid5Nc+CJv6vAAAgAElEQVQmEOWhcRCYEHxRJnMmA+lTlDZ0ntySQSrGqRwpftknI4op96jei3Eg9/xR5c/o5cPJtYTvsOBg4riapS0y7zlKWtUpO5RW6u81ur1v/zEvw2GO8RAE/gwCV/ftXwcLOVLOo7H0nbPKYx/pGOrxvv1rqBJuggAIvBuB250M76YyEv6jCbBh0Rvg/mgy48wvGbJjEXj6jgRQfo+B/479h3nL6lZ3PCZzkAICn5tAcd6aFRefO09/lPbv2L/+UZyRWRD4JATgZPgkBQU1QQAEQAAEQAAEQAAEQAAEQAAEQOCjE4CT4aOXEPQDARAAARAAARAAARAAARAAARAAgU9CAE6GT1JQUBMEHkqAlzXaDeb8XgvxDv6dX4/wymX5Zb8G/fxy2k/06xWyLwEdZTNKfY/2MOjuj5C/39d7D9BmYd3wWoHZeSDbREnPddLm8QMvLie9cVhPcNpbIWTdi+Lu8zLlR2bo2d9UU/16pL6OBy5BAARAAARAAARAAARuJwAnw+3sEBMEPi8BMtIGBjlt9ti14diBoPbFyA4F4zTIsi8XvTd6xhUZiJFRGt0T4h39eZPKruL0AxNan8t+Lj+tIoLpSE6E2WaCZNhTmOyQ0M4Rd27U6bGK7vOv7pzinxFV6qY8n/bTHT/dS04Go6eS357KhpEDJxU7jdSvjrRC+nfUrzKYOqW5Uv0qv/LRF4UnIAACIAACIAACIAACb08AToa3Z44UQeD9CXSMWm3UjYxO+hm38rOVJGsU2Oc2Ch85FKJ7WVZygswNfM6P0s1uLEZGsspH0XPgZGBuKU70SxxFBJ+QMa6cMXJP6VN/2tP9ooYV1L9ifXIaA159AenJdU6GVhqVxz0rKVqJ+s6gPHQwnIMACIAACIAACIAACHwIAnAyfIhigBIg8MYE2DgdvInu/rxkoGfkNAiClVtR+MhAju6xkBsNclqjoFdokB7Hbd+OYw72Ewybtl0ZQQmc97o44tlOBllNUchy/vrG/mU3CzlqtD12MuQVC4MVLyLi+U4G76yRlHEEARAAga9F4KP/jOXXoo3cgAAIPIvA7U6GbKQ0E1pZ6qq+sW7CPCs3K3Lv1e/e+Cs6dsPkSb8sG370z6BJ3kQ+LdfeTrteYN5VTR4oGbeU+4WMtNO2H4+H+M2oyL+1fl0VvxpZkr2nH6/SL9BmNT4b2P2ylb0A5MgpncmAPu3HXD/KC3l1L62EyL/zLfXIG6lN+L6RH9UhMmj1CoR2dYKS59JunQwRg9Gbc+tkCNMuYKj+eOO41ila7k+8Uh5d2xZ24UoLKo2q4+VkP0tIfHy6qa6E+pa0FDe+l2UYx0lQ57LzJiorH3ravn0Evo44hgF3Whkiq1cSB+HbCe9v3xvfy/uk11RPVsrz6uzdy3cWX56XdnW1hu8WQbdNYi/1l+vzQ8Z618c8RKbCFfXrRxoLVJgnn5qfidX9WumTn6zAQ8TnMabrZO8nMu1fpX0M5k9cD6nc+sngCQiAAAgsETj8/PayvxwO+8vLj/2vf/+3/6f+jSTQABhOQvJAw89yh/ah+vd79bs3/gjq6jPS4XjazZL11bj7vrOXvBPeluuF33CG5dyJL7etHLl7xbE3wN7L/+r4acC/QvP7gl6tn0tuGN9NMvUkbHguEw4xsMnAlXtsYbrPJSSc000uSUffKUTlHd3juLT6IHIOSAL9o5m4U55Zznk/lW8/KG414FtJNm8kT2fFXgfGMW16SbO3hoGVy+k2YbI2dN84H0hfZxRyGHIa0OaZ0SchOmdBfP1YzotM74yYXEdlFZXtfmP9tAXATrCbx5+cx5vjCyscYwL38l2Mf8/4Y/q2OBd33R3Jb8f01C/claCPTAyfNH9gJ59vj3qs8Lo84brhS/nVOt2ZZiP/TnlN9KyvHUso1Jn3CtpW9t4J+9c87ogDbjA/J0fDA5E1WcQNEACBP4PA4eff4lj4vX//9vthTgbuoLgTqxNc6jT5zd22lbehBz8AnU9q+fJxrx1qnoCW5c3bfqaOlA0FbfDQoFwnvUf/Jj5PUiL9apFf9o2NLiVXHg7iS/6kc5Y3E9ZIp935E4fEIu2gL+JpufVQfx4nsmFjBpIFPll3fjOijErRl3RoJmd5wJNnFFfCx/lLOWnkSAYX8sdBTd4kch0kx+WnwvvTQflxUKMfcXaTPPM8WukxKd+dHDe1/MnI3bQRONMvKXlT/awoUp7KCyYu441lbupXH47cToM2wEa4un857Zsx0p38mnA6U3WqPIrKu7knv2yh5ScD2dfpeq301G2HEiY9sgHMbbcYw9c5GWpaqd+R9kGTwmYlA60GkbRrQJ5ANo6TgFN6yxQ5WDSTQrXzGUR9ns6SnqelX7LwcdN1t73HwXnFge0XewFzOfGbt4Vf2iBm0ke58WeQQn00iz9q/zlu6SPzJF5W3aS3rMf9RCu1pP892lUouk/lFV3Xjm/UNlX/ctzc+DJ7XnR2TqtCyMknYzU/4zbEq99s/uQ5B5vxTYHu7N+CcUz0784v6tjSb88UhtrZYH4x4qvqh05DdwNzJ4Pj78t3ql9iI+NnbYOPmT80TgbGql5ILfFv54w0Tqa/Sf7VS5SwTxqln+ted3xeKD92UOv2p9oHiZ+1b3mu6wf98pL+u3Aetv00WiLSjJ1ZwlL7U3VEJ4xzEAABELiSwKGuXvi9f3/5cb+TgSfWeZDgDq2d5LNjIVs41KHXgY60t98NU6db+liWl2TTEuEDLUW+UMdd3ybST+MV44nFnfdtkwGKbtBg2tcv8Rs4GSbxaWAr+nJym8lfGvjORUdeMl0G0J1/2m+sPxlAkseLfaO7wIdUGnnizcDMO+fb/Mzyl/j1J3nz8skSeoPkhL+k3z+Oyp8mkHp5Z3YIXFE+s/JNdVWVME0KpT6y0uo6aD8pX7fXzxSf0qgTZZ7Q5EqrNzM0dcEATXVQpj5NnaAyKga7iZiTdz9f6XVR16ZvOJ/yZpMT+UGScsvoSnyLnslZkTBc52TQ7d3I57pq+z+ehFOaXLZSBhQmyBOFscLTKgjJzOgozoxRGHlGhiWl0ziLJMD82K8rnbjd9t2Gr7L9ipM27Fr/HsWTe+P2N+2/uFxzn6nPs3hecUKO79IF2LbEwbJzhMqew13ykfruyfiWWPXHl9lzoVCZy510bH51hY3a6vSieOPxfcw3pXJv/9Yff4bzi5zV0fh4L39KYiSfxgfjr839QlYtvwTol+9Mv7RK63nzh8jJYO8N5neUyaZfsO1jpf7qTybM+MEQx+nPx+dx+c3aB6swaN/ynPRu6wI/Lf+xE9L0JeVRwFGerbQ/OBmEFo4gAAL3EbBOhsM388lETzQZ+LRcd+RI7ce1RmszqNBEV78pODongxh8MjHOnnKei5uJu0zg6egm+j3lHnCfBkFtFzT540lD1Y02niscV/SnQVglkAbFrDjFH/HJwUaTHJ4kFiOP8lJmwxx7nr+USJoM2Lj85rjIrgzC8mkmG1n5Zx6iNDXTlfIZla+bMD4zK2PZfSfDrg35brvREz99LqkGBrM88m+25H7EPrrH4Z18CndUq0N0HStOhJSQqb+5bEstvVyy84/y5Cf7RVHjQDHydF8kenqGkidKW7XjZBzrNpHPTRilg85j7zyMKzLqUTtyZxPbGsuehe3dBrFXwsHeDa6ortb++7zV8yDwc28ttX+qBOe8UqGtQ1G98nWoHTNytpbSp7ZR65EZX1jM7HlKKyzPps6msLrOLOclZ+lZh1B/Smw0v8jKdMfHh/AfG6maZVIn9XWV06D8VvSjdqf6hUfPH6ju+jfv5t6UvxtPmn5ikH9XfmEdGKbvWVfq+mxYPxRbidOUaZMnCZmP+XkTzwXjSy7ztp/p9iGRjOge6SCfVUTPcQ8EQAAEFghYJ8NDVjKMUx1PQrKXVRm2Jjx1qEMjem2QGGt431OjL4kaDShk1NCKDMnTghE6XE435ZPy1h0knQFIqyx4kqqQrOaPwrVvEa4onxE3pc9DT6M0NdOF8jH6dMq3GLUm8FtepHIoelAeeXJ03mklw5Y3hQrmS1lJNRE8b9apRiEysyLfZU0bteVRxD66xxGc/r1wwX1Tf7t6rjsZovZYuVkDOameVzYV5kLA5Ulu33Akndq21xHUMLhNj7i9d9Kk20HZRKEbuQ23KNaz7iU2M+lpQ8+0F4Z30t7lZLi7/3GaN/1Tfd5wp0cd9toYMu2L4iyWc035MWeh/sSPVo315hc56f74uFb+JQcdvn35hMsZjLl9Fpn6pJE/1y/qr4pTQKelnAW+TEf6U3kXeVnXWhZr/GudUeOMzrecN/lPD/r6zdJf6/u68hfaB2s4aBPD8pF85+NtKxmckM6lL/NOMNwGARAAgSGBuifD3z/2l0fsyTBMLliGpTtcHuS2spQ0fXt2xUoGntOQcSsLuSfKdB+Plmt2I/GDOqDSC630fbCe8NMkU0882ZCvVglPMvr6R4OgGoiXJwl1IpNWpcjyyVQ+Wl/Kj540zPIndHQ4uUdHmkT186dC6nqhbi+d0kSH3u4qrkvxeBKvVpbI/gnFCTTXf16+1gCk3aDpzeN1qt5ePxOHVI/OeY+U+v1nfkscTBQ1Pypb3rth29ghoZ/xea6HsZOBvqmty6tL3Ki8o3scwbWDXrjgfjOJcysdkj7XOBnsm/XLuS5ljvdkUE6GsgKB2qPLUwFz3Ylvr+PYgROEIlD5qdUDYxnpaa+9d+MGZdOE7dVDuh+WWyMhvnFz/zBv/8y/rE5LbVv3p6ufS+g4OhOz/nPW/8yeS1q98qT4Zjm/q7cUz/RlK+UsiZbjvf1bO46x6Nn8Iqev8+jHx3v5UxIj+Vx/FEB/PSu/sX5RH/PY+UPjZOD6kfvIRf7ySQfvXWIqW2I3mj8lvrZPzsWa+jX61DQPTM38kucn8/F5VH76Gafr2gffm7QJaXuNrJyRu/ZkKDDGJ0071sHv6D+1GJyDAAh8fQKHny95aeXLj/0f9csS9CsToz/pCEdh/DMeMPPEmsdR6azUsiwd5rid9mQI5Um4TMopco5LkzGJk8Zmv7Hekd/SxgaP11CuafJNXDqDlQSLjjyoZKY02eS9I+rARV7wTW0MpL9fTeI6+vPEX5bBykRP9JT7+TjkQ84PtzGXwFHlUVdX0CQk7cLP+g3z19HHcOzkL7NsjEAqB2XkR8j9vSRDGPmnk2udvwNNmHOeig5j/VfKV2/MdqBJu3qzNtEuPxbO19bPXJa5HRVDhupWajypXcnPW3lDLtfBEk+1wZHeNFEvc8Vo5QNFVhOvsi+Eumflu8myrrfSR/g8Cjm9x4sVutPsMzWFdSeDF8HXJY9UTqqMzrSnQP6sw7PNb6mlKRa5lDcpm3Kzc8KT+MCBEwVnZko3H0b6m2HalL/UzqjNlXrhZanr1fbNffogbenzV9JUyfPpXf2DOB6lnh3r+CI6kdOOVVf1UvRkw4E3k1VjRCl0ade2P7cY7ut/xv1TnL4dB93Ge2pju5X8+7KIr0WPQf0MI0o8y0/rr3W084sqsDs+cpD7+JOIa+STjqV65P0cPuz8QfoMaRt0LA63xHeFP4fs9E/j+ktOCF327Rxgnr6t39H4PCs/Pb7Tytv6yiuun7Z901BI/QeFrS9/Er35r0us9q9JXv//pEP8/L7+M5aJuyAAAl+TwEH/ZKU/H2bZGxzDwHgIAm9FIBnSMql/q1Q/dTrUlrdTmqDpGU+ZNNbJfnEAqAzriVtdFVEne6UsOJ065VIijJNBHIjFWDMB6aJ1MpQ0dNiuk0IH0ud6EljzrEPMPgWRsGWyp3mS3uZaQqc3rzShLb86IBN1Cl/2yajh27ORY0RCq/x19JCQ6SjhOyw4kDiu2gm9lbVyJbLWHBZpxQXVs2vSft/+ofd2coUOwoDAH0Pg6r7765AhR8p5NFY+Oas8dpEOYTrv23+GKuEmCIDAhyVwu5Phw2YJiv3RBNgw7g2QfzSZceaXDNmxCDx9RwIovzX479g/mLesZWXUmtoIBQJ/AoHinGUn6zXOwz+BzgfI4zv2nx8g91ABBEDgSgJwMlwJDMFBAARAAARAAARAAARAAARAAARAAARiAnAyxFxwFwRAAARAAARAAARAAARAAARAAARA4EoCcDJcCQzBQeBLEOBlj3XfhGgvhXgH/86vQ3goWX64V8LltJ+2/Asgau+BZm8H2qOg2SBREsrf7+u9BWizsG54ibdyDGSbaOm5Tto8fuDF5aQ3DusJTnsnhKx7Udx9Xqb8yAw9+5tqql+P1NfxwCUIgAAIgAAIgAAIgMDtBOBkuJ0dYoLA5yVARtrAICeDv2vDsQNB7XuRHQrGUZFlX+T3wjSpyECMjNLonsjp6M+Oiq7i9AMSeq/2y34Of9mDnAiz74HJsKcw2SEhzpLgaNTpsYru86/unLqbRVYU9DOzp/10x0/3kpPB6CnCw6NsCDlwUvEvlKhfFQnldG6qX2UwdUqzpfpVfsWjIwe3QQAEQAAEQAAEQAAE3oUAnAzvgh2JgsA7E+gYtdqoGxmd9Hvs5WcpSdYosM9qFD5yKET3sqzkBJkb+JwfpZvdWKz3ywQDJwNzS3mPfmnDZpWMceWM4YfuFyZKHt0vZlhB/SvWJ6dRZPWD955c52RopVB53LOSopWo7wzKQwfDOQiAAAiAAAiAAAiAwIcgACfDhygGKAECb0yAjdPBm+jDFW+2I6fBKDtR+MhAju6x3BsNcvqNer1Cg/Q4bvtmfls9YGJWfNi07coISuC818URz3YyyGqKCnts7F92s5CjRsu/za5uCGdaPWDy78Ok63G6cZz1u+Rk8M6a9dgICQIgAAKficB7/4zlZ2IFXUEABD4ugdudDNlIad5eyVJXXi573OlNYhPmPXncq9+98e/Ku1um/OifQZO8qWXJx+206wXmU/WVjJvKPder+kbdGRci/9b6dVX8zPvRnEcQr9IvELQanw3sftnKXgBy5JTOZECf9mOuH2WBgLqXyi3/zrfUI2+kNuEDwz7HjeoQGbQH/lQh5b9dnaDkubRbJ0PEYPTm3DoZwrQLmI6TgfJGeuWySnl0bVvYqXza0q46Xk72s4TEx7WbHDnUt6SluPG9LMM4TqwWcrXsZGjKPtZT5KZjxNGGKFer9b9EcCf3xnfiPusl1ZOo7d2dn3v5zuLL848271gAp9smsU/tOLfJh4xBro95iEyVsaZtUz9HY4EK8+RT8zOxul8rffKTFXiI+DzGdJ3sg0SaMnD9q7SPwfyJ6yGcugPIeAQCILBK4PDz28t+OHzb//r3f/t/7t9ISHdSmTs5nqDkDu1D9e/36ndv/BHU1Wekw/G0myXrq3H3ffhW0Jbrhd9w3jLZtHKuUI7yNqow9/K/On4a8K/IwX1Br9bPJTeM7yaZehI2PJeJihjY7s0ypWnKTMI53eSyCb/vezShiu5xXFp9EDkHJIH+0UzcKc8s57yfyrcfFLca8K0kmzeSp7NurwPjmDa9PPOSijmziBOrR44e9bkK6+uMQorLZUqbZ+qwbY5Sfl38MJjI9M6IybUuq16eOL0b66ctAM73zeNP5nZz/Igb7lUC9/JdjH/z+DMZH2tGbj8brcppx/QnjD/E8EnzB+rHD749vrHB2vCl/Gqdbi86jtnIv1NeEz3ra8cSCnXmvYK20d47s7zSc3HADebn5Gh4ILImi7gBAiDwZxDglQw/Xx7vZOAOijuxOsGlTpNXNmxbeRvKnm7N+nxSy5ePe+1Q8wS0LG/e9jMZIWwoiBGUlivr5c9H/yY+d7KRflWNy77xBF3JlYeD+JI/6ZzlzYQ10ml3/sQhsUg76It4Wm491J/tk2zYGCNsgU/Wva4SSMaB6Es6NJMzipMDrOUv5aSRIxmc5U+lJ1HMccDfhOtdzOIb/Yizm+SZ54e9qV9k8I3KdyfHTS1/MnI3bQTO9ON83VY/KxJrKO/MfOM6v6lffThyOw3aABu16v7ltG/GSHfya8LpjNMjS1v9mbqc7zf35JcttHxyCIyMXKWnbjuUBOmRDWCu28UYvs7J0G9PgZOBVoNI2rrh7TpPOf8Bp/SWKXKwBPHZd7MyWUx6npZ+ySLr5g7d9u7Cpbrmyt6H8deZg1lV48PINYWVT33c+CNBhsdZ/FH7z3GpPnDR5km8rLpJ9fS4n052/NNNR48ZZwmnjbRR+pyxef8z7J+Kzj2nk5NPxmoGKuND6jdym9S6U7gZ35yHW8bfrEaS0NsjpDu/qLr12zOFoXZW+5ur+n9VP3QauhuYOxkc/+1jzR8aJwNjVfu1LPFv54w0Tqa/Sf6Vkyjsk0bpp5rTH58Xyo8dtmp8Z2dO1pwOs/Ytz3X9ME4broI0Z9j2U7REhHTUFUqlnbK31j8Su5EYLxbXIAACIBAReLyTgSbL8paNO+V2kq+X0NGg6o1w/d0wdbqls2N5aQCiJcIH2lTtQh137RDpp/HM6jyaFGwyQBGCsX4J0sCIm8RvOmdnKKWB71x05CXTZQDd+af9xvqnt8gpzMW+0V3gQ/kbeeLNwMw751e2FHeWv8QvcFbkB9Py4TzUSZyuK0nESvmJFtFxFJ8mkHp5Z3YIXFE+s/JNdVWVMNVPaS+srroO2k/K0e31M8WnNBRjOs+NTG9maOqCQZnqoDYuShuVPBSD3UTMybufr/S6qGvTN5xPebPJ2KAOUmpumfpLfIueyVmR8nGdk0Hn3cjnvsL2fzwJpzRNPacwQZ4ojBWeVkE0uQpuiDMjeNTcIsOS0mmcRU3I7o1+XXFRTL7XllNX2X7FiZPNlyvtJ4on98bx1/qv3GdyXm3/SY4GNkxLF2DbUsoCtY8jlz2PhZdz2Utjln5i1R9fZs+FQmUud9Kx+dUVNrqr04vi6T67Hd/HfFMq9/Zv/fGHjMDu/CJndTQ+3sufkhjJJ17a6cTzFTX+zMpvpl9atSRzpMfPHyIng7034e/mS6KvHmuOp379Tnzr2GbGDy7fcfrz8XlcfrP2wSpk5yf17b59y3PSu60L/LT8x05IeolW+hKeoLGTtTgpzHyGoq60v2CeV1LFCQiAAAisE7jJyUAGPi3XjRyps6RpkNTzZhqAzEBAE139puDonAwy4MrEWBu+fgJbjBU30Z8pecfzaf7YmFCDoB4EVvQnXgpgGhSzwhR/xCcHG01yeJJYuFFZ6REsGHx8+RVVvPMoGABLOoPyoTyp/N5RNPOoUV4005XyGZVvNiTnijw7BE00ah3kCYkw1oZ888sIopc2jPS5PA8MZnmU26tp8/QsYh/dYzlOPoU7qtUhOm/FiZAUMO0zl22p4ZdLdv4918nAeW/qdVAmlA8pF8UvTRRd+ek8y3kY1whKNJUjdzaxbWOnO8S1KdNeYH2/4aAf0jlxqf3DeavnPuTTr5faP1Xwc57oe4ORDJT2nqmTnGU3JkrGltKntlHrBm1sarvw2fOUWFienbLSdWY5L5KnJx1D/Smt0fwi69IdHx/Cf2ykapZJndTXVUyD8lvRj/pK1S88ev5gHQpZazVXm/N340kzBgzy78ovrAPD8vesK3V9Nqwfiq3Eacq0yZOEzMf8vInngvEll3nbp5SgnTZbnvdOSAf5rKIXBvdBAARAYELgJicDyQw78EliEs/0w6bDzV5WNSsykxbqMIdG9NogsaDmzUGMviTF5M+JJaOGVmRInhaM0OFyuimflH53kHTlSqsseJKq1F7NX1w/bimfW+Ioha85jcpKM10oH5Ncp3yLUWsCv+VFYlr0KBOR804rGba8KZRpp0Y9NRE8b9ZpSOEysyLfxE1LRhvZEfvoHsty+vfCBfdN/e3que5kiNpjzZs1kJPq2YAszAWOy5PcvuFIOi0b/A2D2/SI2/uK8im9XshGbsOtF/MZ98e6SoppQ8+0F4Z30t7lZLi7/xEN87Hpn+rzhjs96rDXxpBpXxQnaIM1leedhfqzw+polpk3+g5XGqyVf8lVh+9o/NUsWU5un0WmPmnkz/WL+qviyNRpKceAZzTSP3Iy1LKYzO8kb6XOqHFGnuljk//0sK/fLP3ErzduSdJd+Qvtg2WU/InEehyWTw2WxNDLPr+SwYXxK2Gax50bvsw7wXAbBEAABIYEPpaTgQe5rSz/uuTv58qkfWEQpEGaltPd9zdarjmWXAdUeqGlNtnJ0WiSqSeebMiXDNKcbKR/NAiqgXiBD6mhJ7ppVYosn2ydR5SfMglpnBBt/oSO5iD36DjOX9JNl9/Zpa9ldc95OWLvLXA3Vnprat78tZ9LrOg/Ll9rAF7yN76qCowUzM9ur59JQKpHzFbeevMxvyVWE8xIGZ6A0N4N28YOiSZMrofxZI2+qa3Lq0vcaOIV3eMIrh30wgX3m0mcW+mQ9LnGyWDfrF/OdSmvfwufVFdOhsKe3kS5PBUw15349jqOHThBKAKVn1o9MJaRnvbau49Lfc9y++7VQ7oflptPrXN9c/8w77+Yf+lDqExte1/9XKLnJLq3/5mNP0KsV5567OCwrt5SPNOXBW1Q0ugf7+3f2nEs6UovKQbzi6yQzqMfH+/lT0mM5HP9UQD99az8xvpFfcxj5w+Nk4HrR+4jeVyY85dPJHjvEvvtSNr4UL+EovqleCW+tk/OxZr6tUn5ewdtND6Pyk8/43Rd++B7kzYhba+RlTOS5sXxngwUZ7l/LWDak6Yd6yB39J9aDM5BAAS+PoFD+XaLJ7x2A8hR9qUjHIXxz3jAzBNrHheks1LLsnQY8tImQyhPwmVSTpFzXJqMSZw01viN9fK3rV6Z4TVNvmnJaWewGsXlQSUvV6XJJu8dUSea5AXf1MZA+vvVJLajP0/8ZRmsLI8TPeV+Pg75kPPDbjxWxmxVHnV1BU1C0i78rN8wfx19DMdO/gpTv7FTYJCWsPFJMiSFURyme1fn70AT5pynstpkrP9K+eqN1w60fLoUQFcr90A4X1s/c1nmdoKhPDIAACAASURBVFQMGapbqfGkdiU/b+UNuVwHSzzVBp2C5pIm6mWuGK18oNBq4lX2hVD3jMD8Rrc4MXS9lT7C5zELoLohWbUyybi+/nOJRgbdKHmkclJldKY9BfJnHZ6tz5MIprx1FZZA+ciT+MX2wsyUbk5UcjTMHHWUv9TO/OTci6vXa+2b+/RBvqXPL3WxJjA9u6t/aDZureOL6ERjKquu6qXoyYYDbyarxohakdvPmP6/vXe5kWRHEmgdT4mnxCw7FxVPh9Zgsna+HCEGVbsGMqQY5FUgJJhF34vSIBRo4N4SYZoPRtJII50fj09W/k4BWe7hzo/ZobkHzfgJLStpddv7Z/x+0vdK9X1ibbje2Lax8eNI/6TG8ETlGNhnM7/m68tv26jsX+QCu9+PPslt/KWIS8r3I9VZNL+fw5vtPxR9lJZ9h+CP9jl7/L26nffT2H4lgGPbftsHmLd/+X5qfT/P2s9+v8vM2zzk1bbP+jUXvqMkbR78CSaw49cl6uezFdA39tQ7HX1P3vb+7NXIdQhA4CMS8DMZ6p+u1M9DhWuHY5iYmxD4VQSCI62d+l9V67uuR57l9Sl00GyPJ3Uac2c/BQCMwrbjph1Ie0xt4evJXS5TRBFk0ABiclaKhPKhGpHrBSN61zfl6QXbCcw6611/FB02AYIihf8QOmK1kx6WomxTx863jEJVQRIfYEj7ZLRy6jWx+22nWu+Go9HPtnOZyHzS9B0WPqUGrmZ1m2K7p1pWDsp2k8qNZJ+X1P2674d5Gw015iYEPgeBi9/dHweLBFJOo+/KF1bVf3eJDM16Xvf92RSJixCAwJslcH2Q4c2qhGCfmoB3PHpfkJ+azFj5XY7suAjuviIB2m8f/Fd8PxSjrGlm1D6xSQWBz0AgBWd9sPWS4OFnoPMGdHzF9+cb0B4RIACBCwkQZLgQGMkhAAEIQAACEIAABCAAAQhAAAIQaBMgyNDmwlUIQAACEIAABCAAAQhAAAIQgAAELiRAkOFCYCSHwEsSKKeLLm6VX3Go1urLHgflPgjbaaVSTtoLoSFwzr/NG5LH9fF27b5sxrVjPwKf/5K0lXznc9oJL985n9x2f0zWh2ZAnEEAAhCAAAQgAAEIQOBtECDI8DbaASkg0CAgTnT49QnrdkuAYBRAkILkp8z0Fx3qwIVsqOjzp19TaFXd3uDQByds4KGR1V+qN+7yazntzt/5vNalJa/fSHJTr/Bh/41eE3AdAhCAAAQgAAEIQAACr0GAIMNrUKdOCIwIqIPe2czv9DT/mUIbZJBd+J/iVtGnNTvlYTZDDkZYkeTeeoqzGepfPKg/b5z/8icpQ7nVL0L4i+0gQSF7FCrIE0ta9Vcb2vljFg4QgAAEIAABCEAAAhCAwCsQIMjwCtCpEgIzAj4AUCxN6Dv8aSZAZ7aA3JfZAT4WIMsY/In8HngvWNEKCMwkDvfbsxAkkJHLlDRB5naQIAUZvD4hCGKDDPm8nX+fpKSCAAQg8DEJvPbPIH5MqmgFAQhAAAKXELg+yBAdmuTgaK3ixMhI53pK68Y3aTTtaxxvlW+WX+/rlPRfrqM4j19CG4gM6+q+vNjPpZ3cKm1ty1f9r23/i/I36n9p3hfJ1xBmlL9YvmAc6NPJnZz5bIpNDrm5Jqf2+vl0cuc0K+Ls/JYH6XOV0bn43OYZDu3AQVzuUARCTFk6GyNdskEGLXuik7xjYvk5sBDkC5MnGvlHfJMsg5Nb8w+Kfk+3ciDozlLfyneWX+9/0vdv8TOZfsbRF7fquqk9TTnjN7iv7wn9vveBUp311JrttEeelEaedXnn6Lsj3lB57HdQynP5yZZffM/dLP/lslyfI75rN+/geYln2fvmSfoMGgju5YnfvTUXbY/B97+3E5a59cByHQIQgMCHIbA8xE7Aw+Oz+/HXn+6n+RtpKR0I7UwU6WzwIX7h1N9DRfpf/eFW+Xbm7/K5g76jdejeGTOdSnEuXy7IIMqEDk1SayeflL4+uTh/VX9d3r0/XyxfJcAwf+y4pY75GoI48nl9yvsP+OcqLHuwwQRbk1xfJdj0ZfXHLz5/6KRLBzKUFzvQS15CIUsrJDC19oIHtpLR+aaD+4uCDEO+I4HjvVvz76jiUye5le/O/J/2/SvvY/s8S3DS7M+y1/Zm/Hr35b3zxTqQ0l53CgD4d5MPnMe1XzGYWtS3V8FBus33q+hwx07MpvyBLFfdivL6vkBG5b+rZY+fVdfOjQrfvL9tYgn4yF5BDS47n08JNNwRqRWOcwhAAAIQeCMElt/+CIGF3749uK/P9wsy+C8Q7wzlkQf50vObzsnoujpStkMiUE5PbvUjFsEhyl+IOmotDpDcW91JvgilHFuGn5atzpOM5FdTwuOXYEu+3Cbn6NwZ50tv7sofRlubQZiufqmCaiaCdNqews1Yt58povyW8ss6dP5k3Lvzb8BnV/sU+WXdfuXk7+TTkU7A+Tbtts+0fpFn0P6x060Mv/hOceTrhZKlBXkmiMzSWKVDpUBn8sUy/AyPorMfNd6V308nCB3bNOPAjNqbDmAzyBDrEPvzbdrrzZm9GoJ0uoQiBwScn0GReSq3fDTPSKw338v51E7Ovryw30Mo2+SPiJJOUt6lMxn28o11bQ6z/IX9Ve8Xo3+2X2EQ7CeNxMpIoT6/X9ZsW95pCsyk7fyI4qXvtx32Xc50Mu8XgaEjkd2ZANVMqS9PTv2Yfe+PyfPtG4T3r7UP5RvQ2Pdb4/27CTLkmT/aPvo6qGce2GdB0ja/v2Ki3n3/7Ip9ayXxGU5lD54fnUVg61UZ/Ww5KcsGW/3nUw6+BkD9709/3/CTfsNTmHlp69QgQFPHHd/f3e8P836w70hFFRj1ny+5rzx67we9b8sPy+NC6fK/DDys8t7Z/lxPTmS+Y/LFcCb6eZkj/+J+1NHfr/p/Np2wLfW2dzmHAAQgAIGPQCAtl/hxryCD7+REp8x/4ZROhHy5+KBAdNrkC8t+wYvjYX/BTr4005eRLy+Uffadg9X/rF360nPOPa1r6WBLp2a1TqQEK/ryhUYddHIn+qlRNDso/uZAvzhV/ctTDhKc5YtagwyxcO0EaV3lMTjJ2kn1QRZ1kHfwGbePdNAC81BndMgL+fbwLSUuP43yz+uftX9olz7fYEsGmNiP2osX1Hxu2Ldy6QYZdtpPmFFg3YsdQQZ1EL88laOXel0d23Qsn00J8IVginCugnNlI80/1Z1UYeXLDKNgMpsibCxZyeA70ub5jA+/tJu+B/K5YZIk2tM+KXHjZJx/Zl8hSGY64UuWWyoTR6p8Jhs6xM65OGr+XXiOx53P7+j9MbN/BRLSmecg3vAjmPaydxqzrUi+8ft9zDdUw/tX/b/y+3H+/vMzy4rgZnjeNEian53YoPVzGi/32j/e9sHL8ns73BF5pS49+ufBfD8Mnx95R+hDrhW13gdR5vCulmcqv0OC3P33u/5ajy/+LGy2ywI02CGO+lbH8fd3kMk8IJvvj1Jeo6Y/nT1fPtHg/aD3fRBiMoPFBzFlEMaIm+QZ2YW2UbO99jzfOfCV6uMEAhCAAAQ+HIEQZHh+dLJcwi6VkPPeP3HwvyxfGr9b38uRr087OWc7k2FxwRmJ+aOj4j/JF23tgMj95EDlUVQ/6yGL8EvOup20kX5BsXIkvnDqg+i2UzVTpghS7OAzbJ9Wx8O2yUyYW+/P6t+hX1jekW3DT7VNnazgXN8q5l3yiy7amfMFZmfU2lbqzMc02mEsrweJ8q9SSEcwd8y38lZBBuH+xczusM9YJxjhZZSpuRon0f0mvF5m6ce28uygmPa2dpkDj5lJo5j7X9plX36oML6HYrDESLJxImJgMXGStEZvkzXN8ilGKX1b2LaUtuvZty98cj/UaG0sybCxyXDH2pptJ3+3p0sq9GVOmvJLVR/+/SvPdm5/mUUjwTz9t7d9uvxiQb37yRbEVuTdEI8+247nR77bRFrv6MegZAp4Jvs7exuW8uVf+X04sH8rS9Sj9axpeU0dh/az7/tDy1cR0jHpl674k8RUL8+eqXh/k0/z26Nvk+17qsVFsrVmSmwDMbaCzrnI2AzidNJzGQIQgAAE3h2B5ce3R/f12++bAMMoyCBaNr+Ad6gv+fod6hgF73WKbCehFWSQUWIzarJDnBdL0uYz0a+WRhwzmbFR6dTtpNT5/WfrUM75DNun1bmxbdKs/44Xp/XP9Suk2fAN+XOXvEj9az9sOpzZoc5OthkxrKRrdjClg2x/aaLKkz9WHFrcJXHvul8SERxf3yk1D3ywr6yLzFw6mefdF3sKkQmvw5POrjDSpdlNtpx8/+XO9tmXD+wtsgyhdPBErpuCDJe+3zb2XZEZ3G++vzY2GcqztjZ8f1TVv+THpvw6i8jY20ZeK1SHz9t+/9r3vVUmnG/07TzDbX65vN79jS082T0Z5s9PyB/S6fOfgq0d++u2R91+re+qhv7d8qb2U703M67irFt+Rz/L1BfUkFkraAUBdDBG0+jxmpkMmtcfO/IWaTofNnbYScdlCEAAAhB4vwSW73FPhp8ym6EKNozU6nUyRnnk3ubLxX5h+k7AmqbvhbWD1XIJdbibQYbgdMl04dv+jabr7iu5yWemX3RCipEn4WOcNKndOiphVokuEdkGMepp99JhGfEZto93cmbLJXbw8dM9wy+Q7Ehtkkgnblz/TD9hN+IrnTQ7MiO7bcvIcNUERqbW6e32U7dbriV2ZD1DO4KdU8jZpmMab9f6lbn0U9VZts+oJpFj73rR+bSBAC3XXju7p9bzmsqQtOEXTLbBH1uOFWxyfrX9zd8v8vzk5QLBdqw9+enZxRTlhg49rrFdR8/vzL5n95Vc8/1VvXt82sZyieJZGeiidW2Ptz8/Tfk/xft3HmRQe/SbAndGk5v8TEP17pfvnWD/Nkg+ez/LO2WVPZvCmosYqIsVp3eCEcTbZH4Pzuxb7uvSEelo+OcxXQjlDoMAMtMivog2/RP/fM6/P6wM5fd3+d3upameL39t8kxp29h6LLFb92RIZXXaI90fnIiMxXvCpr3h/WyL4RwCEIAABF6XwGKn3r50kEG+WLQ+/wWjXyamo2PTyNrlk88jHQPpPMVpoJI55pXOiOYJX1r1xn1fvJO+dVBG4LWu3HkZpc73NJ+drirnuRyV1a/3LPQLpUgHx/8qgOpaONUhjYyUpmUhxX2pP/6qgM2fBZQwT7WxYeZjZeu1j4tOd2hH6ShEnTX4U9TV/hBGW0xnr52sfXVaf18/KXDOt9x4a/G7aF9mPWFddNnubWVaV0/OD+Q3O3ChfXOfOLIPhl8UVnb2Q0BA2kyShnYe8ddgQCzSPKf6/OpRHZZcuW4ema/4M1+GPgfWsW6k985gXucv+YPMml/LtuXotfnxJvu78fnxHX+/WWp8R2ye3/rdUQe4brPvsf1He9J3Rzpa7uXzIVPWNaS76/0xbx4x1viut/Xuyaj5aoa5HCtj+f0Syh/zCWne8vvXB+RSuzWecfv+FNsrNj6c8RvfD89VYJ/eC/LcF98NY/v1wdW0B44Em6IO8k6o9SquhTaet18MfEhZUf8kq/9+sLaz5TezH7+ZbbFxsPwKQ/n90bcfsa/+85WfCytj/X6QrpFck7bSwQd9dmSTzPGvS9g21Hd82X6hLJvO8tOaZscgYztVKHvLvp2aqxCAAAQg8FYJpI0f6/0YZsslQmegjNq/VSWR6y0RaI8evSUJX1sW7cCFzlvgFTp82VnKMobOZHD0qrS2E74JRNi0dYduG2RodiTrETVfny3L1FHVbzvr+usLvoPdnbUgneeovw16dPaEyHzqsyBTU5866Qt87o0uvkBVFAkBCEwIyCDGa70LJqJdfVsCLSd5F1fv3KsLvHNG//0mMjbLfd33c1MkLkIAAhCAwFUErg8yXFUdmT49Ae+I9joYn54OAF6awCvaXzHKXIzuvrTSlA8BCCgB+xzKbJZynoGm4vgqBF7x/fwq+lIpBCAAgQ9MgCDDB25cVIMABCAAAQhAAAIQgAAEIAABCPxKAgQZfiVt6oIABCAAAQhAAAIQgAAEIAABCHxgAgQZPnDjotrHI6D7NeimXLITu2xOmTdFC/uktPc8yDyknNFa5Jzf7rGQ86f9E+y637jJ267px5ektdXK1mi6vbu9fj65an+1sInal7GetgjOIQABCEAAAhCAAAQgAIHbCRBkuJ0hJUDglQjIJllh93Lr2EuAYBRAEGHtr0/UgQsJYPj88jvzPc1k7Wxj00UfnLCBh17+5qaR5a7pGkipdWnJ69Nu6hU+7P/RawKuQwACEIAABCAAAQhA4CUIEGR4CaqUCYGXJKAO+ukp/+a7qe/0NN/MzAYZ5JdinuJW3+kXHNLPRrZnMkgwYT2FncA1GNA9bpz/8JOaZfCg+kULr087SFDIHvUO8oQPPgjh62znN6g4hQAEIAABCEAAAhCAAATuTIAgw52BUhwEfgUBP2OgmEnQd/iTM+937t7OFpD74ph7v1yWMaiD3t15vRUQ2Kd1exaCBDJymZImyNwOEqQgg9cnBEFskCGft/Pvk5RUEIAABCAAAQhAAAIQgMA1BK4PMkSHJTkwWrv+hv16ct4R0qnXev+1j7fKd2v+m/UXh/CL01Fj+Qku+a3v1mDxzVW5k1uXxS2Nn9vLjuCFtdzK76L8ffkvlHp/8ovkaxQ7yl8sXzAO9OnkTs58NsUmh9xck1N7/Xw6uXOaFXF2fsuD9LnK2Jjh0A4cxGBGEQgxZelsjHTJBhl09sREJ7NkIwcWnH/vhOehkX/EN8kyOLk1/6Do93Tr6ud/puStfG/NP5Nvev99v5/tzzvqd4w/vswXzJTmxQl2tL9/X3WXUcXvjLfWb7kYBBkgAAEIQAACr0tg+f74EBzWh0f32x9/up9/5b+RaNKp3wQYJIMNPsQv/DfVP7lVvlvzj6DuuBecQ7NS/iyOVByF3pH/8iTB+bsk33Ad/K38Ls5/ufyX6LpJe7F8VQnD/LkDHDr+awgCSSBofcr7D/jnLuxFYIMJtia5vkqw6svqjxKsCg7GF/fli5ansx7MvgYi37q6tRc8sJWMzl8ryDDkOxI43rs1/44qPnWSW/nemv9G+O/+/excfo8oC2F6xy/x4feD1nntcWf7S6BhpFK3f3OtXOSDAAQgAAEIfDICy/fn331g4cfzo1sen+8WZPBf4N7Z0VHJMMIozpE4KWk3/HpE4fTkVnFyxHFavrhVF4unUXVxcOTe6k7iqPiRdusEiVOp+aWuan167IS05Mttf47OmylXbw7yq5P29FTq92RiAjrq66eoazrLwE8b78i/o7N3U/miY1G/zJConHQdKWqN9EQ2oe2yDkVnbsBPEQ+Ps/wz+Yv7DfuQGQHFTBFxup+MSOVIpczyWGXzRW3jmXy+pOvsywgRgnkCNs04MKP2xoFvBhmijGKDfrZR0UCmFrNXQ7gqbOR5CjYRVA5BrrrN82fzDMV68z1rI1qmlBf2ewi/YGHyR9GSTlJeDHbsnsmwq30Mg/p0ln9kX0b//P4RBsF+Xvz94XWZ2/fQ/kfPf6v8L08ubveRZ7aN3v8zvrEOP8NKvgMuaJ8X5yuy956lKOebfz+bIEPT0e5+P2tDDN6Pxv7tO6BEVtmnsR+pYc7vyfcJ8vNl3s0qYpyNVdZrbsb7zUGUMhmfIAABCEAAAhDoEEjLJSTI8HCPIIMPBsQvdt+pKDuC3qkRpzo6ZeIwlF/mcbp2FFg6Fakz4MsLZZ+f1hBoOIep35rmaV3LHfGl079aJ1FGg/vyhWoHTuBEP+nI+sCGOp2taewx+CIdUj81/RyP0sEbyW+cx057hsvXlu+dx9w24uRJ+7SWSzQ7oFGo8UjVHv4j7Ub5xVEdyz/kmzqXsvgg/DsLSxNkEB6y4WH6J/al9uQvms8N+4+l9oNYE/vK9dYOzY4ggzqIX558ICUFRvS6D+xlx98H8lKF0sPXjSY1IGBvXnhe27Kw8gGDEGSQ2RRhY8ny/SG1FEGG+ODvDjLs5dtVZ9y+M/sKM73i8qb4PtN3l1T5ou+PHfYdnuu+/SuW3vPvf+3EPB4haJkDvZJPZs/oI7R9/4/5hvp5PyuH+7+fgw1qEKD8bpZaB9/P8dkcvx8bMyXUqLz9V0EBH7TL9uOTDr7f3M7n274vTPXptGffKQEnEIAABCAAAQgMCSw/ZQaDOBcP39wPs1RClk30/omD/2X5kjqKvXSt65sv94azUcxEsEsBoiPiy5WORu1g+E67dZL0fOuotGS7x7VNJzt27K0j4WqdteKZ/L18ml+PvXTXlG+Za/nJWbHeRL45DjLkdHc/a+lt5Z/p7wUSB1rtZnFfjEPkO7Am4HB3+S8pUHQpjCoHGWwHOTnkvuzsIJTXQ8X5VynE0Rs9M1WQQbh/yfuEqIPij51lFV5GP2MhKq37TXi9zNKPBpMku2lv+17JgcnMpFHM/S/tsi95eE5hBlYRnArivOj7w1cxsm9JMLsf5LQ2Fq74l0Jlk+FOaq9L3oWp0PuevChfY49DqXvpZvbTyid5Gu+kZvtEoWbvZ73fLONsZxrK+9EMAnjbsQH9NgUtf3PXP/ubuSk5qKgZWhz03t6jlNGajRfzN3XfWzbpIAABCEAAAhBwZibDN/fw+O325RITqPLlXfhGRYchjmLpMFfdKbUdqlaQYWcnZyLiTbdv6sTO5Lf6j6QsmNqEwTm0V4rzVr5OnaNOWLcTWVT2Ah+m8k/0r0USx1dmzKROfMjfDq3UmV/486ZDnh3q7GSbUf9KHOv4pVviQNhfmkg36pOKQ4u7ZOldN7N7/PRn80II74esi59NY94HvthTcES8Dk86uyLLmPW35eT7L3e2z7787JhFluFUs2JaI7n1O9ADWKvZX6rRvvo1tUyjKu073Qkng/vN539jk6EYa2vj939V/wt85P08nkkgyPvv78n3c/z+mr0fu+XvsB9vEt33yn6D2dhhlbVp31UaPkIAAhCAAAQg0Cew6GaPP56/uYflsZjN0M8W9lfYTqUc5Qj3Nl/utsPgHdo1LCGQznVc/5l8EH8/jpQ0gwzBqfqS9nGYy9NOMZqO286hV/dOd+6xkw75SP5w33Tj/HTSUeBGJQvHcfnipOSpzNcvl8hTXsOsl2oJSynS9pOfDiubD25HtbaJ7ZW5/GP9pYNdOn7iENoZA+LA2rY7e/52NM/K0zu/3r5SiZ0Ouc62CI5sfzaCcEjLJVKh8vyU+plb5jQ4s8kK7TNsUnWDDIXsNhCg5dprZ/fUep5TGZI2/AJKkifJYMtJF+cnV9vf/P0j77+8XED0LXm/9PtjZt+z+wqv54RtnPhquvvw/a+FT4/XPz8vzfcjvJ+HQYAvg+9nH1cs7bn1frQ2Un8/2HveDCr78dd675up3eQEGzvMt/xZz76rZHyEAAQgAAEIQKBDYPn6EKeGPzy67/f4dYlORXJZvrh1KrX3H7Uzb6Yt2jSyt4H8PGPYGE1GUaKskjnmFYdP8wSftN546ot3ErcOyEBQGZHxdfWdtF5u30nymyVGWQunXcvN0/GFR+lLz+UPHbNc/lMa6b1D+dFpDu0kDncs04/mt8uv1+57x1zbqtC/R6287ke3G1PJy1SdT0P5Jc+Yr3Sw/a8udOUvNyZbZNPHxL8j0+aycrzcviSI4Afyk5NtC5dybfAg1lMamM+wCTLE50mShufJlmPrkHMNBsTr5jnW51uPNiATUuvmkVWZvgzlYYMDjfSie7UMI8is+bVsW45emx9vsr+Bfel7Kj3zhptyeun3x8y+x/fVbsv3V/n8l8+HtJOGCvfoP28dSaFy1O09z/3SfEWC9/x+9gE7ffcV75LA1rZh+f2s7Mv2b70fx98PZX5rP7ndS/trvN5UmO5RnvFRPtFTn8luIdyAAAQgAAEIQKBLIC2XsD9dqefdXHJDOvomODBM+4lubkZiPpHu91E1jEzTwevTDE6wjhgGXsGpbzld4pDp9SptfIZ93k2P26atAw7bIEOzveoRR1+fLcvUUdVvnRn99QUJEPVnLUjcMeppnHdZ6nJZgDHU0dSn3yR3u8P7424omwXBt4nlU130708Jfg+0JsgwgMMtCEAAAhCAwA4C1wcZdhT+2ZIUo0BpHf9no3Cjvt4RHXcAb6yB7BDoE3hF++P90W+We9yB7z0ofvQydJaMBnE/ur7oBwEIQAACEHgZAgQZXoYrpUIAAhCAAAQgAAEIQAACEIAABD4dAYIMn67JURgCEIAABCAAAQhAAAIQgAAEIPAyBAgyvAxXSoUABCAAAQhAAAIQgAAEIAABCHw6AgQZPl2TozAEIAABCEAAAhCAAAQgAAEIQOBlCBBkeBmulAoBCEAAAhCAAAQgAAEIQAACEPh0BAgyfLomR2EIQAACEIAABCAAAQhAAAIQgMDLECDI8DJcKRUCEIAABCAAAQhAAAIQgAAEIPDpCPggw49vD25ZHt1vf/3pfpq/T0cDhSEAAQhAAAIQgAAEIAABCEAAAhC4msDy8/nRPTw+u+8PBBmupkhGCEAAAhCAAAQgAAEIQAACEIAABNzyNQYXCDJgDRCAAAQgAAEIQAACEIAABCAAAQjcQmD5+hyWSBBkuAUjeSEAAQhAAAIQgAAEIAABCEAAAhBYlmVx6e/xmT0ZsAkIQAACEIAABCAAAQhAAAIQgAAEriKQfl2CmQxX8SMTBCAAAQhAAAIQgAAEIAABCEAAApHA8vOvZ/dVZzM8fGMmA6YBAQhAAAIQgAAEIAABCEAAAhCAwFUE0kwG+9OVen5ViWSCAAQgAAEIQAACEIAABCAAAQhA4FMSIMjwKZsdpSEAAQhAAAIQgAAEIAABCEAAAvcnQJDh/kwpEQIQgAAEIAABCEAAAhCAAAQg8CkJEGT4lM2O0hCAAAQgAAEIQAACEIAABCAAgfsTeKEgw8mty+K+PJ2n+B2/UAAAIABJREFUEp9PJ9dOdXZPXxa3rKdcxml1y5enTnqbbHUmV75RnZ3Wxdniq9udj0Guab6dsrYqOZ8bRM4nd9pcDrLs4Xxa9zHx8ojsuhno7LijPUodz+7pqdU6ossFMhaFBnubtonPI/V8cS3TPD992WWzUkyzjaxMzfayCcbnIsvQ1l/Zvrx8CfjZtU2292x7gv753tju+cl9WdrtY4nJs1vnzcwusQdb6vZc6ineQe7kToX5ntzp6exOLQBS3M528rLv0NtKWMp2ic6N9vLP/Jx7qn+nXim9OWk+O83npf9+e2378+26lO+r0IblNaP25rRlw5tEmwtvx/42onEBAhCAAAQgAAEIRAIvE2SQDmhyQGJHu+OsfllX98Wm1aYRZ6PhwJadS01cH22HO3RUW06zVHt6KoMWmw7wxunZ6Qyf1tIJ8uUsTee9dpa889DiteFUyTKoYz0FJj0OBcFC9pNbUzuU9Ulb1LIX5fQ+dB0a2269zOLhiyMaWa4nFzr34bOXR+8nuauy/P2WQxVsZYO5yi4fu22kcsmxV3+h/8k9NSIeU7ZFG1VMrAyNYF9X9o3iZXtnDNvrvTI3RWoh0gaNm1O9Y/7Tum0/yRuKtDarFYajtZXWs1C32bYe0d3WHevybdp4vkWgyoGWwOpJgkhVO/U+N58x4Wftq7aHUu3NJ99ehr/nYj5vMtQX6vr0mWvoVMvfs5XiO8PXt7WzIMb2eq/Mrko32p8EGWq99tqu16H4jhR9GrbjWVpbk5xvxP5CQ/A/BCAAAQhAAAIQaBJ4kSBD6sBqx9t2hptibC8Gh2HU+TKdslZP8rQGh6Pu4CdHZFunXNk4IV52O/K37eA2S9p0QluOT7usrWMT5FI1E1/f4WyPnCV+axlEKWVt1192oK3cZfqLOtVlxU51PJXDwu789FTOQjmfxzNXKs6+/ab2dnZPQy4qbAh61M6E3A18Nd32c8kwp/NnhYMRbU4bNyadsq30ds62k9ZXtpdeVfb6WY5Wn6l9beqWoEvLGWrZpjjYJki0rG5Ngb6GvOKQW0HjeVGfvmcWnZlkWMi9jj30GEugUYONRT2+brUdsQ3Rz9SlsiV9GoJH1i2baqduz5qx7RUczzDjQq5vghUd/aWdVY4ei55MW/vecghybW1gy/T92d9W/xBMV55dbnKjev6HaTc334b9bcTiAgQgAAEIQAACEDAErg4y+KntrdEgvVZ3pM5P7mktp+H7WQzNDnCrw2qk7p7aYIAkqj+XndluMa0bxpHZdOKNg+gdtM1onjhgWafcuW84Vb4PGh02PzoYzq1Tkc+3+ZtORnNELPBpLVEoy1jdycshQZ2oR9Ivytnitevayckyjg3PVH4MJCUb2bZn4Vyfn9xqZwVEuU3zbKQqdTWBKy9DcJBaS3rG+UI5XYejfjZ8sKicli/lt/K/tn15xzEFaMT+gmO/dRy3thng5+cgfdbggA9ePPmlVoVNaAMmO6zaKd4XZuHUzNqRC1WgMdQr8rXtVxhrlU29vP6qhznWdquftbBofalte/povsYslMQsPRPGuW0Ef2KV7YMJ4Fmd24ljzbJ8xMgXzuN7Icr0ku+3N2l/cZmLfTa/fOksd7LPvm//tg3228AEGTzv17C/vnTcgQAEIAABCEAAAkLgyiBD7Ng0OrVp+YHtTElN0qFqdLarS75VggOXO1+287bp4NrOdnTWknN2Ormn83nH1PY42mY63YV5+ACDjshpJy+kyI5NkcOPViU5/C3tDNpR37YjlhwbYRb1s/Xk80b+2Cbnp9XrHkbsc92llI38Oxyfsg2US1myfiocOV92Tr+ZtWADLFpAddzaggmCfHkqp6Gr06Mjy97ZzA5oap/NaHmPVxYmt0G4Vn9ujnRq9vrZkOvVsyR6tp4NLaJOb4MtyX46M13S/SvsK9iViLu6k5F52y7ijOa2TnJvRv6VtR5zyjASnt8D9k7SwVzMbdAqyySUU/9M1w5zkNeWbc9DCfr8ax31sawny5Svy7Vke/GyDWR5loPGl/zyDIYyVJ6tDeUazVlT75pD/bnRjqbtQ+nK4WXfb2/F/uzzdz6fQrBNlv7FIGerjYWTzpCR8/CMtwKnub28LdTfcb0gV5EulHF3+zPvjCwlZxCAAAQgAAEIQKAksGSH8cF9/+NP9/Ov/FcmNZ+koxHXwpd9YdNhqh2pmMeUUkzRTtd9utXsA5Du7DzJI5QyFb/uZNWfQ6Eqd3ZAMxcdYdYNt3JnWvK2y2t1+HO+7Lg0nHyfNTpWpkNn68nnjfyx8x82elQHROtu6dd24krYmj9frZc55DvmrLYBueWdHHFa2htAZjamnMapMCjaaDO6qk6YzZx5lfUELjMHoSgpjZqHq7lNYqqNE2Zyt7iY23IaHJDqov24KT+3UdYt61tmvda+pLzggPo9PoxTk+vUmtp122BISBnklllOsnliubeplNG2T1/fk8yCkeUWX9IeHeF9lFl4OylfUr7aUt6yHnvPngd5G8+U55Dr9DYe2WzsovfOkGc92nBDXIUqluHW9SlxKeTb2IS+10z25qnYfyOQIGk3ZcYCNtez/lmmtg2k+xe/36S8t2F/iUulg32HjNpR7ELT+kBC4/0l7zdfRvFcvLb97Xg3NW2MixCAAAQgAAEIfCYCy9fnHFSwAQY5b/1rdoi0N2U6yrUDKOuu5zMZ6g6USJA7lnWZ4XOncyzLMxqLuVud/p6e2gks7ouOqm/tMIz0l40XveMRHJrV/1TEvTvh6hQ8uTX0TuPeA1q3HguN2h8KXcxsAdMZNhiaZehU+vqmH83rtE9yQOpM1edxO7a52iJa9UiZy7r2HS5TQPM5MGzENpv2I2VMgwzBRuzKD1910SblaHN2+l/YviKD+tdKtjx7bVDboHwW+/JgKvZtDr6dhLUaYHTCsk3kYJpvg8JJ02fklPflEK6dgMlWL5W/d9TyQ7gkyxTB6TvjqQ6oRP2NHD7H6cn8EooyVS5VEMEH8Eq7EDtUTFmC6izaY92mkkrkT3aM/SVwyQalvTb2Nwg+SwnC+8uXwuZSwWofje+ukKZnd3r9Je0vSlk9L1Z2ziEAAQhAAAIQgIAQuDjI4LHFUaxtB9xArUe6Oh3U1IGVrKlDbTpMpshLTvNU/LM7nRrrvMUJ/KJruKuSRdbYM8/lxDSVXi0nwqes0vnlIibI8MWvZVenoaw/cS3kyLLmOhv5vaNhAi/K3dd9AVfNVznOOdBj6ijFV1CVw1gmSg7NtJ72SHbq5F8pX2JcihWX1rTrtEnrmQa5TVR96xzanNHJsJ6fZ2DrHIwsa1GvZV8dJ2jLs2GbXvYcAEi2ZB3r6PAGNdWZjkpHW5F3xrY+69gN7FzKSM92cKCl7ex7yJZtz4MUWnbvuNPJG/zaS+Kitq180t4SFZeIJ42u6+ddR1tWbButz6vSCVJ8YvuT9pHvjmQz6R2Wn+HN+yC2hX9vif0ZO6ybqZc3pOvZnV5/QftLgoqdZF3TZU4gAAEIQAACEIBAJFAsl/j67fd9yyViB3PbAc9cfWeqNwXXJwsjiWEEM+cLZ6bDJBekPtlISzvd9mg6xLkUmVKsQ0E9Zyc4Jdud5+v0pcOna4K1rtrZ1OuifxHE0NFU37mU6c59Jz1xNR152/HMddayBlZ9ThVXFbZ1FDmbbCVxo966DN/xXqvp75rIto9eC8eke3l58ynY13bUNus+7gRv6xGd1KEKzlYyoU3t2wu2fbZ3qyvGkfZ61JzN/Spn+ij5XsO+NjM4ouyb6/4Zbdl4bYONzwl83860/ewa99wGpszKjtOeMULSBzXL59tfNr+UofUk8GlPCa2jPs6dvG2ZWrqWFT9v9grRdMKlYd/mfaEpp8eGrVmbzO+asqTPan/J3jaspe1kmV/+lY9kxgmd+bla/z2g31EpgT/JdlxeD5/URnrHX2F/zrwrWzJyDQIQgAAEIACBz06g2Pjx+8Oj+22yJ0PTmdj2puJIox3xqByGqvNfNoR2oOLVTYeudz04in6kKc01r+o1FbU6czmIEBzN5LR6HSu5fH+u0dk3TrjnZfiEOq1MMtOiXImu+x14Z+RpOyKeO/62nB4Tua5y69FAcNv6/V0fJBg58S0H0pTr81dBBnFoYoDIIDGZJJ7U4lkkyR+SE2btTG9XU8n1cjwW9XhZ63pD+7fkbD4DNvBlz9sFhOnSzSUVURfZb6CV18uf2/2X25cGy0Y8KxnLpLUN1p9tamHRtjNtP3me1KbkGJCFtvPXJQiSZgDYssN5fpbyPS1brthzn0JsxVeictfHOKMiLofYvmN0SViuL59pWflK+0zav7bX4FxaFum8a0c9vrpfSqee13y/vRH7q2eNSDuHmQ3x2bTfWS2Zkx1tW3hrMyZNyqe2Uh9/hf0RZDAtwikEIAABCEAAAg0Cy/fnOHvhj2f39eHR/ZgEGaQM7VA1O7q+EjNSbUfKzHl25htSJac43rMdNpu8c73spGWHzGaV8zKdXDHOSeHchI7cU8MB3jghoeA0Jbsc9dcOoZVJO/SVdKkzKWkXt51x4SvazohoMtF69WjreqEgg2fZchBFn4aDFEVq8rTierVPYQ2/2JPOAhBe6VzuR24bBytc93uE6K9RaL66ntM6X88e82xtqS7MfPbBlhaDKJsOcPp0DYbJNqRMyaNptH3ttTvbV1IjPyuCeNtuVoaUyQS89JrKrJ/tsecEt+qzz/OozFx+K8CQ74azjV7JJjSIVdcV9ZY2ak0pr39mtaiwLqu4aT5IHQ37aT77Jltx2imjSNPhj/2JAeblEvX3lWeY29L+ckjCWzBMV/3J8F3yJuxP7KJhf6UafIIABCAAAQhA4BMTWL4+6Gj1g6s3gexxCZ3z0AEtx+BDjk3HXAtKm/11HB9NV3favLOlcpbHtC425ZXOs45oysXwOY3q2VHmNPKZMndPrEOSp1y3OuGdkcrCYRSZ1DFspJcOaOX4Ssdz+5OAtpwoeo+VL68lr3SGdeM9o35Dhny3UW++mc7KdtDL4w5qbTvbDrfUHTu4RUdfyxc/Ns/+kHZLNiI62c6x/yz2pG1hyjCntUzmVjrdyplu7ToRORcrW8xVyO+vNexFrv8K+0q8tsy2jNRG6iCWtH/5DKdAkdcvO2d5H5MIwxy29V0SZAgybOJPsXy7D0tdT372VRgjb3zX5HKFgdmg0gc2n5zGkLSEfLRl5avbM/MM2Ju958Gm8ee9Z7B6L4tNVe8h/z71P6FYFfrJ7C8HGdTOKx7yUZjIL4G0eMmzlA1FftsyLS2z3zV1qW/C/kT2jV3UkvIZAhCAAAQgAIHPTKBYLrHn1yUElneQ606Spxg61bbv5B2F2qnYfK5HRarOdq/z3Lxey9DvBO5xDINzb4MW3lNIPzeXHFjR3zthVpcgiw9wFFCCQ5QDH5onpu904NJmib5DHx21Om2TieFp82o7xDJU1yxX5Qxq+saxUi88U76TXblUhlGrPvnVDe+YxTqEb9LbI9Zpycq7I2NToCDW9v+G42t0TEV52Tv1mfRbftq+ueYQVMhlpTpyknBmp/obdvFmZlUVULLV+m+3r7Qm3QuQ26putxAwCc7suuZNS/PSHVXU2KZeMpwrteLGnO2ZPaJzSN8os5B3HFTqzmhKQVIVVI5nJ7OyQpsrZ3tfGMT6ms9macfF+8QWU5wL90ZdreetyKd2PtC/ej8U/LE/P/tNn+9g8412MMzDc9hIIywLuNo28k5opJcy34j9jYIgRnVOIQABCEAAAhD4xASuCjJ8Yl6ofiGBpjN0YRkkhwAEIPDWCIyX/L01ae8kjwRH6sD2nYqmGAhAAAIQgAAEPg4Bggwfpy3RBAIQgAAEIAABCEAAAhCAAAQg8KoECDK8Kn4qhwAEIAABCEAAAhCAAAQgAAEIfBwCBBk+TluiCQQgAAEIQAACEIAABCAAAQhA4FUJEGR4VfxUDgEIQAACEIAABCAAAQhAAAIQ+DgECDJ8nLZEEwhAAAIQgAAEIAABCEAAAhCAwKsSIMjwqvipHAIQgAAEIAABCEAAAhCAAAQg8HEIvLEgg/2t8MUth+OLkZbf+j4cz1eXf2v+ZsXVb9TL77Ef1qO7SEpTxi36NeW75OL56A4i/w2ML6mOtBCAAAQgAAEIQAACEIAABCDw+gSWn3/97r4/PjhxaJflwX3/40/386/w92riiYN6OLrTenDX+KjHw+pOrya8c7fUfz4ejGN+dtcGM8pyfj2M167/12tMjRCAAAQgAAEIQAACEIAABCCwfH14cN+ff0+BBQ0wyLH97+yO6yEGJWSk/eADAs7FWQiH1a0HCVis7nRa/Wj2Ujj9vfy5NnFQV4kSSP5NlEEc71y/zHZYDzEYEUfPQ8BEZAh/viwtfjDSLw695vH1mrRpVoW5tpFtVn+6n4MnoquvM87a2DjnkicqoGlVH5V3I4dzblOO6n8+xfYJum5nSvTbR+tXRvZYy9CtX+XgCAEIQAACEIAABCAAAQhAAAIfjsDy9TnPXLABhl6QITiPpzSF/yxOty5r8E50cKDPxzUEGs4SK4hBg+T8dvJ7vGc/EyAsETi79VAuFwhlmQUE4jQv2WmXIvbMJOg5wZvrEuhQr940/yaduTesfxM4CfrqzIui3LPcy+ykCrlfiLMpLwhSlGNlW9fUdv6y8FvzspSQb9Q+prDBaa/+QRZuQQACEIAABCAAAQhAAAIQgMA7J7B8fXx0D3HE/+FbOaOhrVs1Ei6zFNTnlyCDBhwk+GBG4LNjPMgvFVZOvQ1Q+NkSWn5bOH916OTHfH0nWAIb2REXJ38zmSIFS1TxUphx/WVQoZ6tIXLlGQISUCjrkPuZZW+2R2cmQ5pJkWdshLrs8pJ++5SylWXYmQwSYDosh2wXJR4+QQACEIAABCAAAQhAAAIQgMAHJbAsD9/cD92H4fnZ/Rb3Y+jNZCg4nM/Oz1hQx39XkMGUUOf3PnPpvHonOHnV4gCXMxtMael07OSHZP0gg5ktUAU8UgU3BRlsYKAKOFTlyiyRQ7HUxMimwlw0kyHw06zTY6N9pnlighHfvWWQDgIQgAAEIAABCEAAAhCAAATeF4HlQYIMMbDw27fH6caPYfp+Hl33jrAGAXYEGYb5ZV+HTRChdMTrjRDPcY8BFUHw29kHYVQ9z0zQ5hk7wUEOW47m0+Mov83Xrj/odJQR/2qaRF2ufNYZIVK3vX8+9X/BwaZTmeUoM0MOR12cYe+E83H7bNP3rvTq76XnOgQgAAEIQAACEIAABCAAAQi8fwLLj2+XLZeQWQJrsfGiLpcwPz8pHn/cIFGcaO8oL4uf5t/NX0zl1yUKpsy070K5MeEiyxnqJQUyuh+XgPhNJ1NMxJZnZ0zY5QKhUb3MNnLhL+/L7wMvzfqNwXg+Vb2RmZ+9obNDnAQkzM952o0bZZaD3/tCfypyj3z1xpkHv+eEIuq2jxF9zylBhj2USAMBCEAAAhCAAAQgAAEIQOBjEVjqzR7t54+l6hvTprPM4Y1Jeb04MWhUz9S4vkByQgACEIAABCAAAQhAAAIQgMBbJ0CQ4Re3kP7sZNhwUWds/GIhqA4CEIAABCAAAQhAAAIQgAAEIPACBAgyvABUioQABCAAAQhAAAIQgAAEIAABCHxGAgQZPmOrozMEIAABCEAAAhCAAAQgAAEIQOAFCFwUZPjff/2f4w8G2AA2gA1sbeD/+3//Hyd/sNmygQlMsAFsABvABrABbAAb+Dw2QJCBwAlOETaADdzBBggyfJ4vTjpJtDU2gA1gA9gANoANYAN9GyDIcAfnAgPrGxhsYPNZbIAgA7b+WWwdPbF1bAAbwAawAWwAGxjZAEEGggyMYmMD2MAdbIAgA1+2oy9b7mEf2AA2gA1gA9gANvBZbODyIMP//Nsti3PLf/7bPf+38+f/8d/3N5h//KdzL1GuNKyU7XVYnPsP0eMODsZHMxjLSFj9/X9iG2v7C7sXaPc3z3Gm/9771z4/Wv61+W+y9X+7v8uzr39/+/d9gxOqm5Z/zfNpyrjKPjX/FXwJMtz/e+DNvw9uep7gRftiA9gANoANYAPYwMe0gWVZFpf+Hp/dz7/+TH/1RpPeCP75b/cf6mDGDnlyQN9BhysEL7Jz9Ox1+Lf7xx1l/6+/3be8ez98U/mkjf82Dr5IgOkqJ+6OnO/N5ZLyZvp379/6/Nya/x78o33Is/Rf/7z8xTiyv5pbeF4vr6MuZ3fb3sCXIMPl7bS7Xe5ht5Rx36AgPOGJDWAD2AA2gA1gAx0byDMZ/vjmHi4IMvjAQgwyWEdDR8DFAf3Hf4eAxGKd7v/5t/v73/Jo6N//Ozv8vsOpI4kayGgI/l/FTATnHeLUWf1nWX4xU0EciP+s6vvX//kZGSKvOCZ21N7qksr/1/+5on6rW3RQ0khvHJEtgjAz/Rv62rrlvFf/VP4d8qnOhQ6NEeuRE9eT779iu9vgRKqvUUett3zW9F37GrV/ZKtleB3/Fuwl2fDO9hnpL3J278c26D0/qnOYMdAIVg3yT9s/6l+0j8wYsux38JN6VP7clnGWQ+S5LP92//if6vnfYX8bbpInPrN79Zvxt++f4v0gfAZ8tW16R4IMBBl6tsF1bAMbwAawAWwAG8AGPpMNpCDDj28P7utznsUgMxrqfwFMcCa8U+Y75A1HKAYKfAdeRjr/+W/3bEY87bk4fIUTHh2hjbNRXM+j7H4mgnGS/qte/iBOkwYWxOlpTfE315MDFev7X3NP9BdHOTmk0Sn5ezXqPxqplTL26N8zwln9M/mDDo02U32jToXjae/F8177DOUzDqPVT2ygYNqoz6aXNpEAQcu+hu0fgxSFvYl9LGX9e9qnp7/K2b9v6us9P//6v7gsodVO4/yz9g9yXfn8xHYR+9YlRoXtRwdd2vL5v6WN/u3+8c8QGLLMR89Hwe2f4XmzeWf6zfjP7ON//zXmq+W3jgQZ6Dy07IJr2AU2gA1gA9gANoANfDYbiEGG393Xh2/uh1kq0Q8y7DCSyjEvoNYjpX+7LMjgnQAzE0KcYXFkfB3RySlG4f1sguCsFQ6MdWSNvEMnZqeTPHKiJOBSjKR29C+Yqaw76h/Kb5zE4fIQqccEblqyNFnukE8dVD+rITqrhaOquo6Opr0K2aR+s54/24E668J+O5OlLmNP+zT1NzLP7hd1mny3Xp+3f21/+58fL5uw16BdHbSxdiOBIDMDwQYKRs+HyJ/bbftumOsX3gVN/lP72PFuG7QVQYbb+N1q++SHPzaADWAD2AA2gA1gA2/DBkKQ4fnRPXz7Pe3FoPsytGcy7BC85wTqKKFuIhinlVsHRA2j6STUHXwdMU2O48SJHDjBKsPQiRnktyPxfScqjpLu0F85FMcd9Q/lj/z68sW2lXoS03Z7N9tnh3xh1kJoJ38uS2qM01roW7e3fh7Z11DuUK+Owm/r2t8+Tf1VvtFyCZNmW3+b9SXp9rR/Ku/S58csV7GBAA0m+KUGyv+GIIPONpJZSj6IaJjt1a/dPpP3g6knMbrgGkGG2+33Gu7kgTs2gA1gA9gANoANYANvywZ8kOG3xwf3/Y9yqcSLzGSIzqtORxcnQkaN1cG3xtF2EhrTpxsjq/9R7/NgHAVxbO39f8jIqZn+bev1Tk61N8RwOUCsx6aRaeP/scTp5Rfob1nYc1u2v+5nRuTp6zP5JY8to5BPOV0bZKjKbsknSx1k+Yp3JL0T2W5/q/PmvBtkCFPzbfvWeUP754fwOc4s8TZ4QftYznUd8nl2v5XHXuvuyaBt1Dnaenv2a583n8YEeernw8oUZhFlW9N7KWhl7WYYZMjLU2r7s/JL+fI5BTEqri39VKa6HL0+1i/bhaZvHuNyHSuXpCPIsJNfx3abrEnLhlLYADaADWAD2AA2gA28OxtYfv7VXipxXZAhjAQXo5z25w/VaYhT2mUE2zv5aU18O79f2x2NSxyav5uNH/2mkrpcIqYRRyLJ8Lftz1SWG99VTpNdziBLMfza8vKXFIr8duPHWL86P14Gu5xjqv++Tvqw/h3yj+STAERip0sPkhM6bx9xFGbyyZIGnflR74cwdjTa9VunWfJf0v6L7LFRzSxR/S+3z7Z81n7H+mn7azm6zEOv7zhO2v/q50cCCGoPqf1UzspmxF6iIy7BJB8oMO+Brv2p8y716IyIGLhKn4f6deSRvSHMl9PMPmZtpPnVhjU9QYYd9mnaQblxhBs2gA1gA9gANoANYAMfywbSxo+6RMIer14u8cY7khrYUGdSjrWjiqF/LEOnPWnPe9mABOJ0SYctkyADNmbtgXPsARvABrABbAAbwAY+qw18yiDDZ21s9OZFhw3caAN+Rkc5M0KZEmS4ke0bD05rO3OknbEBbAAbwAawAWwAGxjbAEEGOrbvbo0PD/X4oYbP6/AhyPA63LF3uGMD2AA2gA1gA9gANvC2bIAgw1sJMlRr3u1SjnDeHj39MA/UZ9f/rdghclwddCPI8La+3D7Mu5Fn8upnEhvgmcQGsAFsABvABl7HBi4KMtR7NPAZAhCAAAQgAAEIQAACEIAABCAAAQgoAYIMSoIjBCAAAQhAAAIQgAAEIAABCEAAAjcRIMhwEz4yQwACEIAABCAAAQhAAAIQgAAEIKAECDIoCY4QgAAEIAABCEAAAhCAAAQgAAEI3ETg8iDDaXXLsrhlPbnz8eDPD8fzTUK8pczn88mdjqs7HBb3lvU6rYG9b4vl4NZTpKjts7xt+V+szWf6771/rX1r+b38s/svBoaCIQABCEAAAhCAAAQgAAEIvDyB5evDEoIGD4/ut7/+dD/NX7P689Ed1IGNDlNycJsZ3unF0/pqQYbjYXUaM2jSkzY4rG4U2pEA0FsOkjT1uuPFmf7d+7fa9yz/7P4dGVAUBCAAAQhAAAIQgAAEIACBX01g+f5HDCw8P7qHx+fdQQYfWPBBhoMrJzLNAZlVAAAgAElEQVScXTHKfji69WDTnN3RjMIfDsfkUOvMCA1anNYQAFFn+XiQzwd3lJkGMptC/g7rpv5Z+Ye1zN906K8OMlyvn4sOaJidEPVbljxLwTmnTIo0h+PGbrpOtOvLF/iWMyBSfY06NpUa+aTN/IyQ2EaJ8fnkVt+OsW3XYxUsmdjPSexJ2RzcekwlF+L09Q/JuvdjG/TtW/Kf3ertrxEMmuWf3S+04AMEIAABCEAAAhCAAAQgAIH3RWBJsxf++LYvyOBObhVHX4bRvcNUOloSYFhPZoxdnEpN75w7FgEHKUOczuxoivOnQQaPsnL2xRE+iGOaqjg7O/K/p3wJTKiIIq8GMYqmq+ot7g0+7Kl/pJ8UbfVpViXcJ05/z4keyiflFsKF2oVRGUhqSpUvxuCTlOXb6RyPottazcCQ9l9zkGRmP+Lg57YPQZeGyH4pT7Ndo5Q9Pm5i3yH7IMgwzW+eh8bzkyFyBgEIQAACEIAABCAAAQhA4P0RWL4+PLiHh0f39fHR/aazGuKSicvVCQGDbr4dTuw8yLB1eFOeO5SfZL8myHCn+l8syLBDPqlb4jd+VoMP/pyLIFDiMzrpsZP6dQZKcdRA1cR+pM6zncmw+L0z7htkGCnGPQhAAAIQgAAEIAABCEAAAhAYEbhiJsOouHJWwiblDic3BQw0c+Wwbkbivd8ZZz/coXyt1lX1puujkzvV/5pBhjBrIbSjPz+2ZzeMMPTZzYIIE/vRWQI6DcW2fSVQf6ZCSDi7XxXHRwhAAAIQgAAEIAABCEAAAhDYQWD5oRs9/vHNfd2zJ8OkUFnDb6epy681yBp6HW3eBAkayyU0//lkNpmM9d5juYTK4ovsBRN61yf636qfFG/LOPv9J+olBi+0XEIqP61ulT0rZH2EMDhUy1cm+vvbA3YSuDh09lEI1Q/sR4I4MtMiLpUR+7C2ZUWbBRFm921Z2/PRcolt6ouvmF+guDgvGSAAAQhAAAIQgAAEIAABCLwigct/XWIqbLmx4CJ7MJiRZ1lT39uY0RcdgxK6qaNsHijnGnjwDvgpBC5SmrQ/g5TQL18cS90w0Qca1Jkz5aeNDu10/sn+ByWSfv179PMaiJOu9Zv9I+Sebs6oevhjiprIen/dFNEedTmCL33CXwI7uiRFnGk999JP/mvXn8TzueuNHQ9+H4jchCW/2n5sG8reHCffpipju/5lUf1n9yfqpdtajpabbtzlJNig6nSXIikEAhCAAAQgAAEIQAACEIDALyGw2J+srM9/iQQXVmJH+S/MSnIIvAMCspFpDqq9A4EREQIQgAAEIAABCEAAAhCAQCLwroIMxSj+RbMLkr6cQOBtE5AlIWnmxdsWFekgAAEIQAACEIAABCAAAQjUBN5VkKEWns8QgAAEIAABCEAAAhCAAAQgAAEIvB0CBBn2toUfYbb7HNTnL7M+f694L57us+v/4oCpAAIQgAAEIAABCEAAAhCAwPsnQJDh/bchGkAAAhCAAAQgAAEIQAACEIAABN4EAYIMb6IZEAICEIAABCAAAQhAAAIQgAAEIPD+CRBkeP9tiAYQgAAEIAABCEAAAhCAAAQgAIE3QYAgw5toBoSAAAQgAAEIQAACEIAABCAAAQi8fwKXBxlOq1uWxS3ryZ2PB39+OJ7fP4mkwcmtB93U8eDWN6rbaQ3sfVssB7eeogLaPsviPla7pAYan8z033v/WvvW8nv5Z/fH2nEXAhCAAAQgAAEIQAACEIDAmyawfH2IDvXDo/vtjz/dz7/yX1Py+CsD3oGNDlNycJsZ3tfF40Ec9hg0OZ9d+PxrdTgeJr9UIW1wWN0otCMBoE8ZZIhNNdO/e/9W+57ln93/taZGbRCAAAQgAAEIQAACEIAABO5KYPn6/HsKLPz2/JzOJdjQ/BedJB9Y8EGGgysH+8+uGGU/HN16sGnO7mhG4Q+Ho9NBeJ0ZoUGL0xoCIOosH/0Mg4M7Hld3kNkU8ndYN/XPyj+sZX6tv6WvyKTytO5vr12vn4tsw+wEnU2xFPUrkyLN4bgRo+tEu758gW85AyLV16hjU6lzTtNLm520nWzQ5GxniizusB6rYMnEfk5iT8pGZpq0W6+vf5C6e39q35L/7FZvf41g0Cz/7H4LKtcgAAEIQAACEIAABCAAAQi8EwI5yPDHs/sqsxlmMxncya1LDBp4h6l0tCTAkGYCCARxKjW9c35mQBGU8E5ndjQ3Tv1pLUbkxRH2jmkaxpfZBlkGmXkwK18CEzpZQeTVIMamzUS/Q5Ztc79xYU/9RdCi0k+KtPo0qnA+GDFx+ntO9FA+0bcQLtQujAqmTaHMxRh8krLO0k7neBTd1moGhrT/moMkM/sRB9+XGauToEZDZL+Up9uuIlJ3poex14Z9h2oHQYbJ8+Gm9w1HTiEAAQhAAAIQgAAEIAABCLwzAsVyia8PD+67WTJxuS4ySp0dxk3+HU7sPMiwdXhTnjuUn2Q+y4h5Dl6k66OTO9X/YkGGHfJJ3RIX8LMafIDl7Ns0xXRG+uu9RuDE35L6dQZKcVTOE/uRQny76EyGxR0O9w4yqBIcIQABCEAAAhCAAAQgAAEIQOBSAsXGj993zWQYVRGcxK5DusPJTQEDraZyWDcj8XFU2o9m36F8qfYs0/xlFF5l2Hu8U/2vGWQIsxZCO/rzY3t2wxBJ1WY57SyIMLEfnQWg01Bs2+dK/Fl/pkJIOLtfFcdHCEAAAhCAAAQgAAEIQAACENhBIAUZfnx7cA+PO/ZkmBQq09ftNPVzXIOvU9o3QYLGcgnNfz6FkW/9LFXfY7mEyuJVKRzisF+B/UWJTdBjov+t+gUd82wNH/BY6iUGYRnHSJSeEz2Tz51Wt8qeFbI+Qtj4jTBHNTXuFUzL+xK4OHT2UZCUQ/uRII7MtIjRH7EP2Z+haM9YXU9/lWZ2X9O1j6PlEu0cF101v0BxUT4SQwACEIAABCAAAQhAAAIQeGUCi99A8OHBff2WN4DUX5i4TrZyY8FF9kgwI8+ypr63MaOvLwYldFNH2TxQzjXQ4J3kk4x4540fi+IH5YtjqRsmesdUnTktX5zYYhp/qKPlxPbZ3KaflHsWJ13lMPtHyD3dnFH18MckoOwnkJcS5DS6HMGXPuEvDDTIIc60nvc1znfa9SfxfMJ6Y8dDNWuk5Ffbj21D2Zvj5NtUZWzXvyyq/+x+1mR8puVouePUl94Nm2eqTpfmJj0EIAABCEAAAhCAAAQgAIHXI5BmMmhgwR5fT6x+zZuR+H5S7kDgHRKQjUxzUO0dKoDIEIAABCAAAQhAAAIQgMAnJvCuggzFKP5og8lP3KCo/s4J+Nk0LzND4p2TQXwIQAACEIAABCAAAQhA4B0QeFdBhnfAExEhAAEIQAACEIAABCAAAQhAAAKflgBBhr1N39mvob3vwd5C31G6z67/O2oqRIUABCAAAQhAAAIQgAAEIPBaBAgyvBZ56oUABCAAAQhAAAIQgAAEIAABCHwwAgQZPliDog4EIAABCEAAAhCAAAQgAAEIQOC1CBBkeC3y1AsBCEAAAhCAAAQgAAEIQAACEPhgBAgyfLAGRR0IQAACEIAABCAAAQhAAAIQgMBrEbg8yHBand/scD258/Hgzw/H8y+T/7Quof7FHNfTL6v/o1R0WkPbhY0rDy4h1PZdFvcr2/XNcJ3pv/f+tc+Hln9t/ptAntxqn6t7/0ys6mbqOKxHd9Hbw5RxlX1q/lfhe1PjkBkCEIAABCAAAQhAAALvgsDy/fHBPSyLe3j45n7760/30/w1NYi/MuA7+LHDnhzUZobLLx4Pq5uFDSTAcZWTcbk4F+fYI//FhV6QYVq/tOFhHTp3b5nvBSiuTjrTv3v/1ufj1vxXa2wyevs4OglEXRM/HNlfye3sJGh4zXNclmNkn52+Bb4zGbkPAQhAAAIQgAAEIACBd0xg+f6HBhae3dfH591BBh9Y8EGG2hERx8GMkh+Obj2ENOIYyMi5BiV0VkJyMqIDkH8WMsxW0PSWc8vJ0PIP6+oOOlq6CVic3dHId1gP7mBHbM8ntx7yLIl6pNXKfDrGerSOC+S3upTnlXyHYwq4qH7Kw8riy9hRv+YpGFv9ozAtvuFWX75j5Jba0znvRPq6GnWUeodPKp+UseErSSbt41zf/nwNJ7FHbd+DW4/tcFZf/yBn935sg/7z4ZWIMwYawbRB/mn7e9Gq9rnQvr10xziz5bSaAECc5XBYI7/VneS+PGcX2P+Gm+gbDXqffjP+4+fXDfiGkvkfAhCAAAQgAAEIQAACELiFwJJnLzy7rw/f5kEGJ85GDCz4DnvpKEmAYT2ZCdDiFGp68RHVgVGpC0cmXByNhGq2jbMSb3hHRZyeKILIY53ekO+URvHPEigxDvBxrUb4Rf71qNWGYwyuiHN0lnrO8RhT7ZG/LDB/OsaATLrineo8pfwu/KTdjM6pLnPS4zuUzziMpqjLR8QHfGftM7M/CUL4NosCSlBDgzZW5p7+mqZ/39h74/kI+c/9IMPk+Zq1f5DrFvs+O7Hf8Pic3XrIthccdA0YyrKp8JwF5krG+fzt0E14/tPzeJa6zFKdne8HqanHf2YfbsI3a8EZBCAAAQhAAAIQgAAEIHANgTLIsDwWSyYuL1BGESuHvCpk5iRJ8j1Oes/JmJdfjXSagISOchaj/H5GRBlIcY3AiFVzj/w2fTrf4aTP9dvB79ogww751EH1sxq8g1o5qknZwUmPr3fadRaCPWr7zO1P2jjPZFjc4XDvIMNArzvcmrf/jfYt7E3UpQggWLuRQJCZgWCyDJ9fkT8/X1VA8tYgw9Q+7tAAFAEBCEAAAhCAAAQgAAEIDAmUQYZdMxlG5QUnz8xj2CSeO0k7nOTBSOae8pNQ57M7H+1Mhh1OqmTuOcGx4M8cZBCn9BhnX/jzY54On7jPTrp8Z+0zs784y0CnubSc2iib2FEacW/IO7vfyHKXSy9t37pcJQcClhRM8EE4DSLeEGRQrjKLSPYGsbMe9urX5j+zj7s0AYVAAAIQgAAEIAABCEAAAgMCeU+GP765hz17MgwKk1vipKgTIZ/P3uHMo8XWOTifjn5Nt00veeyUfAkCHBadvp0rt+Xkq/PlGGF6dg6DeEfHDMOKY3zorNNP9XSd4JBij/yprOrE5vW3GssllNfV/OyIdFW/fuzxncknAZhV9sSQHQO9E1lOh9fyh8cB31n7DO3P672m5RLCT2Y1mOZPYvX01wSz+5qufRwtl2jn0Ku23lb732bfrSBNWD7hAwHWboZBhricygdxyufXyi86yWedEaGfZ/Zdp1M2cpzZh03bPffLdUxwpZuQGxCAAAQgAAEIQAACEIBATWD5/hCnnT98cz/ML0vIr0xc96/ceG6RPQbMyHGxcZ+MYspMgurnEr3jbzduzDGBvJGg3pejmbatI7D+kjoLpnyZZbCajR/9pnWm/O3GgQc/fTwkkZFwO00/nNdO6kj+OdOSn+ydYEd6b+WnmzMqJ39MCrT182vvk+Az+SRwpE6mONN6ngoYnLTrT+L5nPXGjrZ9JEEpX21/3qmNbSibep789H2VsV1/1n92f6BacUvLKUfxiyS9DzFo59ut8fxcbd/FUoMJD2mQ+GxJQECZajt17d88j3kfFAliyOaRcZnVUD/lVj+DluPMPnpg8/Uwm0MZ5OucQQACEIAABCAAAQhAAAJzAov9ycr6fJ6dFBCAAAQ+EoEQ9NDZFB9JM3SBAAQgAAEIQAACEIDAryBAkOFXUKYOCEDgfRDwMzrszIj3ITZSQgACEIAABCAAAQhA4K0QIMjwVloCOSAAAQhAAAIQgAAEIAABCEAAAu+cAEGGX9WAxZr3ek25fP7go6efXf9fZWfUAwEIQAACEIAABCAAAQhA4BUJEGR4RfhUDQEIQAACEIAABCAAAQhAAAIQ+EgECDJ8pNZEFwhAAAIQgAAEIAABCEAAAhCAwCsSIMjwivCpGgIQgAAEIAABCEAAAhCAAAQg8JEIEGT4SK2JLhCAAAQgAAEIQAACEIAABCAAgVckcHmQ4bS6ZVncsp7c+Xjw56/xm/KndXGvUe+vaqvTGth61svBradYs/JfPrb+Xc4z/ffev9Z+tfxe/tn9rmLcgAAEIAABCEAAAhCAAAQg8P4JLN8fH9yyPLrf/vrT/az+murFXwnwDn50qJID3MzAxZrA8TD5JQlhfFjduc5oPkuA5yMHWYyqzdOZ/t37t9rvLP/sflMbLkIAAhCAAAQgAAEIQAACEPgYBPxMhu8PlwcZfGDBBxkO7mi8YZlhIKPv4gCfjqs7yKwH61SfT2495J9wPKzHypk+u6MZxT+sB3c4HDNtHSnujuSb8qXeY5h5IfKkmRdrlKuWLdcyOKvkOxydTjLQ8jXoYln4AqMDGmYnZAaaXtJoniKN1T9K1nWiXV++Y+RugxOpvkYdLQia/pb2LWZpHI5uPRgbOslnZXNw61HpltL09Q/puvdjG/TsN+Z2q9hG62dFZ/ln90s1+AQBCEAAAhCAAAQgAAEIQOBDEbg8yOBObl2iU+gdqsaofAw+HGRKuQQgzvHonDuu1Qi9BB3WHEQIzuEpBR7OUlbDAe45kUdxWE8x6nE+O3GsrVMt+XzQIyYRh9fen7WuL98EVUS39ZADJVK+DRq407opf99MhsykJdNQ/5580l6FcKFkYWADRa36ims3tK/UtWr7SKHCT+3JV3IONhMrlKBGQ2QfMBq1W4+P22O/7twPMkzzG316z0cBkw8QgAAEIAABCEAAAhCAAAQ+DoErggw7lG841j5XHOUtRuk3I8ZmJoLMVpDZCNZpjtU3nUgpvw5IVLLsCQJ0NdzhpO8p/8WCDDvkk7oFp5/V4IMj5yJI0tXd3qiYplvT9g0BmZS+dXK2Mxmk/e8dZGhVyjUIQAACEIAABCAAAQhAAAIQuAeBXxtkkFHgOggw0uIsSxwumMlAkGE6UyHMWgjt4M+P7dkNo2Zpzc4I6WftG+43YkaxujgLwESVNkGbmLIZZDJCz+6bpJxCAAIQgAAEIAABCEAAAhCAwJ0I/OIgg+w5IMsT2uvsRSdZjmCn08tyidYU/54TWSxn6CyXKKbf90blO4CL8iVNY7mETuM/n45+Twr9rEXaMiSIcljqJSSNGRmaOR536d+QTwIEq+xJIesjRHfPuyp89nHAbNa+svzB8jh7fnG2gg8SrWm5hPCT/RmK9pror6L3+Oj98XG0XGKcc9dd3VekpdiuAkgEAQhAAAIQgAAEIAABCEDgbRJYyqUL5QaQl4ssI9G6aV8+lr7U2QcaUr2Hgw8i6Oi2TOdfzcaPdv+EsJ4+l5vKKDbok9HymCZu/KhOrTiemsfLpM5edxPJFoH+xoo+dXSafT3VxpNamg+cKKdqOYhuzqhy+mMC2OZbblA4k08CH7oHgzjTeq7SjY7t+pN4AcCwfV21MeVi99CQmI1pI9kU9OQ/q4zt+rP+s/sj3ew9Laex34hNduV52DxTdbqyELJBAAIQgAAEIAABCEAAAhB4gwT8TIb6pyv18xuU92KRxEnVIMPFmckAgbsT2G5GevcqKBACEIAABCAAAQhAAAIQgMArEfiQQQY7G2D7E5mvRJpqISAE/OaYLzNDAsAQgAAEIAABCEAAAhCAAARem8CHDDK8NlTqhwAEIAABCEAAAhCAAAQgAAEIfEYCBBm01bs/v6h7QHzw0efPrr/aAUcIQAACEIAABCAAAQhAAAIQuJoAQYar0ZERAhCAAAQgAAEIQAACEIAABCAAAUuAIIOlwTkEIAABCEAAAhCAAAQgAAEIQAACVxMgyHA1OjJCAAIQgAAEIAABCEAAAhCAAAQgYAkQZLA0OIcABCAAAQhAAAIQgAAEIAABCEDgagKXBxlOq1uWxS3ryZ2PB39+OJ6vFuB9Zzy5VVgcjhs1TuvifjUXbY/1tBFnc+E15NsI8RoXbrXfWX69v/z69g84z+64hudSntPDurpDwz7vg75v//cp/5pSzu5U6H90p+PB7XkmLq+tr//Vz5faD+/Xy5uDHBCAAAQgAAEIQAACb4LA8iBO8rK4h8dn9+OvP91P89eUMP4KgXegY4f4ZTrwzdrf4MWTWy904o6Hl/ulCgk03NoeLynfqzfgrfa7M7+0w0sFmUbt49vfBP3Op+MLBhmkNS+3/5e0AQkwHM8m6Hk+u+NhufmZ6Mt8uf6j9nM77asvD3cgAAEIQAACEIAABCDwugSW3/4IgYXfvj24r8/7gwzekfVBBunUByWkM78sB3c8ru4QgxfLYU33JZWM8PkR1uPZnTSddbrP0mnXn42UkdijMy7DDlrlSKbMMlgPWcab6y/kE4e+cjJ0JLI1kh0dCD8TRPks+x2gwLccIVd9dDZFcDKPBf9iYsOt8hX6X9Y+IpvorkEQlb10xuuR+EPpJE/qt2W27SuwadlvNq5zmKGyNIJBsQ3H+Z2f5VPqFUs/iT2qfR/ceixaxzk30H+H/YTgxqn/zAz4afv42Q9qn/bZFBWK/A37zxA3Zy/+fhA+alyb2sOFuX1M3j8z/W9+vvbYZ0c5LkMAAhCAAAQgAAEIQOANEEjLJX7sDTLIyKUEEsTz905P6YiJI+EDAykyICOJZRoXgxPiEPhBx3M8OueO61o6SNKpX7fLEXrsZCRzPaXKg1Ok8mqmq+sXB2R1ufgY0GjMZAjOnpFD6xYdax7m3vC040SF0duQMziKWUa513J2r5Xv1vaRegs/8LQW8gW5spN8lrYyfHfVP2hfP/Ku9tCw30ixH2SY2L+2X5/vOdh8TChOr+Ux01+yje0n2KQG+cpncf58Sf0SGFQbL+1nv/0rh/r4ou+HypbqutPngX2M7Wu//v32n7Xf+P2adOAEAhCAAAQgAAEIQAACb5RACDI8P/rlEnaphJxf8+9oZg1ofulwW0dKggwtx1enCtcj/UtrRFkLL47iBOwISFxbfyufOKqNOq93MgqFNh/EwZTQhR8VPsgsj7PXWcMZe1lfJZ93ynUU3h6rINJG6nxhLp+0YS77YBze3fbRaqcswi856/I925kMiztspvIP9I+Sj4MMpXpFkGZH+w3bp8W1Y/+lFPnTi74fWvLlqvNZL92MTytfR/9u+0+DRFlMziAAAQhAAAIQgAAEIPAeCSw/vj26r99+L/Zi0GDDNQrd5ETcvL47BBnU4e7K33IWfOJJkKKV7xc7GWHWQpDTnx/LKeJDJ9EAuc4JmvAx5fdO98rn85/P7ny0Mxl21t9qp55AL3S9zTeOUus0AT8ZqArAWXk2+oeblwQZwswNDQLN+Q3bp8W1Y/9WDXv+ou+HvbK09PBCTvi08nXqbLf/Ne1n6XEOAQhAAAIQgAAEIACBt09g+R73ZPgpsxmqYMM14u+dDt2cyeD3bJDp/fU69f2SyPRzW/Y5rqHeNZNiWr84IXkquayfF0ffTudXScdORt4jQpzow1ItEdFCWsfT6lb5xQBZryJOz6F0UodOoinvWvnC9Pnr28fW6zclrPauECfULneRkXi7zn5X/S1n0Og+Px3syTDP7FNYPVMW75CuabmE6C+zNqxtzvSXsqyjXtrPNojhZ3+YCmb8xvaz0/79coTwCzRJ93jy0u+HoJ8JM/rnv3xGujOp3sPzLxwHfGvefIYABCAAAQhAAAIQgMCvJrDYpQn3CTIc3NFvhhinvBdOuThBeSq81m18IL/xnTgKem85HLyTadyGCaNy4zzJf0wjx3eov7Xxm+jkl0y0y6+Xe3jHWTkUfCaqyW1xVHVPAVkqkc7DZoPKzTNVZyQ58veQr95Y88L2sfxEd5mpkOQL69XXov1tUMcDKH6isLSPtn6lfe1g7PddEDvVGQB78kiadv22HHHitY1kvwT5eUW/WWo0cJmlMNZfthkpN1ZN5h33i9jkL8Tvt5+VrW0/Yn8SaNBnWJz3qLNZMhQ2V8yBNFu9D5C88PshBF7y++dDPf8+xiC6tfla1pxDAAIQgAAEIAABCEDgNQikjR91iYQ9XiOQHWW9Jj95IACB90wg/GSknU1kteH9YGlccz7me02J5IEABCAAAQhAAAIQgMA9Cdw1yOA3I0wj9Ds2YLynJpQFAQi8PgE/06Y9A4T3wx2aZ8D3DqVTBAQgAAEIQAACEIAABG4mcNcgw83SUAAEIAABCEAAAhCAAAQgAAEIQAAC75bA+wky+BE8XQveOrZHT99Ny7x3/d67/O/GUBAUAhCAAAQgAAEIQAACEIDA2yXwfoIMb5chkkEAAhCAAAQgAAEIQAACEIAABCDgnCPIgBlAAAIQgAAEIAABCEAAAhCAAAQgcBcCBBnugpFCIAABCEAAAhCAAAQgAAEIQAACECDIgA1AAAIQgAAEIAABCEAAAhCAAAQgcBcClwcZTqtb5Gcq15M7Hw/+/HA87xdG8y+Luyjf/hredMrTKptWHtwlyN6iQqLHqP1Oa7ANbyvLwa2nt6jFFTLN7Hfv/Vufn2vzX6FyznJyq/5ErRwPd/6ZWsMu2M3iDuvRXfB2cc6UMbLPrFN5dj6f3Om4usOhY99a/qvwL2XlEwQgAAEIQAACEIAABN4igeX740MIGjw8ut/++NP9/Cv/NQWOvyLgO/Cxw32NAykBimucgKZM7+zi8fC2gwzHw42/1CE2clgvcw7fWRvO7Ld7/9bn59b89+Ds2/foJJB0TbBsZF8lt7ObBbN66pTl9FINrp/W9vvpLfAfiM0tCEAAAhCAAAQgAAEIvDaB5fvz7z6w8OP50S2Pz7uDDD6w4IMMtaNxdkczin1YD+7QGPHsOgHnk1sP+ScqNyOZg/tHn+/gjjISqSOuh/UyR+h0NPUf3HrMQ/Ch/HKEM8xMMKO6g/za2BpkEAY6Yiujwn7EdqCf5u8dtbzDWuqfNZCcVfscji7djw5UkikyLIJIOpLbmYmSeCh/O+Kdys82ozLvHRXX8iVA5UecfQxO6qQAABgGSURBVPkmKDLlJ45ryX21QZ8d7ecpToJkffs+etvsPz+hjcKMAaOXNnpk2MqvLLW9LCvNvmn/+vmc8nN+BpPWnwOFcZbDYY3Pz+pO4qjb9kntn59vsTWVt8lV8sQE+/QLmvb5T94vCmoSZFD9P8KsJFWZIwQgAAEIQAACEIAABO5BIC2XkCDDw54ggxNnIjqJ3mkoHaHQuT+lUeyzOKUXBBmOazUCLk7PmqdlT+/LNGeZYp3mWJ/daOR0C/Fs8srsa+MEGYfH5itHdAf5YyYNMoRp2as7JVmdm+ln622de0dMZiLEMkW27Ag6p3WnvN6pLKek7+HVdeKkYOHUaHNf58Z5u7R9XJwSf/DOp2/n8ym12Yyf8FgVjpfV2LMXcN5+QcWSq89q/uvzMfU1np9QxDkuSyifrXBvnF/qtU67LB+w7R/k6j+fM34+SJFmqZzdqsExEc7rE94N56Msqwp2GJhnOCP7KridxTZKfWb6aS1FOXrRXfB8VdxyEWP+OR1nEIAABCAAAQhAAAIQ+JwElp8yg0FGGx++uR9mqYQsm7juXzVSaBxeW17TCfBOSjnKGUbVo7M1uy9OhB2VjhVuHBMrSH1+tjMZFr822zpt4iCJ/+5nNXgHa+toFTMxDiZIEeuSvLLm2+9rYevfoZ9N3jrf6GqdJSnfKhMLKIMkolvLuS1ra7afJpF6ekEGmUlhy7fyaf7ZsZdnyk9sMwesmtVM2l/zDPX3/vY4CKHl3Ps4bH9f2eD5nPILAR5rQ0UAwba7BBejrdUyFe1fAZC0eSZNFRCKXAsT7thCs3326KfydMrV2xwhAAEIQAACEIAABCAAgTYBM5Phm3t4/DZfLtEup331fHZ+RLPh2DWdAJkl0UibC5/dvzXIEEcpzUh37SAFhzzI4c+P1nGf5xddJMiwypIG62x7Jef6ZRbts1reYiRbnKzCQwtl/NogQ3RU/WL+KuDQVml7tesAzviF+2biSFX2vvaTTG37zcXN7ueU9z0btn9d1eb5nPELM3tyECAGBNWm7hRk0JkXMguqfkb26tfmP9cvIeraWErBCQQgAAEIQAACEIAABCDQILDoZo8/nr+5h+WxmM3QSD+9FKY3ZzfOOwrqhJjcbSdAnBgZAU67BJgc4XR2388SuHa5hHeS1jT1/hzX5xfin9YQIBAn2TtBZjr3nvx2tkXDiZrptwFSXZg5YZuZHs3lEnbPBFlXXy1hmTnZ1tms5AsfQ3DB751xzc6BAwdwxk+Wv6gTK7LIrwnIzBPfxjvbz+e7dk+GJo/64mi5RJ22/GyfK7Ff2RPB6jt7Psf8WkEaEyiy7T6cydC3Lyu/aCafdUaEflZ9WvopjbocvT7WT1PZQJi5tvdU9y0pXhx7M5MOAhCAAAQgAAEIQAAC75vA8vUhjkY+PLrve35dYqKvTIVei4318v4Azu/nMFgO4cuuN+aLa+9TveP73ok+BcfRj7h2lmuk4qoT79TI8hFxztajO/np29kpsuvOZX162p8iljPLHzbjC+Xpxny+ruRsj/WrxC0+2rq9f6POTuFoDjZ+VB3EiY8MloKfjPSP288vI6nTtJwtL9t8WUahYMd+yuJn/Er9F1leU81c0ZH6bfvP9J/dL7Xpf9JyLuUjXnll+35vhBxoGD+fIlGHnwQQUrvq86ByVjYhDRJtTwICapfaTj7wqGVZ+zL2mvdxkSCG2Vh1qF9HHtkbIsHu6Bfv22dS7SDLkgoZnthnfJiQmxCAAAQgAAEIQAACEPiABNJyCfvTlXr+HvXdjNS/RyU+g8yD2QifQX10/KgEQlBEZ1t8VC3RCwIQgAAEIAABCEAAAj0CHyrIUIyiD/d26OHg+ksTKEeKdUT8pWulfAj8IgJ+xoedOfGL6qUaCEAAAhCAAAQgAAEIvBECHyrI8EaYIgYEIAABCEAAAhCAAAQgAAEIQOBTEvg8QYZiTXm1htyvD3/jo4/vXf7Z4/XR9Zvpz30IQAACEIAABCAAAQhAAAIfgMDnCTJ8gMZCBQhAAAIQgAAEIAABCEAAAhCAwFsmQJDhLbcOskEAAhCAAAQgAAEIQAACEIAABN4RAYIM76ixEBUCEIAABCAAAQhAAAIQgAAEIPCWCRBkeMutg2wQgAAEIAABCEAAAhCAAAQgAIF3RODyIMNpdYtslLie3Pl48Ocv8Zvw8lOHL1HuO2qbdy3qrP1Oa7Adb0vLwa2nd61uFl6fj6Vjv3vvX/t8afnX5s+aXHF2cqvfRDVurHrvn5FV3Uwdh/XozpdIasq46v2y2aC02jBWy38V/peAIC0EIAABCEAAAhCAAARehoAPMvz49uCW5dH99tef7qf5a1YZO9m+gx471B/GQWwq/PYuHg+VY/OLRby5frGhw3qZc/iLdby1OgnAjZzY7v1bn69b89+quOT37Xt0Ekg6XhQBCJWP7KvkdnazYFZPnbKcXqrGddFt9MJ7C/wbYnMJAhCAAAQgAAEIQAACv4rA8vP50T08PrvvD5cFGXw/2wcZSkdCOv0yOi0O1um4uoOMOlqn+HR060F/QvLg1mM1hK0jgb2RYHd2RzMKflgP7mBHTM8nU/7iLh/p7MkXR2kPayx/dadTQ79avsPRqYbi2Agb9VEsK2lwvX9YY7k1u+jAhNF/ZZjLmxnNtHxfQMXXyO+dRzOKrHKoPj77pP1UZ83rj9p+Sb9sUyrzomkmSmr5Xfub2oc4rmaWxUHsIcvjZvYb5RO5bwky9J6vUPw5zhhoBJsiw1Z+ZantZVllrFX7X/F8ST1af2aw4/lJ7Z9tW+xD5RUZN1wlT0ywT79IsNc+M/sw9WVm5mzA36TiFAIQgAAEIAABCEAAAh+WwPI1Bhd2BxmcOAvR6fId6oajE4MP0vk/y0jmOR49xnO4FpGKo2OdCCW9cSbijXD9lEbBz1KXcUCPazVCLk7DetRidxwH8nl9g+7noywbWd3p7LxTqjocrUMqtXmnJU/pFvk1rRdGAhVmuNc7ShKUiSPA4vDa+5JnNNI7U3BW/kz+vfWHduoMYwtH02aFzBUPJ0EbG6QqEnc+DOxvZh/Ce1X4Ury0n9q7r25gH0acof4tZznlNfX1ni83CDJMnk+Ra2Z/h+Mtz1dor9DyZ7cesu2HINX4+REMo/YuuJ6lrlKfmX6KuShHL0rds/eHbxMTBDHPaihmT/uZCjmFAAQgAAEIQAACEIDAByOwfH0OSyT2Bxl2ENg4iibP2c4UWNzhcFmQwYkTlWZCSP7skPdG2n0wwIgwPB3JZ51jcWSjt5YcG7lfeHChJjttPKVVISpWs/uSbeSEabG947D8HfLvrV/qqYMjSSbLMV3UkyqoUPHRVMNjL4/U25iJke1DbGsSkBrZhxFqqP8wyGAKeYHTYfv7+m58voS9eQZC0CYqYtu99fzEZCP7FvnzLJgqIBS5muolAti0w2b7TO2j0SCSp6iwkYZLEIAABCAAAQhAAAIQ+EQEltxhX9zy+Dzfk2EPnE7H3gcIZFTYjBRvnJ5YftMJqOs+n52fUZAcwx1OYl1G8TmOQvbkmzlJHYeDIEMBOa3Zr67mj8l+qoBDTjE+S/nrZDP7CPc78y/cPe13l33X4t/h8+Z567ISj/3y50uXYBTvFXXCZ89P1G8WZNDglcxi8kFGw2Wvfm3+M/swFaXTa/KkzJxAAAIQgAAEIAABCEDgwxFIvy7xS2YyeCdjTcslznF9u/oglm7bCZBR/HL00jsapgBx6GW691X/ZvLtcJJmyw2sXqK/jKyr0yQy73GSbB0SZDks1RKRgfKz8m3ZvphquYdcs2l69Vs9N+JYjpubciEEF46im1lK0kzaujhwnGf2IU6yrfPs9Y+zbWb2YWQZ6h/b2dZjsu44HS2XGGe3crXsT9rWLhe57PlqBWlMoMi2+3AmQ94Do7YvK79oKp91RpF+Vq4t/ZROXY5en9mH8LHvl1NVv5YzPPrlPOEXeobpuAkBCEAAAhCAAAQgAIF3SGD5+dez+6pTyB++3TiTQWYCmPXK8dzEANLmhjLSKZsy+k56WvPezp+ns4elAmuxMZ9ZLuEboN647+CnM/dHp8tW805LlLuUz8gmCkVHQRwazRP0rDbOsxsnSlXRafUjvbLUw+/tEBxbLUfu+bLUGakDEeJEK2e7XKRUZfNpX/kT+b0KvfoNI5XPH/O+HUez1CWNdlsDUam97jmfXh4f2/WXxc/so9R/kT02qpktKndpHyJZu/5sv7P7Y+3yXS3nUj5j+5PyZRbBVc+XBBBSm2uQQOWs3gnSIN3nRx6Rjn2Z5yHvwyJBDNlcNi5zGTxf8/YRApfZx8Uby4qV+M1xlVFuVc4gAAEIQAACEIAABCDwEQikmQz2pyv1/CMoiA7vlMBgNsI71QixIeCDGBIU0dkWIIEABCAAAQhAAAIQgMBHI0CQ4aO16DvXp1zTz2jvO29OxK8J+BkfV8xAqcvhMwQgAAEIQAACEIAABN4oAYIMb7RhEAsCEIAABCAAAQhAAAIQgAAEIPDeCHyeIEOxZrxaI17tG/DeGtHLi37uyu0+32VzIzQEIAABCEAAAhCAAAQgAIG3SODzBBneIn1kggAEIAABCEAAAhCAAAQgAAEIfCACBBk+UGOiCgQgAAEIQAACEIAABCAAAQhA4DUJEGR4TfrUDQEIQAACEIAABCAAAQhAAAIQ+EAECDJ8oMZEFQhAAAIQgAAEIAABCEAAAhCAwGsSuDzIcFrdIhslrid3Ph78+cv95vvJrVLX4fiajKi7QUB+anLU7qc12Ia3leXg1o+yK6Pa/9LRf+/9a58fLf/a/I223H8pPo9+o9QXeC5VNy1fGK9Hd94voHOmjJF9dovcbKBa/dyklv8q/LtScwMCEIAABCAAAQhAAAJvhsASnED5tYUH9/2PP93Pv/JfU8rYCfcd+NjhflkH8uTWDxZkOB4qx6UJ+vUu3iyf2Mhhvcw5fD11r6pZAmwjJ7Z7/9bn59b8V2lbZfLte3QSSDpeFAEI5Yzsq+R2drNgViVZ+liWky7PT0S30QvtLfCfa0EKCEAAAhCAAAQgAAEIvBqB5etzDirYAIOcN//FTrbvh/sgQ+loiFMggQtxwE7H1R38TATjVJ8laJB/QnIzUlnclxHwHGQQx0HKVh/A1pVlFcfEjKIfjm49GBmL8i8fKbV1NvU7SX2q38GtRzOEH9nlwE5Ip/p4HW6QT/kc1si9Zh8qcEfD53A45p9+3COfjuR2RvKVT6GjBolS+bk9VOa9s1W0/Kvty03sY9R+2cj8LJ5bggy95ydUcQ4zeBbz3Gjdg+dPWao9WVaa3blz2f7rwYkNpH877E/qUfkzA511tEb7X93pVD3/qf31+djav5Sdy3TOSZ6o0D79giabclTBmX6mPs1SHAf8i3R8gAAEIAABCEAAAhCAwCclcHmQwYkzEZ1E3+FuOEIx+CDOwVlGOs/x6Jw7rtUIt3T6V3VyJKCwulMaHY0OoXGCkoOjDSaOjBlOlQDDmgvwdSd5p/VroZPjQD9x4rzOsQhx9NTp01JHI7ljPlpC/+gdMcNQeFg+RxtwkWK801VOSR/JpzV3nThfpsxk0DbVHPFYtZd3ei+d2THgP+M3s4897RdULLlWWg6CEDueHzcIMkyev9nzEdrtlGaZnIWlaasZP22v8Iie/Syj/Lge3SG+G85HWVYVnuXAPBMa2VdhV+ezE3u1z89MP62lKEcv7nn+YxAhBcnMsxSK2dN+pkJOIQABCEAAAhCAAAQg8MkIFMslvn77fb5cYg+gjSMZM9Ud+LT2OgYqWvkkj3GCxk5GnvXQFHNWfzNT42JLTk12tjMZFnc4XBBkuIN8Qz5SvvXYosziBJo4jRs5gVnNgZNdtZnmCUdxHE1gasSyzJg/9fJM+U3sQ2rY0X4h2UB/X8z4flbmvmfD9vdVCYM8k0CWtaSY3JSf83seWBsqAgi23SV4YWYgWLMr2r9SX+RPDr7fyyOFMHzKuX6hQElng2sxc5hZld47ysHYYyWPnUlR3+IzBCAAAQhAAAIQgAAEILAlUGz8+P3h0f0225NhW8b2Ss8JlFFYEzDYZGzls45LdN6swyIbvWVnIpRfuiW2lkn9NunovKjTJoyjnMlrE5+1HImV1H0n63b5NvVZWYVlAS/I/muDDNFR9VGNKuBgUY7OrU5Fuhm/HfYhI/GT9pMqm06skWV23yS96+mw/euazmfnZxykZ3LGT2IM6pibo9qUfVZvCDLo8yyzLHwQxMi9V782/7l+pqp4ek2ebSlcgQAEIAABCEAAAhCAwGchsHx/jrMX/nh2Xx8e3Y8XDTKIkyIjjGafgoK0dOjNyKqun09OUOncnU8yPbvc5V+cIHVSpOhzXIOtftC4/kKY/oeek+udrDUtlxD5ZNRY69YC7ZIFcfIOS15Ccqt8MyfM1u3laS6XyDMbavlUh7YTF+9aZ1MzFMcQXDiK7nYKRZFm8KHH38cvRvYVnGRbZ2EfO9tPJBvqv+P+QDvJ3d+TYZyxkKv1fITlBzkM5x15Y6Bj+wsOd87tSeSgmW33YZChb181V/msMyJq7i39FE9djl4f6ycBwNJ+TlX9Wg5HCEAAAhCAAAQgAAEIQKBNYPn6oCOSD67eBLKdZXRVRvK1vHw0Pox3oKSjn6ZES6de9m7QYmNQINyXWQCxTA002PsSkPBrv21godzYbpE9CMzItDhww/pVjuZxrp93iiID2dTSOym6h0Us0zt2yqkIqkiC6+WzdXvm4uipLMmZL/kUGz9O5Wvr79fex7xHMxVf67ZOYkzmp93bfOn68KRd/0X2VW18WNuHZbhtv3b9WY/Z/aFy5qaWM5jGb1IXp5PnQ2bRrMXzZ4N6UlLH/iSAoDab7FnlzM+6b3NpkGh7EtBRptpOXfs39pr3iZCAlPm5zKF+HXmKDTQ7+iWI1fNx6U9opnI4gQAEIAABCEAAAhCAwOckUCyX2PXrEp+TE1rfm8BgNsK9q6I8CEAAAhCAAAQgAAEIQAACEPg1BAgy/BrO1BIJlGv687R5AEEAAhCAAAQgAAEIQAACEIDA+ydAkOH9tyEaQAACEIAABCAAAQhAAAIQgAAE3gQBggzaDMWa82qNuV+LfsX6eC37Hse3Lt+tOn50/W7lQ34IQAACEIAABCAAAQhAAALvgABBhnfQSIgIAQhAAAIQgAAEIAABCEAAAhB4DwQIMryHVkJGCEAAAhCAAAQgAAEIQAACEIDAOyBAkOEdNBIiQgACEIAABCAAAQhAAAIQgAAE3gMBggzvoZWQEQIQgAAEIAABCEAAAhCAAAQg8A4IXBVk8D9DeHjljRDfAVxEhAAEIAABCEAAAhCAAAQgAAEIfCYCy8+/fnffHx/c4n9B4cF9/+NP9/Ov8DcCIYGG9TRKwT0IQAACEIAABCAAAQhAAAIQgAAEPhOB5evDg/v+/HsKLGiAQY6jf+fjgSDDCBD3IAABCEAAAhCAAAQgAAEIQAACn4zA8vU5z1ywAQaCDJ/MElAXAhCAAAQgAAEIQAACEIAABCBwI4Hl6+Oje/BLJRb38K2c0TAs+7S6w7K4w/E8TMZNCEAAAhCAAAQgAAEIQAACEIAABD4HgWV5+OZ+6D4Mz8/ut7gfAzMZPocBoCUEIAABCEAAAhCAAAQgAAEIQOBeBJYHCTLEwMJv3x53b/zIngz3agLKgQAEIAABCEAAAhCAAAQgAAEIfAwCy49v1y2X4NclPoYBoAUEIAABCEAAAhCAAAQgAAEIQOBeBJZ6s0f7uVeJBBiWw+r4BcseIa5DAAIQgAAEIAABCEAAAhCAAAQ+H4GrggyfDxMaQwACEIAABCAAAQhAAAIQgAAEIDAjQJBhRoj7EIAABCAAAQhAAAIQgAAEIAABCOwiQJBhFyYSQQACEIAABCAAAQhAAAIQgAAEIDAjQJBhRoj7EIAABCAAAQhAAAIQgAAEIAABCOwiQJBhFyYSQQACEIAABCAAAQhAAAIQgAAEIDAjQJBhRoj7EIAABCAAAQhAAAIQgAAEIAABCOwiQJBhFyYSQQACEIAABCAAAQhAAAIQgAAEIDAjQJBhRoj7EIAABCAAAQhAAAIQgAAEIAABCOwiQJBhFyYSQQACEIAABCAAAQhAAAIQgAAEIDAjQJBhRoj7EIAABCAAAQhAAAIQgAAEIAABCOwiQJBhFyYSQQACEIAABCAAAQhAAAIQgAAEIDAj8P8DKVtjhfc0bvUAAAAASUVORK5CYII=;" vertex="1" parent="1">
          <mxGeometry x="-1213" y="1915.41" width="588" height="241.59" as="geometry" />
        </mxCell>
        <mxCell id="YHl6wFyylG55uKDNE_g4-33" value="调用cythina&lt;br&gt;触达用户" style="rounded=1;whiteSpace=wrap;html=1;" vertex="1" parent="1">
          <mxGeometry x="-1495" y="2116" width="102" height="41" as="geometry" />
        </mxCell>
        <mxCell id="YHl6wFyylG55uKDNE_g4-37" value="&lt;pre style=&quot;color: rgb(0 , 0 , 0) ; font-style: normal ; font-weight: 400 ; letter-spacing: normal ; text-align: left ; text-indent: 0px ; text-transform: none ; word-spacing: 0px ; background-color: rgb(255 , 255 , 255) ; font-size: 7px&quot;&gt;eventbus的分支未处理&lt;/pre&gt;&lt;pre style=&quot;color: rgb(0 , 0 , 0) ; font-style: normal ; font-weight: 400 ; letter-spacing: normal ; text-align: left ; text-indent: 0px ; text-transform: none ; word-spacing: 0px ; background-color: rgb(255 , 255 , 255) ; font-size: 7px&quot;&gt;&lt;pre style=&quot;font-size: 7px&quot;&gt;SmsOperationRecord&lt;/pre&gt;&lt;pre style=&quot;font-size: 7px&quot;&gt;&lt;pre style=&quot;font-size: 7px&quot;&gt;SmsOperationCustom状态&lt;/pre&gt;&lt;pre style=&quot;font-size: 7px&quot;&gt;但不影响迁移活动&lt;/pre&gt;&lt;/pre&gt;&lt;/pre&gt;" style="text;whiteSpace=wrap;html=1;fontSize=7;" vertex="1" parent="1">
          <mxGeometry x="-1646.0034482758622" y="2088.003103448276" width="164" height="58" as="geometry" />
        </mxCell>
      </root>
    </mxGraphModel>
  </diagram>
</mxfile>
